<svg width="131" height="16" viewBox="0 0 131 16" fill="none" xmlns="http://www.w3.org/2000/svg">
<path d="M7.75431 2.09264C7.89551 1.96912 8.10385 1.96912 8.24505 2.09264L14.5413 7.64815C14.6941 7.78241 14.708 7.99769 14.5529 8.1713C14.4395 8.32407 14.2034 8.33796 14.0506 8.18287L13.1849 7.41898V12C13.1849 13.0231 12.3562 13.8519 11.333 13.8519H4.66635C3.64366 13.8519 2.81449 13.0231 2.81449 12V7.41898L1.94852 8.18287C1.79505 8.33796 1.561 8.32407 1.42567 8.1713C1.29033 7.99769 1.30496 7.78241 1.45834 7.64815L7.75431 2.09264ZM3.55523 6.78472V12C3.55523 12.6134 4.05292 13.1111 4.66635 13.1111H11.333C11.9464 13.1111 12.4441 12.6134 12.4441 12V6.78472L7.99968 2.86435L3.55523 6.78472Z" fill="#6A7180"/>
<path d="M21.9999 11.5C21.8831 11.5002 21.7699 11.4595 21.6799 11.385C21.6293 11.343 21.5874 11.2914 21.5567 11.2333C21.5261 11.1751 21.5072 11.1114 21.5011 11.046C21.4951 10.9805 21.502 10.9144 21.5216 10.8516C21.5411 10.7888 21.5728 10.7305 21.6149 10.68L23.8549 7.99997L21.6949 5.31497C21.6534 5.26383 21.6224 5.20498 21.6036 5.14181C21.5849 5.07864 21.5789 5.01239 21.5858 4.94688C21.5928 4.88136 21.6127 4.81787 21.6443 4.76006C21.6758 4.70224 21.7185 4.65123 21.7699 4.60997C21.8216 4.56445 21.8822 4.53012 21.9479 4.50912C22.0135 4.48813 22.0827 4.48093 22.1513 4.48797C22.2198 4.49501 22.2862 4.51615 22.3462 4.55005C22.4062 4.58395 22.4585 4.62988 22.4999 4.68497L24.9149 7.68497C24.9884 7.77444 25.0286 7.88666 25.0286 8.00247C25.0286 8.11828 24.9884 8.2305 24.9149 8.31997L22.4149 11.32C22.3647 11.3805 22.301 11.4283 22.2289 11.4596C22.1568 11.4909 22.0784 11.5047 21.9999 11.5Z" fill="#6A7180"/>
<path d="M31.26 12.5V4.1H34.536C35.272 4.1 35.9 4.216 36.42 4.448C36.94 4.68 37.34 5.016 37.62 5.456C37.9 5.896 38.04 6.42 38.04 7.028C38.04 7.636 37.9 8.16 37.62 8.6C37.34 9.032 36.94 9.368 36.42 9.608C35.9 9.84 35.272 9.956 34.536 9.956H31.92L32.46 9.392V12.5H31.26ZM32.46 9.512L31.92 8.912H34.5C35.268 8.912 35.848 8.748 36.24 8.42C36.64 8.092 36.84 7.628 36.84 7.028C36.84 6.428 36.64 5.964 36.24 5.636C35.848 5.308 35.268 5.144 34.5 5.144H31.92L32.46 4.544V9.512ZM43.5244 12.5V11.156L43.4644 10.904V8.612C43.4644 8.124 43.3204 7.748 43.0324 7.484C42.7524 7.212 42.3284 7.076 41.7604 7.076C41.3844 7.076 41.0164 7.14 40.6564 7.268C40.2964 7.388 39.9924 7.552 39.7444 7.76L39.2644 6.896C39.5924 6.632 39.9844 6.432 40.4404 6.296C40.9044 6.152 41.3884 6.08 41.8924 6.08C42.7644 6.08 43.4364 6.292 43.9084 6.716C44.3804 7.14 44.6164 7.788 44.6164 8.66V12.5H43.5244ZM41.4364 12.572C40.9644 12.572 40.5484 12.492 40.1884 12.332C39.8364 12.172 39.5644 11.952 39.3724 11.672C39.1804 11.384 39.0844 11.06 39.0844 10.7C39.0844 10.356 39.1644 10.044 39.3244 9.764C39.4924 9.484 39.7604 9.26 40.1284 9.092C40.5044 8.924 41.0084 8.84 41.6404 8.84H43.6564V9.668H41.6884C41.1124 9.668 40.7244 9.764 40.5244 9.956C40.3244 10.148 40.2244 10.38 40.2244 10.652C40.2244 10.964 40.3484 11.216 40.5964 11.408C40.8444 11.592 41.1884 11.684 41.6284 11.684C42.0604 11.684 42.4364 11.588 42.7564 11.396C43.0844 11.204 43.3204 10.924 43.4644 10.556L43.6924 11.348C43.5404 11.724 43.2724 12.024 42.8884 12.248C42.5044 12.464 42.0204 12.572 41.4364 12.572ZM49.5323 14.9C48.9483 14.9 48.3803 14.816 47.8283 14.648C47.2843 14.488 46.8403 14.256 46.4963 13.952L47.0483 13.064C47.3443 13.32 47.7083 13.52 48.1403 13.664C48.5723 13.816 49.0243 13.892 49.4963 13.892C50.2483 13.892 50.8003 13.716 51.1523 13.364C51.5043 13.012 51.6803 12.476 51.6803 11.756V10.412L51.8003 9.152L51.7403 7.88V6.14H52.8323V11.636C52.8323 12.756 52.5523 13.58 51.9922 14.108C51.4323 14.636 50.6123 14.9 49.5323 14.9ZM49.3883 12.236C48.7723 12.236 48.2203 12.108 47.7323 11.852C47.2523 11.588 46.8683 11.224 46.5803 10.76C46.3003 10.296 46.1603 9.76 46.1603 9.152C46.1603 8.536 46.3003 8 46.5803 7.544C46.8683 7.08 47.2523 6.72 47.7323 6.464C48.2203 6.208 48.7723 6.08 49.3883 6.08C49.9323 6.08 50.4283 6.192 50.8763 6.416C51.3243 6.632 51.6803 6.968 51.9443 7.424C52.2163 7.88 52.3523 8.456 52.3523 9.152C52.3523 9.84 52.2163 10.412 51.9443 10.868C51.6803 11.324 51.3243 11.668 50.8763 11.9C50.4283 12.124 49.9323 12.236 49.3883 12.236ZM49.5203 11.228C49.9443 11.228 50.3203 11.14 50.6483 10.964C50.9763 10.788 51.2323 10.544 51.4163 10.232C51.6083 9.92 51.7043 9.56 51.7043 9.152C51.7043 8.744 51.6083 8.384 51.4163 8.072C51.2323 7.76 50.9763 7.52 50.6483 7.352C50.3203 7.176 49.9443 7.088 49.5203 7.088C49.0963 7.088 48.7163 7.176 48.3803 7.352C48.0523 7.52 47.7923 7.76 47.6003 8.072C47.4163 8.384 47.3243 8.744 47.3243 9.152C47.3243 9.56 47.4163 9.92 47.6003 10.232C47.7923 10.544 48.0523 10.788 48.3803 10.964C48.7163 11.14 49.0963 11.228 49.5203 11.228ZM57.8654 12.572C57.1854 12.572 56.5854 12.432 56.0654 12.152C55.5534 11.872 55.1534 11.488 54.8654 11C54.5854 10.512 54.4454 9.952 54.4454 9.32C54.4454 8.688 54.5814 8.128 54.8534 7.64C55.1334 7.152 55.5134 6.772 55.9934 6.5C56.4814 6.22 57.0294 6.08 57.6374 6.08C58.2534 6.08 58.7974 6.216 59.2694 6.488C59.7414 6.76 60.1094 7.144 60.3734 7.64C60.6454 8.128 60.7814 8.7 60.7814 9.356C60.7814 9.404 60.7774 9.46 60.7694 9.524C60.7694 9.588 60.7654 9.648 60.7574 9.704H55.3454V8.876H60.1574L59.6894 9.164C59.6974 8.756 59.6134 8.392 59.4374 8.072C59.2614 7.752 59.0174 7.504 58.7054 7.328C58.4014 7.144 58.0454 7.052 57.6374 7.052C57.2374 7.052 56.8814 7.144 56.5694 7.328C56.2574 7.504 56.0134 7.756 55.8374 8.084C55.6614 8.404 55.5734 8.772 55.5734 9.188V9.38C55.5734 9.804 55.6694 10.184 55.8614 10.52C56.0614 10.848 56.3374 11.104 56.6894 11.288C57.0414 11.472 57.4454 11.564 57.9014 11.564C58.2774 11.564 58.6174 11.5 58.9214 11.372C59.2334 11.244 59.5054 11.052 59.7374 10.796L60.3734 11.54C60.0854 11.876 59.7254 12.132 59.2934 12.308C58.8694 12.484 58.3934 12.572 57.8654 12.572Z" fill="#6A7180"/>
<path d="M67.9999 11.5C67.8831 11.5002 67.7699 11.4595 67.6799 11.385C67.6293 11.343 67.5874 11.2914 67.5567 11.2333C67.5261 11.1751 67.5072 11.1114 67.5011 11.046C67.4951 10.9805 67.502 10.9144 67.5216 10.8516C67.5411 10.7888 67.5728 10.7305 67.6149 10.68L69.8549 7.99997L67.6949 5.31497C67.6534 5.26383 67.6224 5.20498 67.6036 5.14181C67.5849 5.07864 67.5789 5.01239 67.5858 4.94688C67.5928 4.88136 67.6127 4.81787 67.6443 4.76006C67.6758 4.70224 67.7185 4.65123 67.7699 4.60997C67.8216 4.56445 67.8822 4.53012 67.9479 4.50912C68.0135 4.48813 68.0827 4.48093 68.1513 4.48797C68.2198 4.49501 68.2862 4.51615 68.3462 4.55005C68.4062 4.58395 68.4585 4.62988 68.4999 4.68497L70.9149 7.68497C70.9884 7.77444 71.0286 7.88666 71.0286 8.00247C71.0286 8.11828 70.9884 8.2305 70.9149 8.31997L68.4149 11.32C68.3647 11.3805 68.301 11.4283 68.2289 11.4596C68.1568 11.4909 68.0784 11.5047 67.9999 11.5Z" fill="#6A7180"/>
<path d="M77.26 12.5V4.1H80.536C81.272 4.1 81.9 4.216 82.42 4.448C82.94 4.68 83.34 5.016 83.62 5.456C83.9 5.896 84.04 6.42 84.04 7.028C84.04 7.636 83.9 8.16 83.62 8.6C83.34 9.032 82.94 9.368 82.42 9.608C81.9 9.84 81.272 9.956 80.536 9.956H77.92L78.46 9.392V12.5H77.26ZM78.46 9.512L77.92 8.912H80.5C81.268 8.912 81.848 8.748 82.24 8.42C82.64 8.092 82.84 7.628 82.84 7.028C82.84 6.428 82.64 5.964 82.24 5.636C81.848 5.308 81.268 5.144 80.5 5.144H77.92L78.46 4.544V9.512ZM89.5244 12.5V11.156L89.4644 10.904V8.612C89.4644 8.124 89.3204 7.748 89.0324 7.484C88.7524 7.212 88.3284 7.076 87.7604 7.076C87.3844 7.076 87.0164 7.14 86.6564 7.268C86.2964 7.388 85.9924 7.552 85.7444 7.76L85.2644 6.896C85.5924 6.632 85.9844 6.432 86.4404 6.296C86.9044 6.152 87.3884 6.08 87.8924 6.08C88.7644 6.08 89.4364 6.292 89.9084 6.716C90.3804 7.14 90.6164 7.788 90.6164 8.66V12.5H89.5244ZM87.4364 12.572C86.9644 12.572 86.5484 12.492 86.1884 12.332C85.8364 12.172 85.5644 11.952 85.3724 11.672C85.1804 11.384 85.0844 11.06 85.0844 10.7C85.0844 10.356 85.1644 10.044 85.3244 9.764C85.4924 9.484 85.7604 9.26 86.1284 9.092C86.5044 8.924 87.0084 8.84 87.6404 8.84H89.6564V9.668H87.6884C87.1124 9.668 86.7244 9.764 86.5244 9.956C86.3244 10.148 86.2244 10.38 86.2244 10.652C86.2244 10.964 86.3484 11.216 86.5964 11.408C86.8444 11.592 87.1884 11.684 87.6284 11.684C88.0604 11.684 88.4364 11.588 88.7564 11.396C89.0844 11.204 89.3204 10.924 89.4644 10.556L89.6924 11.348C89.5404 11.724 89.2724 12.024 88.8884 12.248C88.5044 12.464 88.0204 12.572 87.4364 12.572ZM95.5323 14.9C94.9483 14.9 94.3803 14.816 93.8283 14.648C93.2843 14.488 92.8403 14.256 92.4963 13.952L93.0483 13.064C93.3443 13.32 93.7083 13.52 94.1403 13.664C94.5723 13.816 95.0243 13.892 95.4963 13.892C96.2483 13.892 96.8003 13.716 97.1523 13.364C97.5043 13.012 97.6803 12.476 97.6803 11.756V10.412L97.8003 9.152L97.7403 7.88V6.14H98.8323V11.636C98.8323 12.756 98.5523 13.58 97.9922 14.108C97.4323 14.636 96.6123 14.9 95.5323 14.9ZM95.3883 12.236C94.7723 12.236 94.2203 12.108 93.7323 11.852C93.2523 11.588 92.8683 11.224 92.5803 10.76C92.3003 10.296 92.1603 9.76 92.1603 9.152C92.1603 8.536 92.3003 8 92.5803 7.544C92.8683 7.08 93.2523 6.72 93.7323 6.464C94.2203 6.208 94.7723 6.08 95.3883 6.08C95.9323 6.08 96.4283 6.192 96.8763 6.416C97.3243 6.632 97.6803 6.968 97.9443 7.424C98.2163 7.88 98.3523 8.456 98.3523 9.152C98.3523 9.84 98.2163 10.412 97.9443 10.868C97.6803 11.324 97.3243 11.668 96.8763 11.9C96.4283 12.124 95.9323 12.236 95.3883 12.236ZM95.5203 11.228C95.9443 11.228 96.3203 11.14 96.6483 10.964C96.9763 10.788 97.2323 10.544 97.4163 10.232C97.6083 9.92 97.7043 9.56 97.7043 9.152C97.7043 8.744 97.6083 8.384 97.4163 8.072C97.2323 7.76 96.9763 7.52 96.6483 7.352C96.3203 7.176 95.9443 7.088 95.5203 7.088C95.0963 7.088 94.7163 7.176 94.3803 7.352C94.0523 7.52 93.7923 7.76 93.6003 8.072C93.4163 8.384 93.3243 8.744 93.3243 9.152C93.3243 9.56 93.4163 9.92 93.6003 10.232C93.7923 10.544 94.0523 10.788 94.3803 10.964C94.7163 11.14 95.0963 11.228 95.5203 11.228ZM103.865 12.572C103.185 12.572 102.585 12.432 102.065 12.152C101.553 11.872 101.153 11.488 100.865 11C100.585 10.512 100.445 9.952 100.445 9.32C100.445 8.688 100.581 8.128 100.853 7.64C101.133 7.152 101.513 6.772 101.993 6.5C102.481 6.22 103.029 6.08 103.637 6.08C104.253 6.08 104.797 6.216 105.269 6.488C105.741 6.76 106.109 7.144 106.373 7.64C106.645 8.128 106.781 8.7 106.781 9.356C106.781 9.404 106.777 9.46 106.769 9.524C106.769 9.588 106.765 9.648 106.757 9.704H101.345V8.876H106.157L105.689 9.164C105.697 8.756 105.613 8.392 105.437 8.072C105.261 7.752 105.017 7.504 104.705 7.328C104.401 7.144 104.045 7.052 103.637 7.052C103.237 7.052 102.881 7.144 102.569 7.328C102.257 7.504 102.013 7.756 101.837 8.084C101.661 8.404 101.573 8.772 101.573 9.188V9.38C101.573 9.804 101.669 10.184 101.861 10.52C102.061 10.848 102.337 11.104 102.689 11.288C103.041 11.472 103.445 11.564 103.901 11.564C104.277 11.564 104.617 11.5 104.921 11.372C105.233 11.244 105.505 11.052 105.737 10.796L106.373 11.54C106.085 11.876 105.725 12.132 105.293 12.308C104.869 12.484 104.393 12.572 103.865 12.572Z" fill="#6A7180"/>
<path d="M114 11.5C113.883 11.5002 113.77 11.4595 113.68 11.385C113.629 11.343 113.587 11.2914 113.557 11.2333C113.526 11.1751 113.507 11.1114 113.501 11.046C113.495 10.9805 113.502 10.9144 113.522 10.8516C113.541 10.7888 113.573 10.7305 113.615 10.68L115.855 7.99997L113.695 5.31497C113.653 5.26383 113.622 5.20498 113.604 5.14181C113.585 5.07864 113.579 5.01239 113.586 4.94688C113.593 4.88136 113.613 4.81787 113.644 4.76006C113.676 4.70224 113.719 4.65123 113.77 4.60997C113.822 4.56445 113.882 4.53012 113.948 4.50912C114.013 4.48813 114.083 4.48093 114.151 4.48797C114.22 4.49501 114.286 4.51615 114.346 4.55005C114.406 4.58395 114.459 4.62988 114.5 4.68497L116.915 7.68497C116.988 7.77444 117.029 7.88666 117.029 8.00247C117.029 8.11828 116.988 8.2305 116.915 8.31997L114.415 11.32C114.365 11.3805 114.301 11.4283 114.229 11.4596C114.157 11.4909 114.078 11.5047 114 11.5Z" fill="#6A7180"/>
<path d="M124.088 3.596L123.488 6.032L123.344 5.336C123.576 5.336 123.768 5.408 123.92 5.552C124.072 5.696 124.148 5.888 124.148 6.128C124.148 6.368 124.072 6.564 123.92 6.716C123.768 6.868 123.58 6.944 123.356 6.944C123.124 6.944 122.932 6.868 122.78 6.716C122.628 6.556 122.552 6.36 122.552 6.128C122.552 6.048 122.556 5.972 122.564 5.9C122.58 5.828 122.604 5.744 122.636 5.648C122.668 5.544 122.712 5.42 122.768 5.276L123.332 3.596H124.088ZM125.683 6.872L126.283 4.436L126.439 5.132C126.207 5.132 126.011 5.06 125.851 4.916C125.699 4.772 125.623 4.58 125.623 4.34C125.623 4.092 125.699 3.896 125.851 3.752C126.011 3.6 126.203 3.524 126.427 3.524C126.659 3.524 126.847 3.604 126.991 3.764C127.135 3.916 127.207 4.108 127.207 4.34C127.207 4.412 127.203 4.488 127.195 4.568C127.187 4.64 127.167 4.724 127.135 4.82C127.111 4.916 127.071 5.04 127.015 5.192L126.439 6.872H125.683ZM128.73 6.872L129.33 4.436L129.486 5.132C129.254 5.132 129.058 5.06 128.898 4.916C128.746 4.772 128.67 4.58 128.67 4.34C128.67 4.092 128.746 3.896 128.898 3.752C129.058 3.6 129.25 3.524 129.474 3.524C129.706 3.524 129.894 3.604 130.038 3.764C130.182 3.916 130.254 4.108 130.254 4.34C130.254 4.412 130.25 4.488 130.242 4.568C130.234 4.64 130.214 4.724 130.182 4.82C130.158 4.916 130.118 5.04 130.062 5.192L129.486 6.872H128.73Z" fill="#4A3CDB"/>
</svg>
