<svg width="402" height="383" viewBox="0 0 402 383" fill="none" xmlns="http://www.w3.org/2000/svg">
<g filter="url(#filter0_d_1225_751)">
<path d="M358.41 24.2402H43.5903C32.8906 24.2402 24.2168 32.9225 24.2168 43.6326V121.202C24.2168 131.912 32.8906 140.595 43.5903 140.595H358.41C369.109 140.595 377.783 131.912 377.783 121.202V43.6326C377.783 32.9225 369.109 24.2402 358.41 24.2402Z" fill="url(#paint0_linear_1225_751)"/>
<path d="M123.761 59.9519C126.126 57.585 129.967 57.585 132.332 59.9519L133.477 61.0985C135.842 63.4658 135.842 67.3065 133.477 69.6735L112.627 90.5337C111.833 91.3385 110.82 91.8119 109.714 92.153L101.143 94.132C100.632 94.2454 100.103 94.0939 99.7337 93.7247C99.3647 93.3555 99.2133 92.8252 99.3269 92.3139L101.304 83.735C101.559 82.6272 102.118 81.6139 102.922 80.7333L123.761 59.9519ZM130.184 62.0948C129.002 60.9111 127.091 60.9111 125.909 62.0948L123.374 64.6267L128.803 70.0619L131.329 67.5241C132.512 66.3434 132.512 64.425 131.329 63.2413L130.184 62.0948ZM104.255 84.4169L102.817 90.6379L108.948 89.1985C109.581 89.0754 110.092 88.7913 110.489 88.3084L126.666 72.2018L121.236 66.7695L105.059 82.9586C104.662 83.3563 104.379 83.8676 104.255 84.4169ZM106.857 63.8692C107.689 63.8692 108.37 64.5472 108.37 65.3842C108.37 66.2212 107.689 66.8992 106.857 66.8992H94.7484C92.2408 66.8992 90.2078 68.9349 90.2078 71.4443V98.7149C90.2078 101.224 92.2408 103.26 94.7484 103.26H121.992C124.499 103.26 126.533 101.224 126.533 98.7149V86.5946C126.533 85.7612 127.214 85.0796 128.047 85.0796C128.879 85.0796 129.56 85.7612 129.56 86.5946V98.7149C129.56 102.9 126.174 106.29 121.992 106.29H94.7484C90.5691 106.29 87.1807 102.9 87.1807 98.7149V71.4443C87.1807 67.2609 90.5691 63.8692 94.7484 63.8692H106.857Z" fill="white"/>
<path d="M183.566 96.9619V69.8125H196.275C199.53 69.8125 202.009 70.459 203.714 71.7517C205.419 73.0188 206.272 74.7253 206.272 76.8713C206.272 78.3192 205.936 79.5603 205.264 80.5947C204.592 81.6031 203.688 82.3916 202.552 82.9606C201.441 83.5035 200.227 83.775 198.91 83.775L199.607 82.3788C201.131 82.3788 202.5 82.6631 203.714 83.232C204.928 83.775 205.884 84.5767 206.582 85.6367C207.305 86.6967 207.667 88.0154 207.667 89.5928C207.667 91.9198 206.775 93.7299 204.993 95.0226C203.211 96.3154 200.563 96.9619 197.05 96.9619H183.566ZM188.603 93.0058H196.74C198.625 93.0058 200.072 92.6955 201.08 92.075C202.087 91.4544 202.591 90.4589 202.591 89.0886C202.591 87.7439 202.087 86.7615 201.08 86.1409C200.072 85.4944 198.625 85.1713 196.74 85.1713H188.216V81.254H195.732C197.489 81.254 198.832 80.9437 199.762 80.3232C200.718 79.7026 201.196 78.7718 201.196 77.5307C201.196 76.2636 200.718 75.3199 199.762 74.6994C198.832 74.0788 197.489 73.7686 195.732 73.7686H188.603V93.0058ZM221.334 97.2334C219.578 97.2334 218.028 96.9102 216.685 96.2637C215.341 95.5916 214.295 94.5832 213.546 93.2385C212.797 91.8682 212.422 90.1486 212.422 88.0801V76.2508H217.266V87.4208C217.266 89.2825 217.679 90.6787 218.506 91.6096C219.358 92.5145 220.559 92.967 222.109 92.967C223.246 92.967 224.227 92.7343 225.054 92.2689C225.906 91.8035 226.565 91.1054 227.03 90.1745C227.521 89.2437 227.766 88.093 227.766 86.7227V76.2508H232.61V96.9619H227.999V91.3769L228.812 93.0834C228.115 94.428 227.095 95.4621 225.751 96.1862C224.408 96.8843 222.936 97.2334 221.334 97.2334ZM246.738 97.2334C244.467 97.2334 242.709 96.6516 241.47 95.488C240.23 94.2986 239.61 92.5532 239.61 90.2521V71.6742H244.452V90.1357C244.452 91.1182 244.699 91.8811 245.188 92.424C245.707 92.967 246.416 93.2385 247.319 93.2385C248.404 93.2385 249.31 92.9542 250.032 92.3853L251.388 95.8371C250.821 96.3025 250.124 96.6516 249.296 96.8843C248.47 97.117 247.617 97.2334 246.738 97.2334ZM236.2 80.2844V76.4059H249.993V80.2844H236.2ZM262.671 97.2334C260.397 97.2334 258.641 96.6516 257.399 95.488C256.161 94.2986 255.541 92.5532 255.541 90.2521V71.6742H260.384V90.1357C260.384 91.1182 260.629 91.8811 261.121 92.424C261.636 92.967 262.346 93.2385 263.252 93.2385C264.337 93.2385 265.24 92.9542 265.964 92.3853L267.32 95.8371C266.751 96.3025 266.054 96.6516 265.228 96.8843C264.4 97.117 263.547 97.2334 262.671 97.2334ZM252.131 80.2844V76.4059H265.925V80.2844H252.131ZM279.923 97.2334C277.804 97.2334 275.917 96.7808 274.266 95.8759C272.612 94.9451 271.306 93.678 270.352 92.075C269.396 90.472 268.919 88.6491 268.919 86.6063C268.919 84.5379 269.396 82.715 270.352 81.1377C271.306 79.5346 272.612 78.2804 274.266 77.3755C275.917 76.4706 277.804 76.0181 279.923 76.0181C282.066 76.0181 283.964 76.4706 285.618 77.3755C287.297 78.2804 288.602 79.5216 289.532 81.0989C290.486 82.6762 290.966 84.5119 290.966 86.6063C290.966 88.6491 290.486 90.472 289.532 92.075C288.602 93.678 287.297 94.9451 285.618 95.8759C283.964 96.7808 282.066 97.2334 279.923 97.2334ZM279.923 93.0834C281.109 93.0834 282.17 92.8247 283.1 92.3077C284.03 91.7906 284.751 91.0406 285.27 90.0582C285.812 89.0757 286.083 87.925 286.083 86.6063C286.083 85.2617 285.812 84.1113 285.27 83.1545C284.751 82.172 284.03 81.422 283.1 80.905C282.17 80.3879 281.124 80.1293 279.961 80.1293C278.772 80.1293 277.714 80.3879 276.784 80.905C275.878 81.422 275.157 82.172 274.614 83.1545C274.072 84.1113 273.801 85.2617 273.801 86.6063C273.801 87.925 274.072 89.0757 274.614 90.0582C275.157 91.0406 275.878 91.7906 276.784 92.3077C277.714 92.8247 278.76 93.0834 279.923 93.0834ZM307.336 76.0181C308.99 76.0181 310.463 76.3412 311.753 76.9877C313.071 77.6342 314.105 78.6295 314.853 79.9741C315.601 81.2928 315.977 82.9993 315.977 85.0937V96.9619H311.133V85.7143C311.133 83.8785 310.695 82.508 309.816 81.6031C308.964 80.6982 307.762 80.2456 306.212 80.2456C305.077 80.2456 304.069 80.4783 303.19 80.9437C302.311 81.4092 301.628 82.1073 301.137 83.0381C300.672 83.943 300.439 85.0937 300.439 86.49V96.9619H295.596V76.2508H300.207V81.8358L299.393 80.1293C300.117 78.8106 301.163 77.8022 302.532 77.104C303.926 76.38 305.527 76.0181 307.336 76.0181Z" fill="white"/>
</g>
<path d="M111.398 374.111C118.531 374.111 124.313 368.325 124.313 361.184C124.313 354.043 118.531 348.257 111.398 348.257C104.264 348.257 98.4819 354.043 98.4819 361.184C98.4819 368.325 104.264 374.111 111.398 374.111ZM113.819 361.184V155.14H108.976V361.184H113.819Z" fill="#4A3CDB"/>
<path d="M249.434 267.453C256.568 267.453 262.349 261.667 262.349 254.526C262.349 247.384 256.568 241.598 249.434 241.598C242.299 241.598 236.518 247.384 236.518 254.526C236.518 261.667 242.299 267.453 249.434 267.453ZM251.855 254.526V155.14H247.012V254.526H251.855Z" fill="#4A3CDB"/>
<path d="M148.943 373.304V346.154H153.98V373.304H148.943ZM170.345 373.575C168.175 373.575 166.238 373.122 164.533 372.218C162.854 371.287 161.536 370.019 160.581 368.417C159.625 366.814 159.147 364.992 159.147 362.948C159.147 360.88 159.625 359.058 160.581 357.479C161.536 355.877 162.854 354.621 164.533 353.717C166.238 352.813 168.175 352.36 170.345 352.36C172.36 352.36 174.129 352.774 175.653 353.601C177.203 354.403 178.378 355.591 179.179 357.169L175.459 359.341C174.839 358.359 174.077 357.635 173.173 357.169C172.295 356.704 171.339 356.471 170.306 356.471C169.118 356.471 168.046 356.73 167.09 357.247C166.134 357.763 165.385 358.515 164.843 359.496C164.3 360.454 164.029 361.603 164.029 362.948C164.029 364.293 164.3 365.457 164.843 366.439C165.385 367.396 166.134 368.133 167.09 368.649C168.046 369.166 169.118 369.425 170.306 369.425C171.339 369.425 172.295 369.192 173.173 368.727C174.077 368.262 174.839 367.537 175.459 366.555L179.179 368.727C178.378 370.278 177.203 371.481 175.653 372.334C174.129 373.161 172.36 373.575 170.345 373.575ZM192.362 373.575C190.244 373.575 188.358 373.122 186.705 372.218C185.052 371.287 183.748 370.019 182.792 368.417C181.836 366.814 181.358 364.992 181.358 362.948C181.358 360.88 181.836 359.058 182.792 357.479C183.748 355.877 185.052 354.621 186.705 353.717C188.358 352.813 190.244 352.36 192.362 352.36C194.506 352.36 196.405 352.813 198.058 353.717C199.737 354.621 201.042 355.863 201.972 357.441C202.927 359.019 203.405 360.854 203.405 362.948C203.405 364.992 202.927 366.814 201.972 368.417C201.042 370.019 199.737 371.287 198.058 372.218C196.405 373.122 194.506 373.575 192.362 373.575ZM192.362 369.425C193.551 369.425 194.61 369.166 195.54 368.649C196.47 368.133 197.193 367.382 197.71 366.4C198.252 365.418 198.523 364.267 198.523 362.948C198.523 361.603 198.252 360.454 197.71 359.496C197.193 358.515 196.47 357.763 195.54 357.247C194.61 356.73 193.564 356.471 192.401 356.471C191.213 356.471 190.154 356.73 189.224 357.247C188.32 357.763 187.597 358.515 187.054 359.496C186.512 360.454 186.24 361.603 186.24 362.948C186.24 364.267 186.512 365.418 187.054 366.4C187.597 367.382 188.32 368.133 189.224 368.649C190.154 369.166 191.2 369.425 192.362 369.425ZM219.777 352.36C221.43 352.36 222.903 352.682 224.194 353.329C225.512 353.977 226.545 354.971 227.294 356.316C228.043 357.635 228.418 359.341 228.418 361.436V373.304H223.574V362.056C223.574 360.221 223.135 358.849 222.257 357.945C221.405 357.041 220.203 356.587 218.654 356.587C217.517 356.587 216.509 356.82 215.631 357.286C214.753 357.751 214.068 358.449 213.578 359.38C213.113 360.284 212.88 361.435 212.88 362.832V373.304H208.037V352.593H212.648V358.178L211.834 356.471C212.557 355.152 213.603 354.144 214.973 353.446C216.367 352.721 217.969 352.36 219.777 352.36ZM243.9 373.575C241.781 373.575 239.895 373.122 238.242 372.218C236.589 371.287 235.284 370.019 234.328 368.417C233.373 366.814 232.895 364.992 232.895 362.948C232.895 360.88 233.373 359.058 234.328 357.479C235.284 355.877 236.589 354.621 238.242 353.717C239.895 352.813 241.781 352.36 243.9 352.36C246.043 352.36 247.942 352.813 249.596 353.717C251.274 354.621 252.579 355.863 253.509 357.441C254.464 359.019 254.943 360.854 254.943 362.948C254.943 364.992 254.464 366.814 253.509 368.417C252.579 370.019 251.274 371.287 249.596 372.218C247.942 373.122 246.043 373.575 243.9 373.575ZM243.9 369.425C245.087 369.425 246.147 369.166 247.077 368.649C248.007 368.133 248.729 367.382 249.247 366.4C249.79 365.418 250.061 364.267 250.061 362.948C250.061 361.603 249.79 360.454 249.247 359.496C248.729 358.515 248.007 357.763 247.077 357.247C246.147 356.73 245.101 356.471 243.939 356.471C242.75 356.471 241.69 356.73 240.76 357.247C239.856 357.763 239.133 358.515 238.591 359.496C238.048 360.454 237.777 361.603 237.777 362.948C237.777 364.267 238.048 365.418 238.591 366.4C239.133 367.382 239.856 368.133 240.76 368.649C241.69 369.166 242.738 369.425 243.9 369.425Z" fill="#474747"/>
<path d="M289.401 259.373V232.224H294.438V255.107H308.62V259.373H289.401ZM324.918 259.373V255.184L324.647 254.292V246.962C324.647 245.539 324.22 244.441 323.368 243.665C322.516 242.863 321.222 242.463 319.493 242.463C318.331 242.463 317.181 242.645 316.045 243.006C314.933 243.367 313.991 243.871 313.216 244.518L311.318 240.989C312.427 240.136 313.744 239.502 315.27 239.089C316.82 238.649 318.42 238.429 320.074 238.429C323.07 238.429 325.383 239.153 327.01 240.601C328.662 242.023 329.49 244.235 329.49 247.233V259.373H324.918ZM318.408 259.645C316.858 259.645 315.502 259.385 314.34 258.869C313.177 258.326 312.272 257.589 311.628 256.658C311.008 255.701 310.698 254.629 310.698 253.439C310.698 252.275 310.969 251.228 311.511 250.297C312.078 249.367 312.996 248.63 314.262 248.087C315.527 247.544 317.207 247.272 319.3 247.272H325.305V250.491H319.648C317.994 250.491 316.883 250.763 316.316 251.306C315.747 251.822 315.464 252.469 315.464 253.245C315.464 254.125 315.812 254.823 316.51 255.339C317.207 255.856 318.176 256.115 319.416 256.115C320.602 256.115 321.663 255.844 322.593 255.301C323.547 254.758 324.232 253.955 324.647 252.896L325.46 255.805C324.995 257.019 324.155 257.965 322.942 258.636C321.753 259.308 320.242 259.645 318.408 259.645ZM347.176 259.645C345.417 259.645 343.855 259.257 342.485 258.481C341.116 257.705 340.032 256.542 339.232 254.99C338.457 253.412 338.07 251.422 338.07 249.018C338.07 246.586 338.47 244.596 339.271 243.045C340.097 241.493 341.194 240.343 342.565 239.593C343.96 238.817 345.495 238.429 347.176 238.429C349.215 238.429 351.012 238.869 352.561 239.748C354.135 240.627 355.375 241.855 356.281 243.433C357.211 245.011 357.676 246.872 357.676 249.018C357.676 251.163 357.211 253.024 356.281 254.603C355.375 256.181 354.135 257.422 352.561 258.326C351.012 259.206 349.215 259.645 347.176 259.645ZM335.706 259.373V230.595H340.55V243.471L340.162 248.979L340.317 254.486V259.373H335.706ZM346.633 255.495C347.795 255.495 348.827 255.235 349.733 254.719C350.663 254.203 351.399 253.451 351.941 252.469C352.484 251.488 352.755 250.336 352.755 249.018C352.755 247.672 352.484 246.523 351.941 245.566C351.399 244.584 350.663 243.832 349.733 243.316C348.827 242.8 347.795 242.54 346.633 242.54C345.471 242.54 344.425 242.8 343.495 243.316C342.565 243.832 341.828 244.584 341.286 245.566C340.744 246.523 340.472 247.672 340.472 249.018C340.472 250.336 340.744 251.488 341.286 252.469C341.828 253.451 342.565 254.203 343.495 254.719C344.425 255.235 345.471 255.495 346.633 255.495ZM371.993 259.645C369.695 259.645 367.68 259.191 365.948 258.287C364.244 257.356 362.914 256.088 361.958 254.486C361.028 252.884 360.563 251.061 360.563 249.018C360.563 246.95 361.016 245.127 361.919 243.549C362.849 241.946 364.115 240.692 365.716 239.787C367.343 238.882 369.191 238.429 371.257 238.429C373.272 238.429 375.069 238.869 376.643 239.748C378.219 240.627 379.459 241.868 380.362 243.471C381.268 245.074 381.718 246.962 381.718 249.134C381.718 249.34 381.706 249.573 381.68 249.832C381.68 250.091 381.668 250.336 381.641 250.569H364.399V247.35H379.084L377.185 248.358C377.212 247.168 376.967 246.121 376.449 245.217C375.933 244.312 375.224 243.6 374.318 243.083C373.441 242.567 372.419 242.308 371.257 242.308C370.07 242.308 369.024 242.567 368.118 243.083C367.242 243.6 366.544 244.325 366.026 245.255C365.537 246.16 365.29 247.233 365.29 248.475V249.25C365.29 250.491 365.576 251.589 366.142 252.547C366.711 253.504 367.513 254.241 368.545 254.758C369.579 255.274 370.768 255.533 372.109 255.533C373.272 255.533 374.318 255.352 375.248 254.99C376.178 254.629 377.006 254.06 377.728 253.284L380.324 256.27C379.394 257.356 378.219 258.197 376.798 258.791C375.403 259.361 373.802 259.645 371.993 259.645ZM386.371 259.373V230.595H391.214V259.373H386.371Z" fill="#474747"/>
<defs>
<filter id="filter0_d_1225_751" x="14.2168" y="14.2402" width="373.566" height="136.354" filterUnits="userSpaceOnUse" color-interpolation-filters="sRGB">
<feFlood flood-opacity="0" result="BackgroundImageFix"/>
<feColorMatrix in="SourceAlpha" type="matrix" values="0 0 0 0 0 0 0 0 0 0 0 0 0 0 0 0 0 0 127 0" result="hardAlpha"/>
<feOffset/>
<feGaussianBlur stdDeviation="5"/>
<feComposite in2="hardAlpha" operator="out"/>
<feColorMatrix type="matrix" values="0 0 0 0 0.290196 0 0 0 0 0.235294 0 0 0 0 0.858824 0 0 0 0.4 0"/>
<feBlend mode="normal" in2="BackgroundImageFix" result="effect1_dropShadow_1225_751"/>
<feBlend mode="normal" in="SourceGraphic" in2="effect1_dropShadow_1225_751" result="shape"/>
</filter>
<linearGradient id="paint0_linear_1225_751" x1="201" y1="140.595" x2="201" y2="24.2405" gradientUnits="userSpaceOnUse">
<stop stop-color="#221987"/>
<stop offset="1" stop-color="#4A3CDB"/>
</linearGradient>
</defs>
</svg>
