<svg width="348" height="294" viewBox="0 0 348 294" fill="none" xmlns="http://www.w3.org/2000/svg">
<path d="M0 28C0 23.5817 3.58172 20 8 20H340C344.418 20 348 23.5817 348 28V214H0V28Z" fill="#EBECF0"/>
<g clip-path="url(#clip0_1670_1651)">
<path d="M70 34.0059C70 31.7967 71.7909 30.0059 74 30.0059H279V37.4999H70V34.0059Z" fill="#6A7180"/>
<ellipse cx="75.5644" cy="33.4792" rx="1.77044" ry="1.77018" fill="white"/>
<ellipse cx="81.1283" cy="33.4792" rx="1.77044" ry="1.77018" fill="white"/>
<ellipse cx="86.6928" cy="33.4792" rx="1.77044" ry="1.77018" fill="white"/>
<g clip-path="url(#clip1_1670_1651)">
<rect width="430" height="229" transform="translate(70 36.8584)" fill="#F9F9F9"/>
<rect x="71" y="50" width="209" height="154" fill="#F9F9F9"/>
<path d="M168.113 109.5H84.887C83.2926 109.5 82 108.235 82 106.675V97.3247C82 95.7647 83.2926 94.5 84.887 94.5H168.113C169.707 94.5 171 95.7647 171 97.3247V106.675C171 108.235 169.707 109.5 168.113 109.5Z" fill="#F9F9F9" stroke="#B1B5BD" stroke-width="0.5"/>
<mask id="mask0_1670_1651" style="mask-type:luminance" maskUnits="userSpaceOnUse" x="88" y="97" width="76" height="10">
<path d="M163.345 106.284H88.0654V97.7128H163.345V106.284Z" fill="white"/>
</mask>
<g mask="url(#mask0_1670_1651)">
<path d="M163.345 106.284H88.0654V97.7128H163.345V106.284Z" fill="#999EA9"/>
<path d="M88.9414 104.336V99.9728H90.9514C91.4066 99.9728 91.7978 100.033 92.1252 100.154C92.4525 100.27 92.7031 100.44 92.877 100.665C93.056 100.885 93.1455 101.153 93.1455 101.469C93.1455 101.776 93.056 102.042 92.877 102.267C92.7031 102.487 92.4525 102.657 92.1252 102.778C91.7978 102.898 91.4066 102.959 90.9514 102.959H89.2559L89.5091 102.741V104.336H88.9414ZM89.5091 102.778L89.2559 102.554H90.9361C91.4731 102.554 91.8797 102.46 92.1559 102.273C92.4372 102.082 92.5778 101.814 92.5778 101.469C92.5778 101.12 92.4372 100.85 92.1559 100.658C91.8797 100.467 91.4731 100.372 90.9361 100.372H89.2559L89.5091 100.154V102.778ZM94.3329 104.336V99.7109H94.8776V104.336H94.3329ZM98.9173 104.336V103.613L98.8942 103.495V102.285C98.8942 102.007 98.797 101.793 98.6027 101.643C98.4135 101.494 98.1296 101.419 97.7511 101.419C97.4903 101.419 97.2422 101.454 97.007 101.525C96.7717 101.596 96.5722 101.689 96.4086 101.805L96.1631 101.475C96.3676 101.334 96.6131 101.226 96.8996 101.151C97.186 101.072 97.4877 101.032 97.8048 101.032C98.3265 101.032 98.728 101.138 99.0093 101.35C99.2957 101.558 99.4389 101.876 99.4389 102.304V104.336H98.9173ZM97.5287 104.368C97.2269 104.368 96.9635 104.328 96.7385 104.249C96.5185 104.166 96.3498 104.054 96.2321 103.912C96.1145 103.767 96.0557 103.601 96.0557 103.414C96.0557 103.243 96.1043 103.09 96.2014 102.952C96.3037 102.811 96.4674 102.699 96.6924 102.616C96.9226 102.529 97.2295 102.485 97.6131 102.485H99.0016V102.815H97.6284C97.2397 102.815 96.9686 102.871 96.8152 102.984C96.6668 103.096 96.5927 103.235 96.5927 103.401C96.5927 103.588 96.6822 103.738 96.8612 103.85C97.0402 103.962 97.2908 104.018 97.6131 104.018C97.9199 104.018 98.1833 103.962 98.4032 103.85C98.6283 103.734 98.7919 103.568 98.8942 103.351L99.017 103.657C98.9147 103.873 98.7357 104.045 98.48 104.174C98.2293 104.303 97.9122 104.368 97.5287 104.368ZM102.591 104.368C102.192 104.368 101.834 104.297 101.517 104.156C101.205 104.01 100.959 103.813 100.78 103.563C100.601 103.31 100.512 103.021 100.512 102.697C100.512 102.369 100.601 102.08 100.78 101.83C100.959 101.581 101.205 101.386 101.517 101.244C101.834 101.103 102.192 101.032 102.591 101.032C102.933 101.032 103.243 101.087 103.519 101.195C103.795 101.303 104.013 101.465 104.171 101.681L103.765 101.905C103.627 101.739 103.455 101.616 103.251 101.537C103.046 101.458 102.824 101.419 102.583 101.419C102.297 101.419 102.038 101.473 101.808 101.581C101.578 101.685 101.397 101.832 101.264 102.024C101.131 102.215 101.064 102.439 101.064 102.697C101.064 102.955 101.131 103.179 101.264 103.37C101.397 103.561 101.578 103.711 101.808 103.819C102.038 103.923 102.297 103.975 102.583 103.975C102.824 103.975 103.046 103.935 103.251 103.856C103.455 103.777 103.627 103.657 103.765 103.495L104.171 103.719C104.013 103.931 103.795 104.093 103.519 104.205C103.243 104.314 102.933 104.368 102.591 104.368ZM106.885 104.368C106.465 104.368 106.097 104.297 105.78 104.156C105.463 104.01 105.215 103.813 105.036 103.563C104.857 103.31 104.767 103.021 104.767 102.697C104.767 102.373 104.852 102.086 105.02 101.837C105.194 101.587 105.43 101.392 105.726 101.251C106.028 101.105 106.365 101.032 106.739 101.032C107.117 101.032 107.452 101.103 107.744 101.244C108.04 101.382 108.273 101.577 108.442 101.83C108.611 102.08 108.695 102.369 108.695 102.697C108.695 102.718 108.693 102.741 108.687 102.765C108.687 102.786 108.687 102.809 108.687 102.834H105.181V102.504H108.396L108.181 102.635C108.181 102.398 108.117 102.188 107.989 102.005C107.867 101.818 107.698 101.673 107.483 101.569C107.268 101.465 107.02 101.413 106.739 101.413C106.463 101.413 106.215 101.465 105.995 101.569C105.775 101.673 105.603 101.818 105.481 102.005C105.358 102.192 105.297 102.406 105.297 102.647V102.716C105.297 102.965 105.363 103.185 105.496 103.376C105.634 103.563 105.823 103.711 106.064 103.819C106.309 103.923 106.588 103.975 106.9 103.975C107.145 103.975 107.373 103.939 107.583 103.869C107.798 103.798 107.982 103.69 108.135 103.545L108.442 103.831C108.263 104.006 108.038 104.139 107.767 104.23C107.501 104.322 107.207 104.368 106.885 104.368ZM111.86 101.032C112.187 101.032 112.474 101.084 112.719 101.188C112.97 101.288 113.164 101.442 113.302 101.65C113.445 101.857 113.517 102.119 113.517 102.435V104.336H112.972V102.479C112.972 102.134 112.865 101.874 112.65 101.7C112.44 101.521 112.144 101.431 111.76 101.431C111.474 101.431 111.223 101.479 111.008 101.575C110.799 101.666 110.635 101.801 110.517 101.98C110.405 102.155 110.349 102.367 110.349 102.616V104.336H109.804V99.7109H110.349V101.961L110.241 101.793C110.369 101.556 110.574 101.371 110.855 101.238C111.136 101.101 111.471 101.032 111.86 101.032ZM116.63 104.368C116.241 104.368 115.891 104.297 115.579 104.156C115.272 104.01 115.029 103.813 114.85 103.563C114.671 103.31 114.582 103.021 114.582 102.697C114.582 102.369 114.671 102.08 114.85 101.83C115.029 101.581 115.272 101.386 115.579 101.244C115.886 101.103 116.236 101.032 116.63 101.032C117.029 101.032 117.382 101.103 117.689 101.244C118.001 101.386 118.244 101.581 118.418 101.83C118.597 102.08 118.686 102.369 118.686 102.697C118.686 103.021 118.597 103.31 118.418 103.563C118.244 103.813 118.001 104.01 117.689 104.156C117.377 104.297 117.024 104.368 116.63 104.368ZM116.63 103.975C116.922 103.975 117.18 103.923 117.405 103.819C117.63 103.711 117.806 103.561 117.934 103.37C118.067 103.175 118.134 102.95 118.134 102.697C118.134 102.439 118.067 102.215 117.934 102.024C117.806 101.832 117.63 101.685 117.405 101.581C117.18 101.473 116.924 101.419 116.638 101.419C116.351 101.419 116.096 101.473 115.871 101.581C115.646 101.685 115.466 101.832 115.334 102.024C115.201 102.215 115.134 102.439 115.134 102.697C115.134 102.95 115.201 103.175 115.334 103.37C115.466 103.561 115.646 103.711 115.871 103.819C116.096 103.923 116.349 103.975 116.63 103.975ZM119.798 104.336V99.7109H120.343V104.336H119.798ZM123.462 104.368C123.078 104.368 122.733 104.297 122.426 104.156C122.124 104.014 121.887 103.819 121.713 103.57C121.539 103.316 121.452 103.025 121.452 102.697C121.452 102.364 121.539 102.074 121.713 101.824C121.887 101.575 122.124 101.382 122.426 101.244C122.733 101.103 123.078 101.032 123.462 101.032C123.815 101.032 124.129 101.097 124.405 101.226C124.687 101.355 124.909 101.544 125.073 101.793C125.242 102.038 125.326 102.34 125.326 102.697C125.326 103.05 125.244 103.351 125.081 103.601C124.917 103.85 124.694 104.041 124.413 104.174C124.137 104.303 123.82 104.368 123.462 104.368ZM123.5 103.975C123.787 103.975 124.042 103.923 124.267 103.819C124.497 103.711 124.677 103.561 124.804 103.37C124.937 103.175 125.004 102.95 125.004 102.697C125.004 102.439 124.937 102.215 124.804 102.024C124.677 101.832 124.497 101.685 124.267 101.581C124.042 101.473 123.787 101.419 123.5 101.419C123.219 101.419 122.966 101.473 122.741 101.581C122.516 101.685 122.337 101.832 122.204 102.024C122.071 102.215 122.004 102.439 122.004 102.697C122.004 102.95 122.071 103.175 122.204 103.37C122.337 103.561 122.516 103.711 122.741 103.819C122.966 103.923 123.219 103.975 123.5 103.975ZM125.019 104.336V103.351L125.073 102.691L124.996 102.03V99.7109H125.541V104.336H125.019ZM128.768 104.368C128.349 104.368 127.981 104.297 127.664 104.156C127.347 104.01 127.099 103.813 126.92 103.563C126.741 103.31 126.651 103.021 126.651 102.697C126.651 102.373 126.736 102.086 126.904 101.837C127.078 101.587 127.314 101.392 127.61 101.251C127.912 101.105 128.25 101.032 128.623 101.032C129.001 101.032 129.336 101.103 129.628 101.244C129.924 101.382 130.157 101.577 130.326 101.83C130.495 102.08 130.579 102.369 130.579 102.697C130.579 102.718 130.577 102.741 130.571 102.765C130.571 102.786 130.571 102.809 130.571 102.834H127.066V102.504H130.28L130.065 102.635C130.065 102.398 130.001 102.188 129.873 102.005C129.75 101.818 129.582 101.673 129.367 101.569C129.152 101.465 128.904 101.413 128.623 101.413C128.347 101.413 128.099 101.465 127.879 101.569C127.659 101.673 127.487 101.818 127.365 102.005C127.242 102.192 127.181 102.406 127.181 102.647V102.716C127.181 102.965 127.247 103.185 127.38 103.376C127.518 103.563 127.707 103.711 127.948 103.819C128.193 103.923 128.472 103.975 128.784 103.975C129.029 103.975 129.257 103.939 129.467 103.869C129.681 103.798 129.866 103.69 130.019 103.545L130.326 103.831C130.147 104.006 129.922 104.139 129.651 104.23C129.385 104.322 129.091 104.368 128.768 104.368ZM131.688 104.336V101.064H132.21V101.955L132.156 101.799C132.268 101.55 132.458 101.361 132.724 101.232C132.989 101.099 133.319 101.032 133.713 101.032V101.463C133.693 101.463 133.672 101.463 133.652 101.463C133.631 101.458 133.611 101.456 133.591 101.456C133.166 101.456 132.834 101.562 132.593 101.774C132.353 101.982 132.233 102.279 132.233 102.666V104.336H131.688Z" fill="#999EA9"/>
</g>
<path d="M274.613 109.5H191.387C189.793 109.5 188.5 108.151 188.5 106.487V96.513C188.5 94.849 189.793 93.5 191.387 93.5H274.613C276.207 93.5 277.5 94.849 277.5 96.513V106.487C277.5 108.151 276.207 109.5 274.613 109.5Z" fill="#F9F9F9" stroke="#B1B5BD" stroke-width="0.5"/>
<mask id="mask1_1670_1651" style="mask-type:luminance" maskUnits="userSpaceOnUse" x="194" y="96" width="76" height="11">
<path d="M269.845 106.071H194.565V96.9284H269.845V106.071Z" fill="white"/>
</mask>
<g mask="url(#mask1_1670_1651)">
<path d="M269.845 106.071H194.565V96.9284H269.845V106.071Z" fill="#999EA9"/>
<path d="M195.441 103.993V99.3388H197.451C197.907 99.3388 198.298 99.4031 198.625 99.5317C198.953 99.6558 199.203 99.8375 199.377 100.077C199.556 100.312 199.646 100.598 199.646 100.935C199.646 101.263 199.556 101.546 199.377 101.786C199.203 102.021 198.953 102.203 198.625 102.331C198.298 102.46 197.907 102.524 197.451 102.524H195.756L196.009 102.291V103.993H195.441ZM196.009 102.331L195.756 102.092H197.436C197.973 102.092 198.38 101.992 198.656 101.792C198.937 101.589 199.078 101.303 199.078 100.935C199.078 100.562 198.937 100.274 198.656 100.07C198.38 99.8663 197.973 99.7644 197.436 99.7644H195.756L196.009 99.5317V102.331ZM200.833 103.993V99.0596H201.378V103.993H200.833ZM205.417 103.993V103.222L205.394 103.096V101.806C205.394 101.509 205.297 101.28 205.103 101.121C204.913 100.961 204.63 100.881 204.251 100.881C203.99 100.881 203.742 100.919 203.507 100.995C203.272 101.07 203.072 101.17 202.909 101.294L202.663 100.941C202.868 100.791 203.113 100.675 203.4 100.596C203.686 100.511 203.988 100.469 204.305 100.469C204.827 100.469 205.228 100.582 205.509 100.808C205.796 101.03 205.939 101.369 205.939 101.826V103.993H205.417ZM204.029 104.027C203.727 104.027 203.463 103.985 203.238 103.9C203.019 103.812 202.85 103.692 202.732 103.541C202.614 103.386 202.556 103.209 202.556 103.009C202.556 102.828 202.604 102.664 202.701 102.517C202.804 102.367 202.967 102.247 203.192 102.158C203.423 102.065 203.729 102.019 204.113 102.019H205.502V102.371H204.128C203.74 102.371 203.469 102.431 203.315 102.55C203.167 102.67 203.093 102.819 203.093 102.996C203.093 103.195 203.182 103.355 203.361 103.475C203.54 103.594 203.791 103.654 204.113 103.654C204.42 103.654 204.683 103.594 204.903 103.475C205.128 103.351 205.292 103.173 205.394 102.943L205.517 103.269C205.415 103.499 205.236 103.683 204.98 103.821C204.729 103.958 204.412 104.027 204.029 104.027ZM209.091 104.027C208.692 104.027 208.334 103.951 208.017 103.801C207.705 103.645 207.459 103.435 207.28 103.169C207.101 102.898 207.012 102.59 207.012 102.245C207.012 101.894 207.101 101.586 207.28 101.32C207.459 101.054 207.705 100.846 208.017 100.695C208.334 100.545 208.692 100.469 209.091 100.469C209.433 100.469 209.743 100.527 210.019 100.642C210.295 100.757 210.513 100.93 210.671 101.161L210.265 101.4C210.127 101.223 209.955 101.092 209.751 101.008C209.546 100.924 209.324 100.881 209.083 100.881C208.797 100.881 208.538 100.939 208.308 101.054C208.078 101.165 207.897 101.323 207.764 101.526C207.631 101.73 207.564 101.97 207.564 102.245C207.564 102.519 207.631 102.759 207.764 102.963C207.897 103.167 208.078 103.326 208.308 103.441C208.538 103.552 208.797 103.608 209.083 103.608C209.324 103.608 209.546 103.566 209.751 103.481C209.955 103.397 210.127 103.269 210.265 103.096L210.671 103.335C210.513 103.561 210.295 103.734 210.019 103.854C209.743 103.969 209.433 104.027 209.091 104.027ZM213.385 104.027C212.965 104.027 212.597 103.951 212.28 103.801C211.963 103.645 211.715 103.435 211.536 103.169C211.357 102.898 211.267 102.59 211.267 102.245C211.267 101.899 211.352 101.593 211.52 101.327C211.694 101.061 211.93 100.853 212.226 100.702C212.528 100.547 212.865 100.469 213.239 100.469C213.617 100.469 213.952 100.545 214.244 100.695C214.54 100.842 214.773 101.05 214.942 101.32C215.111 101.586 215.195 101.894 215.195 102.245C215.195 102.267 215.193 102.291 215.187 102.318C215.187 102.34 215.187 102.364 215.187 102.391H211.681V102.038H214.896L214.681 102.178C214.681 101.925 214.617 101.702 214.489 101.507C214.367 101.307 214.198 101.152 213.983 101.041C213.768 100.93 213.52 100.875 213.239 100.875C212.963 100.875 212.715 100.93 212.495 101.041C212.275 101.152 212.103 101.307 211.981 101.507C211.858 101.706 211.797 101.934 211.797 102.191V102.265C211.797 102.531 211.863 102.765 211.996 102.969C212.134 103.169 212.323 103.326 212.564 103.441C212.809 103.552 213.088 103.608 213.4 103.608C213.645 103.608 213.873 103.57 214.083 103.495C214.298 103.419 214.482 103.304 214.635 103.149L214.942 103.455C214.763 103.641 214.538 103.783 214.267 103.88C214.001 103.978 213.707 104.027 213.385 104.027ZM218.36 100.469C218.687 100.469 218.974 100.525 219.219 100.635C219.47 100.742 219.664 100.906 219.802 101.128C219.945 101.349 220.017 101.628 220.017 101.965V103.993H219.472V102.012C219.472 101.644 219.365 101.367 219.15 101.181C218.94 100.99 218.644 100.895 218.26 100.895C217.974 100.895 217.723 100.946 217.508 101.048C217.299 101.145 217.135 101.289 217.017 101.48C216.905 101.666 216.849 101.892 216.849 102.158V103.993H216.304V99.0596H216.849V101.46L216.741 101.28C216.869 101.028 217.074 100.831 217.355 100.689C217.636 100.542 217.971 100.469 218.36 100.469ZM223.13 104.027C222.741 104.027 222.391 103.951 222.079 103.801C221.772 103.645 221.529 103.435 221.35 103.169C221.171 102.898 221.082 102.59 221.082 102.245C221.082 101.894 221.171 101.586 221.35 101.32C221.529 101.054 221.772 100.846 222.079 100.695C222.386 100.545 222.736 100.469 223.13 100.469C223.529 100.469 223.882 100.545 224.189 100.695C224.501 100.846 224.744 101.054 224.918 101.32C225.097 101.586 225.186 101.894 225.186 102.245C225.186 102.59 225.097 102.898 224.918 103.169C224.744 103.435 224.501 103.645 224.189 103.801C223.877 103.951 223.524 104.027 223.13 104.027ZM223.13 103.608C223.422 103.608 223.68 103.552 223.905 103.441C224.13 103.326 224.306 103.167 224.434 102.963C224.567 102.754 224.634 102.515 224.634 102.245C224.634 101.97 224.567 101.73 224.434 101.526C224.306 101.323 224.13 101.165 223.905 101.054C223.68 100.939 223.424 100.881 223.138 100.881C222.851 100.881 222.596 100.939 222.371 101.054C222.146 101.165 221.966 101.323 221.834 101.526C221.701 101.73 221.634 101.97 221.634 102.245C221.634 102.515 221.701 102.754 221.834 102.963C221.966 103.167 222.146 103.326 222.371 103.441C222.596 103.552 222.849 103.608 223.13 103.608ZM226.298 103.993V99.0596H226.843V103.993H226.298ZM229.962 104.027C229.578 104.027 229.233 103.951 228.926 103.801C228.624 103.65 228.387 103.441 228.213 103.176C228.039 102.905 227.952 102.595 227.952 102.245C227.952 101.89 228.039 101.58 228.213 101.314C228.387 101.048 228.624 100.842 228.926 100.695C229.233 100.545 229.578 100.469 229.962 100.469C230.315 100.469 230.629 100.538 230.905 100.675C231.187 100.813 231.409 101.014 231.573 101.28C231.742 101.542 231.826 101.863 231.826 102.245C231.826 102.621 231.744 102.943 231.581 103.209C231.417 103.475 231.194 103.679 230.913 103.821C230.637 103.958 230.32 104.027 229.962 104.027ZM230 103.608C230.287 103.608 230.542 103.552 230.767 103.441C230.997 103.326 231.177 103.167 231.304 102.963C231.437 102.754 231.504 102.515 231.504 102.245C231.504 101.97 231.437 101.73 231.304 101.526C231.177 101.323 230.997 101.165 230.767 101.054C230.542 100.939 230.287 100.881 230 100.881C229.719 100.881 229.466 100.939 229.241 101.054C229.016 101.165 228.837 101.323 228.704 101.526C228.571 101.73 228.504 101.97 228.504 102.245C228.504 102.515 228.571 102.754 228.704 102.963C228.837 103.167 229.016 103.326 229.241 103.441C229.466 103.552 229.719 103.608 230 103.608ZM231.519 103.993V102.943L231.573 102.238L231.496 101.533V99.0596H232.041V103.993H231.519ZM235.268 104.027C234.849 104.027 234.481 103.951 234.164 103.801C233.847 103.645 233.599 103.435 233.42 103.169C233.241 102.898 233.151 102.59 233.151 102.245C233.151 101.899 233.236 101.593 233.404 101.327C233.578 101.061 233.814 100.853 234.11 100.702C234.412 100.547 234.75 100.469 235.123 100.469C235.501 100.469 235.836 100.545 236.128 100.695C236.424 100.842 236.657 101.05 236.826 101.32C236.995 101.586 237.079 101.894 237.079 102.245C237.079 102.267 237.077 102.291 237.071 102.318C237.071 102.34 237.071 102.364 237.071 102.391H233.566V102.038H236.78L236.565 102.178C236.565 101.925 236.501 101.702 236.373 101.507C236.25 101.307 236.082 101.152 235.867 101.041C235.652 100.93 235.404 100.875 235.123 100.875C234.847 100.875 234.599 100.93 234.379 101.041C234.159 101.152 233.987 101.307 233.865 101.507C233.742 101.706 233.681 101.934 233.681 102.191V102.265C233.681 102.531 233.747 102.765 233.88 102.969C234.018 103.169 234.207 103.326 234.448 103.441C234.693 103.552 234.972 103.608 235.284 103.608C235.529 103.608 235.757 103.57 235.967 103.495C236.181 103.419 236.366 103.304 236.519 103.149L236.826 103.455C236.647 103.641 236.422 103.783 236.151 103.88C235.885 103.978 235.591 104.027 235.268 104.027ZM238.188 103.993V100.502H238.71V101.453L238.656 101.287C238.768 101.021 238.958 100.819 239.224 100.682C239.489 100.54 239.819 100.469 240.213 100.469V100.928C240.193 100.928 240.172 100.928 240.152 100.928C240.131 100.924 240.111 100.921 240.091 100.921C239.666 100.921 239.334 101.034 239.093 101.261C238.853 101.482 238.733 101.799 238.733 102.211V103.993H238.188Z" fill="#999EA9"/>
</g>
<path d="M274.613 149.5H191.387C189.793 149.5 188.5 148.151 188.5 146.487V136.513C188.5 134.849 189.793 133.5 191.387 133.5H274.613C276.207 133.5 277.5 134.849 277.5 136.513V146.487C277.5 148.151 276.207 149.5 274.613 149.5Z" fill="#F9F9F9" stroke="#B1B5BD" stroke-width="0.5"/>
<mask id="mask2_1670_1651" style="mask-type:luminance" maskUnits="userSpaceOnUse" x="194" y="136" width="76" height="11">
<path d="M269.845 146.071H194.565V136.928H269.845V146.071Z" fill="white"/>
</mask>
<g mask="url(#mask2_1670_1651)">
<path d="M269.845 146.071H194.565V136.928H269.845V146.071Z" fill="#999EA9"/>
<path d="M195.441 143.993V139.339H197.451C197.907 139.339 198.298 139.403 198.625 139.532C198.953 139.656 199.203 139.838 199.377 140.077C199.556 140.312 199.646 140.598 199.646 140.935C199.646 141.263 199.556 141.546 199.377 141.786C199.203 142.021 198.953 142.203 198.625 142.331C198.298 142.46 197.907 142.524 197.451 142.524H195.756L196.009 142.291V143.993H195.441ZM196.009 142.331L195.756 142.092H197.436C197.973 142.092 198.38 141.992 198.656 141.792C198.937 141.589 199.078 141.303 199.078 140.935C199.078 140.562 198.937 140.274 198.656 140.07C198.38 139.866 197.973 139.764 197.436 139.764H195.756L196.009 139.532V142.331ZM200.833 143.993V139.06H201.378V143.993H200.833ZM205.417 143.993V143.222L205.394 143.096V141.806C205.394 141.509 205.297 141.28 205.103 141.121C204.913 140.961 204.63 140.881 204.251 140.881C203.99 140.881 203.742 140.919 203.507 140.995C203.272 141.07 203.072 141.17 202.909 141.294L202.663 140.941C202.868 140.791 203.113 140.675 203.4 140.596C203.686 140.511 203.988 140.469 204.305 140.469C204.827 140.469 205.228 140.582 205.509 140.808C205.796 141.03 205.939 141.369 205.939 141.826V143.993H205.417ZM204.029 144.027C203.727 144.027 203.463 143.985 203.238 143.9C203.019 143.812 202.85 143.692 202.732 143.541C202.614 143.386 202.556 143.209 202.556 143.009C202.556 142.828 202.604 142.664 202.701 142.517C202.804 142.367 202.967 142.247 203.192 142.158C203.423 142.065 203.729 142.019 204.113 142.019H205.502V142.371H204.128C203.74 142.371 203.469 142.431 203.315 142.55C203.167 142.67 203.093 142.819 203.093 142.996C203.093 143.195 203.182 143.355 203.361 143.475C203.54 143.594 203.791 143.654 204.113 143.654C204.42 143.654 204.683 143.594 204.903 143.475C205.128 143.351 205.292 143.173 205.394 142.943L205.517 143.269C205.415 143.499 205.236 143.683 204.98 143.821C204.729 143.958 204.412 144.027 204.029 144.027ZM209.091 144.027C208.692 144.027 208.334 143.951 208.017 143.801C207.705 143.645 207.459 143.435 207.28 143.169C207.101 142.898 207.012 142.59 207.012 142.245C207.012 141.894 207.101 141.586 207.28 141.32C207.459 141.054 207.705 140.846 208.017 140.695C208.334 140.545 208.692 140.469 209.091 140.469C209.433 140.469 209.743 140.527 210.019 140.642C210.295 140.757 210.513 140.93 210.671 141.161L210.265 141.4C210.127 141.223 209.955 141.092 209.751 141.008C209.546 140.924 209.324 140.881 209.083 140.881C208.797 140.881 208.538 140.939 208.308 141.054C208.078 141.165 207.897 141.323 207.764 141.526C207.631 141.73 207.564 141.97 207.564 142.245C207.564 142.519 207.631 142.759 207.764 142.963C207.897 143.167 208.078 143.326 208.308 143.441C208.538 143.552 208.797 143.608 209.083 143.608C209.324 143.608 209.546 143.566 209.751 143.481C209.955 143.397 210.127 143.269 210.265 143.096L210.671 143.335C210.513 143.561 210.295 143.734 210.019 143.854C209.743 143.969 209.433 144.027 209.091 144.027ZM213.385 144.027C212.965 144.027 212.597 143.951 212.28 143.801C211.963 143.645 211.715 143.435 211.536 143.169C211.357 142.898 211.267 142.59 211.267 142.245C211.267 141.899 211.352 141.593 211.52 141.327C211.694 141.061 211.93 140.853 212.226 140.702C212.528 140.547 212.865 140.469 213.239 140.469C213.617 140.469 213.952 140.545 214.244 140.695C214.54 140.842 214.773 141.05 214.942 141.32C215.111 141.586 215.195 141.894 215.195 142.245C215.195 142.267 215.193 142.291 215.187 142.318C215.187 142.34 215.187 142.364 215.187 142.391H211.681V142.038H214.896L214.681 142.178C214.681 141.925 214.617 141.702 214.489 141.507C214.367 141.307 214.198 141.152 213.983 141.041C213.768 140.93 213.52 140.875 213.239 140.875C212.963 140.875 212.715 140.93 212.495 141.041C212.275 141.152 212.103 141.307 211.981 141.507C211.858 141.706 211.797 141.934 211.797 142.191V142.265C211.797 142.531 211.863 142.765 211.996 142.969C212.134 143.169 212.323 143.326 212.564 143.441C212.809 143.552 213.088 143.608 213.4 143.608C213.645 143.608 213.873 143.57 214.083 143.495C214.298 143.419 214.482 143.304 214.635 143.149L214.942 143.455C214.763 143.641 214.538 143.783 214.267 143.88C214.001 143.978 213.707 144.027 213.385 144.027ZM218.36 140.469C218.687 140.469 218.974 140.525 219.219 140.635C219.47 140.742 219.664 140.906 219.802 141.128C219.945 141.349 220.017 141.628 220.017 141.965V143.993H219.472V142.012C219.472 141.644 219.365 141.367 219.15 141.181C218.94 140.99 218.644 140.895 218.26 140.895C217.974 140.895 217.723 140.946 217.508 141.048C217.299 141.145 217.135 141.289 217.017 141.48C216.905 141.666 216.849 141.892 216.849 142.158V143.993H216.304V139.06H216.849V141.46L216.741 141.28C216.869 141.028 217.074 140.831 217.355 140.689C217.636 140.542 217.971 140.469 218.36 140.469ZM223.13 144.027C222.741 144.027 222.391 143.951 222.079 143.801C221.772 143.645 221.529 143.435 221.35 143.169C221.171 142.898 221.082 142.59 221.082 142.245C221.082 141.894 221.171 141.586 221.35 141.32C221.529 141.054 221.772 140.846 222.079 140.695C222.386 140.545 222.736 140.469 223.13 140.469C223.529 140.469 223.882 140.545 224.189 140.695C224.501 140.846 224.744 141.054 224.918 141.32C225.097 141.586 225.186 141.894 225.186 142.245C225.186 142.59 225.097 142.898 224.918 143.169C224.744 143.435 224.501 143.645 224.189 143.801C223.877 143.951 223.524 144.027 223.13 144.027ZM223.13 143.608C223.422 143.608 223.68 143.552 223.905 143.441C224.13 143.326 224.306 143.167 224.434 142.963C224.567 142.754 224.634 142.515 224.634 142.245C224.634 141.97 224.567 141.73 224.434 141.526C224.306 141.323 224.13 141.165 223.905 141.054C223.68 140.939 223.424 140.881 223.138 140.881C222.851 140.881 222.596 140.939 222.371 141.054C222.146 141.165 221.966 141.323 221.834 141.526C221.701 141.73 221.634 141.97 221.634 142.245C221.634 142.515 221.701 142.754 221.834 142.963C221.966 143.167 222.146 143.326 222.371 143.441C222.596 143.552 222.849 143.608 223.13 143.608ZM226.298 143.993V139.06H226.843V143.993H226.298ZM229.962 144.027C229.578 144.027 229.233 143.951 228.926 143.801C228.624 143.65 228.387 143.441 228.213 143.176C228.039 142.905 227.952 142.595 227.952 142.245C227.952 141.89 228.039 141.58 228.213 141.314C228.387 141.048 228.624 140.842 228.926 140.695C229.233 140.545 229.578 140.469 229.962 140.469C230.315 140.469 230.629 140.538 230.905 140.675C231.187 140.813 231.409 141.014 231.573 141.28C231.742 141.542 231.826 141.863 231.826 142.245C231.826 142.621 231.744 142.943 231.581 143.209C231.417 143.475 231.194 143.679 230.913 143.821C230.637 143.958 230.32 144.027 229.962 144.027ZM230 143.608C230.287 143.608 230.542 143.552 230.767 143.441C230.997 143.326 231.177 143.167 231.304 142.963C231.437 142.754 231.504 142.515 231.504 142.245C231.504 141.97 231.437 141.73 231.304 141.526C231.177 141.323 230.997 141.165 230.767 141.054C230.542 140.939 230.287 140.881 230 140.881C229.719 140.881 229.466 140.939 229.241 141.054C229.016 141.165 228.837 141.323 228.704 141.526C228.571 141.73 228.504 141.97 228.504 142.245C228.504 142.515 228.571 142.754 228.704 142.963C228.837 143.167 229.016 143.326 229.241 143.441C229.466 143.552 229.719 143.608 230 143.608ZM231.519 143.993V142.943L231.573 142.238L231.496 141.533V139.06H232.041V143.993H231.519ZM235.268 144.027C234.849 144.027 234.481 143.951 234.164 143.801C233.847 143.645 233.599 143.435 233.42 143.169C233.241 142.898 233.151 142.59 233.151 142.245C233.151 141.899 233.236 141.593 233.404 141.327C233.578 141.061 233.814 140.853 234.11 140.702C234.412 140.547 234.75 140.469 235.123 140.469C235.501 140.469 235.836 140.545 236.128 140.695C236.424 140.842 236.657 141.05 236.826 141.32C236.995 141.586 237.079 141.894 237.079 142.245C237.079 142.267 237.077 142.291 237.071 142.318C237.071 142.34 237.071 142.364 237.071 142.391H233.566V142.038H236.78L236.565 142.178C236.565 141.925 236.501 141.702 236.373 141.507C236.25 141.307 236.082 141.152 235.867 141.041C235.652 140.93 235.404 140.875 235.123 140.875C234.847 140.875 234.599 140.93 234.379 141.041C234.159 141.152 233.987 141.307 233.865 141.507C233.742 141.706 233.681 141.934 233.681 142.191V142.265C233.681 142.531 233.747 142.765 233.88 142.969C234.018 143.169 234.207 143.326 234.448 143.441C234.693 143.552 234.972 143.608 235.284 143.608C235.529 143.608 235.757 143.57 235.967 143.495C236.181 143.419 236.366 143.304 236.519 143.149L236.826 143.455C236.647 143.641 236.422 143.783 236.151 143.88C235.885 143.978 235.591 144.027 235.268 144.027ZM238.188 143.993V140.502H238.71V141.453L238.656 141.287C238.768 141.021 238.958 140.819 239.224 140.682C239.489 140.54 239.819 140.469 240.213 140.469V140.928C240.193 140.928 240.172 140.928 240.152 140.928C240.131 140.924 240.111 140.921 240.091 140.921C239.666 140.921 239.334 141.034 239.093 141.261C238.853 141.482 238.733 141.799 238.733 142.211V143.993H238.188Z" fill="#999EA9"/>
</g>
<path d="M168.113 149H84.887C83.2926 149 82 147.651 82 145.987V136.013C82 134.349 83.2926 133 84.887 133H168.113C169.707 133 171 134.349 171 136.013V145.987C171 147.651 169.707 149 168.113 149Z" fill="#F9F9F9" stroke="#B1B5BD" stroke-width="0.5"/>
<mask id="mask3_1670_1651" style="mask-type:luminance" maskUnits="userSpaceOnUse" x="88" y="136" width="63" height="10">
<path d="M150.505 145.571H88.0649V136.428H150.505V145.571Z" fill="white"/>
</mask>
<g mask="url(#mask3_1670_1651)">
<path d="M150.505 145.571H88.0649V136.428H150.505V145.571Z" fill="#999EA9"/>
<path d="M88.791 143.493V138.839H90.4582C90.8358 138.839 91.1603 138.903 91.4318 139.032C91.7033 139.156 91.9112 139.338 92.0554 139.577C92.2039 139.812 92.2781 140.098 92.2781 140.435C92.2781 140.763 92.2039 141.046 92.0554 141.286C91.9112 141.521 91.7033 141.703 91.4318 141.831C91.1603 141.96 90.8358 142.024 90.4582 142.024H89.0519L89.2619 141.791V143.493H88.791ZM89.2619 141.831L89.0519 141.592H90.4455C90.8909 141.592 91.2282 141.492 91.4573 141.292C91.6906 141.089 91.8072 140.803 91.8072 140.435C91.8072 140.062 91.6906 139.774 91.4573 139.57C91.2282 139.366 90.8909 139.264 90.4455 139.264H89.0519L89.2619 139.032V141.831ZM93.263 143.493V138.56H93.7148V143.493H93.263ZM97.0655 143.493V142.722L97.0464 142.596V141.306C97.0464 141.009 96.9658 140.78 96.8046 140.621C96.6476 140.461 96.4122 140.381 96.0983 140.381C95.8819 140.381 95.6761 140.419 95.481 140.495C95.2859 140.57 95.1204 140.67 94.9847 140.794L94.781 140.441C94.9507 140.291 95.1543 140.175 95.3919 140.096C95.6295 140.011 95.8798 139.969 96.1428 139.969C96.5755 139.969 96.9085 140.082 97.1418 140.308C97.3794 140.53 97.4982 140.869 97.4982 141.326V143.493H97.0655ZM95.9137 143.527C95.6634 143.527 95.4449 143.485 95.2583 143.4C95.0759 143.312 94.9359 143.192 94.8383 143.041C94.7407 142.886 94.692 142.709 94.692 142.509C94.692 142.328 94.7322 142.164 94.8129 142.017C94.8977 141.867 95.0334 141.747 95.2201 141.658C95.411 141.565 95.6656 141.519 95.9837 141.519H97.1355V141.871H95.9964C95.674 141.871 95.4492 141.931 95.3219 142.05C95.1989 142.17 95.1374 142.319 95.1374 142.496C95.1374 142.695 95.2116 142.855 95.3601 142.975C95.5086 143.094 95.7165 143.154 95.9837 143.154C96.2383 143.154 96.4567 143.094 96.6391 142.975C96.8258 142.851 96.9615 142.673 97.0464 142.443L97.1482 142.769C97.0633 142.999 96.9149 143.183 96.7028 143.321C96.4949 143.458 96.2319 143.527 95.9137 143.527ZM100.113 143.527C99.7816 143.527 99.4847 143.451 99.2217 143.301C98.9629 143.145 98.7593 142.935 98.6108 142.669C98.4623 142.398 98.3881 142.09 98.3881 141.745C98.3881 141.394 98.4623 141.086 98.6108 140.82C98.7593 140.554 98.9629 140.346 99.2217 140.195C99.4847 140.045 99.7816 139.969 100.113 139.969C100.397 139.969 100.653 140.027 100.883 140.142C101.112 140.257 101.292 140.43 101.423 140.661L101.086 140.9C100.972 140.723 100.829 140.592 100.66 140.508C100.49 140.424 100.306 140.381 100.106 140.381C99.8686 140.381 99.6544 140.439 99.4635 140.554C99.2726 140.665 99.122 140.823 99.0117 141.026C98.9014 141.23 98.8462 141.47 98.8462 141.745C98.8462 142.019 98.9014 142.259 99.0117 142.463C99.122 142.667 99.2726 142.826 99.4635 142.941C99.6544 143.052 99.8686 143.108 100.106 143.108C100.306 143.108 100.49 143.066 100.66 142.981C100.829 142.897 100.972 142.769 101.086 142.596L101.423 142.835C101.292 143.061 101.112 143.234 100.883 143.354C100.653 143.469 100.397 143.527 100.113 143.527ZM103.674 143.527C103.326 143.527 103.021 143.451 102.758 143.301C102.495 143.145 102.289 142.935 102.14 142.669C101.992 142.398 101.918 142.09 101.918 141.745C101.918 141.399 101.988 141.093 102.128 140.827C102.272 140.561 102.467 140.353 102.713 140.202C102.963 140.047 103.243 139.969 103.553 139.969C103.867 139.969 104.145 140.045 104.387 140.195C104.633 140.342 104.826 140.55 104.966 140.82C105.106 141.086 105.176 141.394 105.176 141.745C105.176 141.767 105.174 141.791 105.169 141.818C105.169 141.84 105.169 141.864 105.169 141.891H102.261V141.538H104.928L104.749 141.678C104.749 141.425 104.696 141.202 104.59 141.007C104.489 140.807 104.349 140.652 104.17 140.541C103.992 140.43 103.786 140.375 103.553 140.375C103.324 140.375 103.118 140.43 102.936 140.541C102.753 140.652 102.611 140.807 102.51 141.007C102.408 141.206 102.357 141.434 102.357 141.691V141.765C102.357 142.031 102.412 142.265 102.522 142.469C102.637 142.669 102.794 142.826 102.993 142.941C103.197 143.052 103.428 143.108 103.687 143.108C103.89 143.108 104.079 143.07 104.253 142.995C104.431 142.919 104.584 142.804 104.711 142.649L104.966 142.955C104.817 143.141 104.631 143.283 104.406 143.38C104.185 143.478 103.941 143.527 103.674 143.527ZM107.801 139.969C108.072 139.969 108.31 140.025 108.513 140.135C108.721 140.242 108.883 140.406 108.997 140.628C109.116 140.849 109.175 141.128 109.175 141.465V143.493H108.723V141.512C108.723 141.144 108.634 140.867 108.456 140.681C108.282 140.49 108.036 140.395 107.718 140.395C107.48 140.395 107.273 140.446 107.094 140.548C106.92 140.645 106.785 140.789 106.687 140.98C106.594 141.166 106.547 141.392 106.547 141.658V143.493H106.095V138.56H106.547V140.96L106.458 140.78C106.564 140.528 106.734 140.331 106.967 140.189C107.2 140.042 107.478 139.969 107.801 139.969ZM111.757 143.527C111.435 143.527 111.144 143.451 110.886 143.301C110.631 143.145 110.43 142.935 110.281 142.669C110.133 142.398 110.058 142.09 110.058 141.745C110.058 141.394 110.133 141.086 110.281 140.82C110.43 140.554 110.631 140.346 110.886 140.195C111.14 140.045 111.431 139.969 111.757 139.969C112.088 139.969 112.381 140.045 112.636 140.195C112.894 140.346 113.096 140.554 113.24 140.82C113.388 141.086 113.463 141.394 113.463 141.745C113.463 142.09 113.388 142.398 113.24 142.669C113.096 142.935 112.894 143.145 112.636 143.301C112.377 143.451 112.084 143.527 111.757 143.527ZM111.757 143.108C111.999 143.108 112.213 143.052 112.4 142.941C112.587 142.826 112.733 142.667 112.839 142.463C112.949 142.254 113.005 142.015 113.005 141.745C113.005 141.47 112.949 141.23 112.839 141.026C112.733 140.823 112.587 140.665 112.4 140.554C112.213 140.439 112.001 140.381 111.764 140.381C111.526 140.381 111.314 140.439 111.127 140.554C110.941 140.665 110.792 140.823 110.682 141.026C110.572 141.23 110.517 141.47 110.517 141.745C110.517 142.015 110.572 142.254 110.682 142.463C110.792 142.667 110.941 142.826 111.127 142.941C111.314 143.052 111.524 143.108 111.757 143.108ZM114.385 143.493V138.56H114.837V143.493H114.385ZM117.424 143.527C117.106 143.527 116.819 143.451 116.565 143.301C116.315 143.15 116.117 142.941 115.973 142.676C115.829 142.405 115.757 142.095 115.757 141.745C115.757 141.39 115.829 141.08 115.973 140.814C116.117 140.548 116.315 140.342 116.565 140.195C116.819 140.045 117.106 139.969 117.424 139.969C117.717 139.969 117.978 140.038 118.207 140.175C118.44 140.313 118.625 140.514 118.76 140.78C118.9 141.042 118.97 141.363 118.97 141.745C118.97 142.121 118.902 142.443 118.767 142.709C118.631 142.975 118.446 143.179 118.213 143.321C117.984 143.458 117.721 143.527 117.424 143.527ZM117.456 143.108C117.693 143.108 117.905 143.052 118.092 142.941C118.283 142.826 118.432 142.667 118.538 142.463C118.648 142.254 118.703 142.015 118.703 141.745C118.703 141.47 118.648 141.23 118.538 141.026C118.432 140.823 118.283 140.665 118.092 140.554C117.905 140.439 117.693 140.381 117.456 140.381C117.222 140.381 117.013 140.439 116.826 140.554C116.639 140.665 116.491 140.823 116.38 141.026C116.27 141.23 116.215 141.47 116.215 141.745C116.215 142.015 116.27 142.254 116.38 142.463C116.491 142.667 116.639 142.826 116.826 142.941C117.013 143.052 117.222 143.108 117.456 143.108ZM118.716 143.493V142.443L118.76 141.738L118.697 141.033V138.56H119.148V143.493H118.716ZM121.826 143.527C121.478 143.527 121.172 143.451 120.909 143.301C120.646 143.145 120.441 142.935 120.292 142.669C120.144 142.398 120.069 142.09 120.069 141.745C120.069 141.399 120.139 141.093 120.279 140.827C120.424 140.561 120.619 140.353 120.865 140.202C121.115 140.047 121.395 139.969 121.705 139.969C122.019 139.969 122.296 140.045 122.538 140.195C122.784 140.342 122.977 140.55 123.117 140.82C123.257 141.086 123.327 141.394 123.327 141.745C123.327 141.767 123.325 141.791 123.321 141.818C123.321 141.84 123.321 141.864 123.321 141.891H120.413V141.538H123.079L122.901 141.678C122.901 141.425 122.848 141.202 122.742 141.007C122.64 140.807 122.5 140.652 122.322 140.541C122.144 140.43 121.938 140.375 121.705 140.375C121.476 140.375 121.27 140.43 121.088 140.541C120.905 140.652 120.763 140.807 120.661 141.007C120.559 141.206 120.509 141.434 120.509 141.691V141.765C120.509 142.031 120.564 142.265 120.674 142.469C120.789 142.669 120.945 142.826 121.145 142.941C121.348 143.052 121.58 143.108 121.838 143.108C122.042 143.108 122.231 143.07 122.405 142.995C122.583 142.919 122.736 142.804 122.863 142.649L123.117 142.955C122.969 143.141 122.782 143.283 122.557 143.38C122.337 143.478 122.093 143.527 121.826 143.527ZM124.247 143.493V140.002H124.68V140.953L124.635 140.787C124.728 140.521 124.886 140.319 125.106 140.182C125.327 140.04 125.6 139.969 125.927 139.969V140.428C125.91 140.428 125.893 140.428 125.876 140.428C125.859 140.424 125.842 140.421 125.825 140.421C125.473 140.421 125.197 140.534 124.998 140.761C124.798 140.982 124.699 141.299 124.699 141.711V143.493H124.247Z" fill="#999EA9"/>
</g>
<path d="M160.948 141.999C160.868 141.999 160.791 141.976 160.73 141.934L158.682 140.506C158.613 140.457 158.569 140.388 158.56 140.312C158.552 140.237 158.58 140.161 158.638 140.103C158.696 140.045 158.779 140.008 158.869 140.001C158.96 139.994 159.049 140.018 159.119 140.066L160.948 141.345L162.777 140.112C162.811 140.088 162.852 140.07 162.895 140.06C162.938 140.049 162.983 140.045 163.028 140.049C163.072 140.053 163.116 140.065 163.155 140.083C163.195 140.101 163.229 140.125 163.258 140.155C163.289 140.184 163.313 140.218 163.327 140.256C163.342 140.293 163.347 140.333 163.342 140.372C163.338 140.411 163.324 140.449 163.301 140.483C163.278 140.518 163.247 140.548 163.21 140.572L161.163 141.951C161.1 141.987 161.024 142.004 160.948 141.999Z" fill="black"/>
<rect x="82" y="125" width="21" height="4" fill="#999EA9"/>
<rect x="86" y="165.5" width="21" height="4" fill="#999EA9"/>
<rect x="96" y="174.5" width="35" height="4" fill="#999EA9"/>
<rect x="96" y="184.5" width="35" height="4" fill="#999EA9"/>
<rect x="82" y="87" width="21" height="4" fill="#999EA9"/>
<rect x="86" y="60.5" width="90" height="8" fill="#999EA9"/>
<rect x="188.5" y="85" width="22" height="4" fill="#999EA9"/>
<rect x="188.5" y="125" width="22" height="4" fill="#999EA9"/>
<circle cx="89" cy="176.5" r="2.5" stroke="#999EA9"/>
<circle cx="89" cy="186.5" r="2.5" stroke="#999EA9"/>
<line x1="86.5" y1="36.8584" x2="86.5" y2="265.858" stroke="#BD033B"/>
<rect x="70" y="36.5" width="430" height="14" fill="#3A4458"/>
</g>
</g>
<rect y="214" width="348" height="4" fill="#BD033B"/>
<path d="M0 218H348V286C348 290.418 344.418 294 340 294H8C3.58172 294 0 290.418 0 286V218Z" fill="#F8E6EB"/>
<path d="M0 218H348V273C348 277.418 344.418 281 340 281H8C3.58172 281 0 277.418 0 273V218Z" fill="#F8E6EB"/>
<path d="M16.596 240V230.2H17.45L24.212 238.712H23.764V230.2H24.786V240H23.932L17.184 231.488H17.632V240H16.596ZM30.7707 240.07C30.0613 240.07 29.422 239.911 28.8527 239.594C28.2927 239.267 27.8493 238.824 27.5227 238.264C27.196 237.695 27.0327 237.046 27.0327 236.318C27.0327 235.581 27.196 234.932 27.5227 234.372C27.8493 233.812 28.2927 233.373 28.8527 233.056C29.4127 232.739 30.052 232.58 30.7707 232.58C31.4987 232.58 32.1427 232.739 32.7027 233.056C33.272 233.373 33.7153 233.812 34.0327 234.372C34.3593 234.932 34.5227 235.581 34.5227 236.318C34.5227 237.046 34.3593 237.695 34.0327 238.264C33.7153 238.824 33.272 239.267 32.7027 239.594C32.1333 239.911 31.4893 240.07 30.7707 240.07ZM30.7707 239.188C31.3027 239.188 31.774 239.071 32.1847 238.838C32.5953 238.595 32.9173 238.259 33.1507 237.83C33.3933 237.391 33.5147 236.887 33.5147 236.318C33.5147 235.739 33.3933 235.235 33.1507 234.806C32.9173 234.377 32.5953 234.045 32.1847 233.812C31.774 233.569 31.3073 233.448 30.7847 233.448C30.262 233.448 29.7953 233.569 29.3847 233.812C28.974 234.045 28.6473 234.377 28.4047 234.806C28.162 235.235 28.0407 235.739 28.0407 236.318C28.0407 236.887 28.162 237.391 28.4047 237.83C28.6473 238.259 28.974 238.595 29.3847 238.838C29.7953 239.071 30.2573 239.188 30.7707 239.188ZM44.8221 240V238.376L44.7801 238.11V235.394C44.7801 234.769 44.6027 234.288 44.2481 233.952C43.9027 233.616 43.3847 233.448 42.6941 233.448C42.2181 233.448 41.7654 233.527 41.3361 233.686C40.9067 233.845 40.5427 234.055 40.2441 234.316L39.7961 233.574C40.1694 233.257 40.6174 233.014 41.1401 232.846C41.6627 232.669 42.2134 232.58 42.7921 232.58C43.7441 232.58 44.4767 232.818 44.9901 233.294C45.5127 233.761 45.7741 234.475 45.7741 235.436V240H44.8221ZM42.2881 240.07C41.7374 240.07 41.2567 239.981 40.8461 239.804C40.4447 239.617 40.1367 239.365 39.9221 239.048C39.7074 238.721 39.6001 238.348 39.6001 237.928C39.6001 237.545 39.6887 237.2 39.8661 236.892C40.0527 236.575 40.3514 236.323 40.7621 236.136C41.1821 235.94 41.7421 235.842 42.4421 235.842H44.9761V236.584H42.4701C41.7607 236.584 41.2661 236.71 40.9861 236.962C40.7154 237.214 40.5801 237.527 40.5801 237.9C40.5801 238.32 40.7434 238.656 41.0701 238.908C41.3967 239.16 41.8541 239.286 42.4421 239.286C43.0021 239.286 43.4827 239.16 43.8841 238.908C44.2947 238.647 44.5934 238.273 44.7801 237.788L45.0041 238.474C44.8174 238.959 44.4907 239.347 44.0241 239.636C43.5667 239.925 42.9881 240.07 42.2881 240.07ZM48.4739 240V229.612H49.4679V240H48.4739ZM52.2337 240V232.65H53.2277V240H52.2337ZM52.7377 231.026C52.5323 231.026 52.3597 230.956 52.2197 230.816C52.0797 230.676 52.0097 230.508 52.0097 230.312C52.0097 230.116 52.0797 229.953 52.2197 229.822C52.3597 229.682 52.5323 229.612 52.7377 229.612C52.943 229.612 53.1157 229.677 53.2557 229.808C53.3957 229.939 53.4657 230.102 53.4657 230.298C53.4657 230.503 53.3957 230.676 53.2557 230.816C53.125 230.956 52.9523 231.026 52.7377 231.026ZM59.7454 232.58C60.3428 232.58 60.8654 232.697 61.3134 232.93C61.7708 233.154 62.1254 233.499 62.3774 233.966C62.6388 234.433 62.7694 235.021 62.7694 235.73V240H61.7754V235.828C61.7754 235.053 61.5794 234.47 61.1874 234.078C60.8048 233.677 60.2634 233.476 59.5634 233.476C59.0408 233.476 58.5834 233.583 58.1914 233.798C57.8088 234.003 57.5101 234.307 57.2954 234.708C57.0901 235.1 56.9874 235.576 56.9874 236.136V240H55.9934V232.65H56.9454V234.666L56.7914 234.288C57.0248 233.756 57.3981 233.341 57.9114 233.042C58.4248 232.734 59.0361 232.58 59.7454 232.58ZM68.5764 240.07C67.811 240.07 67.139 239.911 66.5604 239.594C65.9817 239.267 65.529 238.824 65.2024 238.264C64.8757 237.695 64.7124 237.046 64.7124 236.318C64.7124 235.59 64.8664 234.946 65.1744 234.386C65.4917 233.826 65.921 233.387 66.4624 233.07C67.013 232.743 67.629 232.58 68.3104 232.58C69.001 232.58 69.6124 232.739 70.1444 233.056C70.6857 233.364 71.1104 233.803 71.4184 234.372C71.7264 234.932 71.8804 235.581 71.8804 236.318C71.8804 236.365 71.8757 236.416 71.8664 236.472C71.8664 236.519 71.8664 236.57 71.8664 236.626H65.4684V235.884H71.3344L70.9424 236.178C70.9424 235.646 70.8257 235.175 70.5924 234.764C70.3684 234.344 70.0604 234.017 69.6684 233.784C69.2764 233.551 68.8237 233.434 68.3104 233.434C67.8064 233.434 67.3537 233.551 66.9524 233.784C66.551 234.017 66.2384 234.344 66.0144 234.764C65.7904 235.184 65.6784 235.665 65.6784 236.206V236.36C65.6784 236.92 65.7997 237.415 66.0424 237.844C66.2944 238.264 66.6397 238.595 67.0784 238.838C67.5264 239.071 68.035 239.188 68.6044 239.188C69.0524 239.188 69.4677 239.109 69.8504 238.95C70.2424 238.791 70.5784 238.549 70.8584 238.222L71.4184 238.866C71.0917 239.258 70.681 239.557 70.1864 239.762C69.701 239.967 69.1644 240.07 68.5764 240.07ZM78.3045 240V238.376L78.2625 238.11V235.394C78.2625 234.769 78.0852 234.288 77.7305 233.952C77.3852 233.616 76.8672 233.448 76.1765 233.448C75.7005 233.448 75.2478 233.527 74.8185 233.686C74.3892 233.845 74.0252 234.055 73.7265 234.316L73.2785 233.574C73.6518 233.257 74.0998 233.014 74.6225 232.846C75.1452 232.669 75.6958 232.58 76.2745 232.58C77.2265 232.58 77.9592 232.818 78.4725 233.294C78.9952 233.761 79.2565 234.475 79.2565 235.436V240H78.3045ZM75.7705 240.07C75.2198 240.07 74.7392 239.981 74.3285 239.804C73.9272 239.617 73.6192 239.365 73.4045 239.048C73.1898 238.721 73.0825 238.348 73.0825 237.928C73.0825 237.545 73.1712 237.2 73.3485 236.892C73.5352 236.575 73.8338 236.323 74.2445 236.136C74.6645 235.94 75.2245 235.842 75.9245 235.842H78.4585V236.584H75.9525C75.2432 236.584 74.7485 236.71 74.4685 236.962C74.1978 237.214 74.0625 237.527 74.0625 237.9C74.0625 238.32 74.2258 238.656 74.5525 238.908C74.8792 239.16 75.3365 239.286 75.9245 239.286C76.4845 239.286 76.9652 239.16 77.3665 238.908C77.7772 238.647 78.0758 238.273 78.2625 237.788L78.4865 238.474C78.2998 238.959 77.9732 239.347 77.5065 239.636C77.0492 239.925 76.4705 240.07 75.7705 240.07ZM81.9563 240V232.65H82.9083V234.652L82.8103 234.302C83.0156 233.742 83.361 233.317 83.8463 233.028C84.3316 232.729 84.9336 232.58 85.6523 232.58V233.546C85.615 233.546 85.5776 233.546 85.5403 233.546C85.503 233.537 85.4656 233.532 85.4283 233.532C84.6536 233.532 84.047 233.77 83.6083 234.246C83.1696 234.713 82.9503 235.38 82.9503 236.248V240H81.9563ZM91.2395 240V229.612H92.2335V240H91.2395ZM97.9953 240.07C97.2859 240.07 96.6466 239.911 96.0773 239.594C95.5173 239.267 95.0739 238.824 94.7473 238.264C94.4206 237.695 94.2573 237.046 94.2573 236.318C94.2573 235.581 94.4206 234.932 94.7473 234.372C95.0739 233.812 95.5173 233.373 96.0773 233.056C96.6373 232.739 97.2766 232.58 97.9953 232.58C98.7233 232.58 99.3673 232.739 99.9273 233.056C100.497 233.373 100.94 233.812 101.257 234.372C101.584 234.932 101.747 235.581 101.747 236.318C101.747 237.046 101.584 237.695 101.257 238.264C100.94 238.824 100.497 239.267 99.9273 239.594C99.3579 239.911 98.7139 240.07 97.9953 240.07ZM97.9953 239.188C98.5273 239.188 98.9986 239.071 99.4093 238.838C99.8199 238.595 100.142 238.259 100.375 237.83C100.618 237.391 100.739 236.887 100.739 236.318C100.739 235.739 100.618 235.235 100.375 234.806C100.142 234.377 99.8199 234.045 99.4093 233.812C98.9986 233.569 98.5319 233.448 98.0093 233.448C97.4866 233.448 97.0199 233.569 96.6093 233.812C96.1986 234.045 95.8719 234.377 95.6293 234.806C95.3866 235.235 95.2653 235.739 95.2653 236.318C95.2653 236.887 95.3866 237.391 95.6293 237.83C95.8719 238.259 96.1986 238.595 96.6093 238.838C97.0199 239.071 97.4819 239.188 97.9953 239.188ZM105.751 240.07C105.144 240.07 104.57 239.986 104.029 239.818C103.487 239.641 103.063 239.421 102.755 239.16L103.203 238.376C103.501 238.6 103.884 238.796 104.351 238.964C104.817 239.123 105.307 239.202 105.821 239.202C106.521 239.202 107.025 239.095 107.333 238.88C107.641 238.656 107.795 238.362 107.795 237.998C107.795 237.727 107.706 237.517 107.529 237.368C107.361 237.209 107.137 237.093 106.857 237.018C106.577 236.934 106.264 236.864 105.919 236.808C105.573 236.752 105.228 236.687 104.883 236.612C104.547 236.537 104.239 236.43 103.959 236.29C103.679 236.141 103.45 235.94 103.273 235.688C103.105 235.436 103.021 235.1 103.021 234.68C103.021 234.279 103.133 233.919 103.357 233.602C103.581 233.285 103.907 233.037 104.337 232.86C104.775 232.673 105.307 232.58 105.933 232.58C106.409 232.58 106.885 232.645 107.361 232.776C107.837 232.897 108.229 233.061 108.537 233.266L108.103 234.064C107.776 233.84 107.426 233.681 107.053 233.588C106.679 233.485 106.306 233.434 105.933 233.434C105.27 233.434 104.78 233.551 104.463 233.784C104.155 234.008 104.001 234.297 104.001 234.652C104.001 234.932 104.085 235.151 104.253 235.31C104.43 235.469 104.659 235.595 104.939 235.688C105.228 235.772 105.541 235.842 105.877 235.898C106.222 235.954 106.563 236.024 106.899 236.108C107.244 236.183 107.557 236.29 107.837 236.43C108.126 236.561 108.355 236.752 108.523 237.004C108.7 237.247 108.789 237.569 108.789 237.97C108.789 238.399 108.667 238.773 108.425 239.09C108.191 239.398 107.846 239.641 107.389 239.818C106.941 239.986 106.395 240.07 105.751 240.07ZM117.329 240.07C116.601 240.07 115.947 239.911 115.369 239.594C114.799 239.267 114.351 238.824 114.025 238.264C113.698 237.695 113.535 237.046 113.535 236.318C113.535 235.581 113.698 234.932 114.025 234.372C114.351 233.812 114.799 233.373 115.369 233.056C115.947 232.739 116.601 232.58 117.329 232.58C117.954 232.58 118.519 232.701 119.023 232.944C119.527 233.187 119.923 233.551 120.213 234.036L119.471 234.54C119.219 234.167 118.906 233.891 118.533 233.714C118.159 233.537 117.753 233.448 117.315 233.448C116.792 233.448 116.321 233.569 115.901 233.812C115.481 234.045 115.149 234.377 114.907 234.806C114.664 235.235 114.543 235.739 114.543 236.318C114.543 236.897 114.664 237.401 114.907 237.83C115.149 238.259 115.481 238.595 115.901 238.838C116.321 239.071 116.792 239.188 117.315 239.188C117.753 239.188 118.159 239.099 118.533 238.922C118.906 238.745 119.219 238.474 119.471 238.11L120.213 238.614C119.923 239.09 119.527 239.454 119.023 239.706C118.519 239.949 117.954 240.07 117.329 240.07ZM125.038 240.07C124.329 240.07 123.69 239.911 123.12 239.594C122.56 239.267 122.117 238.824 121.79 238.264C121.464 237.695 121.3 237.046 121.3 236.318C121.3 235.581 121.464 234.932 121.79 234.372C122.117 233.812 122.56 233.373 123.12 233.056C123.68 232.739 124.32 232.58 125.038 232.58C125.766 232.58 126.41 232.739 126.97 233.056C127.54 233.373 127.983 233.812 128.3 234.372C128.627 234.932 128.79 235.581 128.79 236.318C128.79 237.046 128.627 237.695 128.3 238.264C127.983 238.824 127.54 239.267 126.97 239.594C126.401 239.911 125.757 240.07 125.038 240.07ZM125.038 239.188C125.57 239.188 126.042 239.071 126.452 238.838C126.863 238.595 127.185 238.259 127.418 237.83C127.661 237.391 127.782 236.887 127.782 236.318C127.782 235.739 127.661 235.235 127.418 234.806C127.185 234.377 126.863 234.045 126.452 233.812C126.042 233.569 125.575 233.448 125.052 233.448C124.53 233.448 124.063 233.569 123.652 233.812C123.242 234.045 122.915 234.377 122.672 234.806C122.43 235.235 122.308 235.739 122.308 236.318C122.308 236.887 122.43 237.391 122.672 237.83C122.915 238.259 123.242 238.595 123.652 238.838C124.063 239.071 124.525 239.188 125.038 239.188ZM140.004 232.58C140.601 232.58 141.119 232.697 141.558 232.93C142.006 233.154 142.351 233.499 142.594 233.966C142.846 234.433 142.972 235.021 142.972 235.73V240H141.978V235.828C141.978 235.053 141.791 234.47 141.418 234.078C141.054 233.677 140.536 233.476 139.864 233.476C139.36 233.476 138.921 233.583 138.548 233.798C138.184 234.003 137.899 234.307 137.694 234.708C137.498 235.1 137.4 235.576 137.4 236.136V240H136.406V235.828C136.406 235.053 136.219 234.47 135.846 234.078C135.472 233.677 134.95 233.476 134.278 233.476C133.783 233.476 133.349 233.583 132.976 233.798C132.602 234.003 132.313 234.307 132.108 234.708C131.912 235.1 131.814 235.576 131.814 236.136V240H130.82V232.65H131.772V234.638L131.618 234.288C131.842 233.756 132.201 233.341 132.696 233.042C133.2 232.734 133.792 232.58 134.474 232.58C135.192 232.58 135.804 232.762 136.308 233.126C136.812 233.481 137.138 234.017 137.288 234.736L136.896 234.582C137.11 233.985 137.488 233.504 138.03 233.14C138.58 232.767 139.238 232.58 140.004 232.58ZM149.461 240.07C148.827 240.07 148.253 239.925 147.739 239.636C147.226 239.337 146.815 238.913 146.507 238.362C146.209 237.802 146.059 237.121 146.059 236.318C146.059 235.515 146.209 234.839 146.507 234.288C146.806 233.728 147.212 233.303 147.725 233.014C148.239 232.725 148.817 232.58 149.461 232.58C150.161 232.58 150.787 232.739 151.337 233.056C151.897 233.364 152.336 233.803 152.653 234.372C152.971 234.932 153.129 235.581 153.129 236.318C153.129 237.065 152.971 237.718 152.653 238.278C152.336 238.838 151.897 239.277 151.337 239.594C150.787 239.911 150.161 240.07 149.461 240.07ZM145.667 242.716V232.65H146.619V234.862L146.521 236.332L146.661 237.816V242.716H145.667ZM149.391 239.188C149.914 239.188 150.381 239.071 150.791 238.838C151.202 238.595 151.529 238.259 151.771 237.83C152.014 237.391 152.135 236.887 152.135 236.318C152.135 235.749 152.014 235.249 151.771 234.82C151.529 234.391 151.202 234.055 150.791 233.812C150.381 233.569 149.914 233.448 149.391 233.448C148.869 233.448 148.397 233.569 147.977 233.812C147.567 234.055 147.24 234.391 146.997 234.82C146.764 235.249 146.647 235.749 146.647 236.318C146.647 236.887 146.764 237.391 146.997 237.83C147.24 238.259 147.567 238.595 147.977 238.838C148.397 239.071 148.869 239.188 149.391 239.188ZM158.152 240.07C157.442 240.07 156.803 239.911 156.234 239.594C155.674 239.267 155.23 238.824 154.904 238.264C154.577 237.695 154.414 237.046 154.414 236.318C154.414 235.581 154.577 234.932 154.904 234.372C155.23 233.812 155.674 233.373 156.234 233.056C156.794 232.739 157.433 232.58 158.152 232.58C158.88 232.58 159.524 232.739 160.084 233.056C160.653 233.373 161.096 233.812 161.414 234.372C161.74 234.932 161.904 235.581 161.904 236.318C161.904 237.046 161.74 237.695 161.414 238.264C161.096 238.824 160.653 239.267 160.084 239.594C159.514 239.911 158.87 240.07 158.152 240.07ZM158.152 239.188C158.684 239.188 159.155 239.071 159.566 238.838C159.976 238.595 160.298 238.259 160.532 237.83C160.774 237.391 160.896 236.887 160.896 236.318C160.896 235.739 160.774 235.235 160.532 234.806C160.298 234.377 159.976 234.045 159.566 233.812C159.155 233.569 158.688 233.448 158.166 233.448C157.643 233.448 157.176 233.569 156.766 233.812C156.355 234.045 156.028 234.377 155.786 234.806C155.543 235.235 155.422 235.739 155.422 236.318C155.422 236.887 155.543 237.391 155.786 237.83C156.028 238.259 156.355 238.595 156.766 238.838C157.176 239.071 157.638 239.188 158.152 239.188ZM167.685 232.58C168.282 232.58 168.805 232.697 169.253 232.93C169.71 233.154 170.065 233.499 170.317 233.966C170.578 234.433 170.709 235.021 170.709 235.73V240H169.715V235.828C169.715 235.053 169.519 234.47 169.127 234.078C168.744 233.677 168.203 233.476 167.503 233.476C166.98 233.476 166.523 233.583 166.131 233.798C165.748 234.003 165.45 234.307 165.235 234.708C165.03 235.1 164.927 235.576 164.927 236.136V240H163.933V232.65H164.885V234.666L164.731 234.288C164.964 233.756 165.338 233.341 165.851 233.042C166.364 232.734 166.976 232.58 167.685 232.58ZM176.516 240.07C175.75 240.07 175.078 239.911 174.5 239.594C173.921 239.267 173.468 238.824 173.142 238.264C172.815 237.695 172.652 237.046 172.652 236.318C172.652 235.59 172.806 234.946 173.114 234.386C173.431 233.826 173.86 233.387 174.402 233.07C174.952 232.743 175.568 232.58 176.25 232.58C176.94 232.58 177.552 232.739 178.084 233.056C178.625 233.364 179.05 233.803 179.358 234.372C179.666 234.932 179.82 235.581 179.82 236.318C179.82 236.365 179.815 236.416 179.806 236.472C179.806 236.519 179.806 236.57 179.806 236.626H173.408V235.884H179.274L178.882 236.178C178.882 235.646 178.765 235.175 178.532 234.764C178.308 234.344 178 234.017 177.608 233.784C177.216 233.551 176.763 233.434 176.25 233.434C175.746 233.434 175.293 233.551 174.892 233.784C174.49 234.017 174.178 234.344 173.954 234.764C173.73 235.184 173.618 235.665 173.618 236.206V236.36C173.618 236.92 173.739 237.415 173.982 237.844C174.234 238.264 174.579 238.595 175.018 238.838C175.466 239.071 175.974 239.188 176.544 239.188C176.992 239.188 177.407 239.109 177.79 238.95C178.182 238.791 178.518 238.549 178.798 238.222L179.358 238.866C179.031 239.258 178.62 239.557 178.126 239.762C177.64 239.967 177.104 240.07 176.516 240.07ZM185.595 232.58C186.192 232.58 186.715 232.697 187.163 232.93C187.62 233.154 187.975 233.499 188.227 233.966C188.488 234.433 188.619 235.021 188.619 235.73V240H187.625V235.828C187.625 235.053 187.429 234.47 187.037 234.078C186.654 233.677 186.113 233.476 185.413 233.476C184.89 233.476 184.433 233.583 184.041 233.798C183.658 234.003 183.36 234.307 183.145 234.708C182.94 235.1 182.837 235.576 182.837 236.136V240H181.843V232.65H182.795V234.666L182.641 234.288C182.874 233.756 183.248 233.341 183.761 233.042C184.274 232.734 184.886 232.58 185.595 232.58ZM193.628 240.07C192.937 240.07 192.405 239.883 192.032 239.51C191.659 239.137 191.472 238.609 191.472 237.928V231.026H192.466V237.872C192.466 238.301 192.573 238.633 192.788 238.866C193.012 239.099 193.329 239.216 193.74 239.216C194.179 239.216 194.543 239.09 194.832 238.838L195.182 239.552C194.986 239.729 194.748 239.86 194.468 239.944C194.197 240.028 193.917 240.07 193.628 240.07ZM190.156 233.476V232.65H194.706V233.476H190.156ZM199.854 240.07C199.088 240.07 198.416 239.911 197.838 239.594C197.259 239.267 196.806 238.824 196.48 238.264C196.153 237.695 195.99 237.046 195.99 236.318C195.99 235.59 196.144 234.946 196.452 234.386C196.769 233.826 197.198 233.387 197.74 233.07C198.29 232.743 198.906 232.58 199.588 232.58C200.278 232.58 200.89 232.739 201.422 233.056C201.963 233.364 202.388 233.803 202.696 234.372C203.004 234.932 203.158 235.581 203.158 236.318C203.158 236.365 203.153 236.416 203.144 236.472C203.144 236.519 203.144 236.57 203.144 236.626H196.746V235.884H202.612L202.22 236.178C202.22 235.646 202.103 235.175 201.87 234.764C201.646 234.344 201.338 234.017 200.946 233.784C200.554 233.551 200.101 233.434 199.588 233.434C199.084 233.434 198.631 233.551 198.23 233.784C197.828 234.017 197.516 234.344 197.292 234.764C197.068 235.184 196.956 235.665 196.956 236.206V236.36C196.956 236.92 197.077 237.415 197.32 237.844C197.572 238.264 197.917 238.595 198.356 238.838C198.804 239.071 199.312 239.188 199.882 239.188C200.33 239.188 200.745 239.109 201.128 238.95C201.52 238.791 201.856 238.549 202.136 238.222L202.696 238.866C202.369 239.258 201.958 239.557 201.464 239.762C200.978 239.967 200.442 240.07 199.854 240.07ZM207.155 240.07C206.548 240.07 205.974 239.986 205.433 239.818C204.892 239.641 204.467 239.421 204.159 239.16L204.607 238.376C204.906 238.6 205.288 238.796 205.755 238.964C206.222 239.123 206.712 239.202 207.225 239.202C207.925 239.202 208.429 239.095 208.737 238.88C209.045 238.656 209.199 238.362 209.199 237.998C209.199 237.727 209.11 237.517 208.933 237.368C208.765 237.209 208.541 237.093 208.261 237.018C207.981 236.934 207.668 236.864 207.323 236.808C206.978 236.752 206.632 236.687 206.287 236.612C205.951 236.537 205.643 236.43 205.363 236.29C205.083 236.141 204.854 235.94 204.677 235.688C204.509 235.436 204.425 235.1 204.425 234.68C204.425 234.279 204.537 233.919 204.761 233.602C204.985 233.285 205.312 233.037 205.741 232.86C206.18 232.673 206.712 232.58 207.337 232.58C207.813 232.58 208.289 232.645 208.765 232.776C209.241 232.897 209.633 233.061 209.941 233.266L209.507 234.064C209.18 233.84 208.83 233.681 208.457 233.588C208.084 233.485 207.71 233.434 207.337 233.434C206.674 233.434 206.184 233.551 205.867 233.784C205.559 234.008 205.405 234.297 205.405 234.652C205.405 234.932 205.489 235.151 205.657 235.31C205.834 235.469 206.063 235.595 206.343 235.688C206.632 235.772 206.945 235.842 207.281 235.898C207.626 235.954 207.967 236.024 208.303 236.108C208.648 236.183 208.961 236.29 209.241 236.43C209.53 236.561 209.759 236.752 209.927 237.004C210.104 237.247 210.193 237.569 210.193 237.97C210.193 238.399 210.072 238.773 209.829 239.09C209.596 239.398 209.25 239.641 208.793 239.818C208.345 239.986 207.799 240.07 207.155 240.07ZM215.849 240V231.726C215.849 231.073 216.04 230.545 216.423 230.144C216.806 229.743 217.356 229.542 218.075 229.542C218.355 229.542 218.626 229.579 218.887 229.654C219.148 229.729 219.368 229.845 219.545 230.004L219.209 230.746C219.069 230.625 218.906 230.536 218.719 230.48C218.532 230.415 218.332 230.382 218.117 230.382C217.697 230.382 217.375 230.499 217.151 230.732C216.927 230.965 216.815 231.311 216.815 231.768V232.888L216.843 233.35V240H215.849ZM214.533 233.476V232.65H219.083V233.476H214.533ZM223.463 240.07C222.838 240.07 222.292 239.953 221.825 239.72C221.358 239.487 220.994 239.137 220.733 238.67C220.481 238.203 220.355 237.62 220.355 236.92V232.65H221.349V236.808C221.349 237.592 221.54 238.185 221.923 238.586C222.315 238.978 222.861 239.174 223.561 239.174C224.074 239.174 224.518 239.071 224.891 238.866C225.274 238.651 225.563 238.343 225.759 237.942C225.964 237.541 226.067 237.06 226.067 236.5V232.65H227.061V240H226.109V237.984L226.263 238.348C226.03 238.889 225.666 239.314 225.171 239.622C224.686 239.921 224.116 240.07 223.463 240.07ZM232.953 240.07C232.188 240.07 231.516 239.911 230.937 239.594C230.359 239.267 229.906 238.824 229.579 238.264C229.253 237.695 229.089 237.046 229.089 236.318C229.089 235.59 229.243 234.946 229.551 234.386C229.869 233.826 230.298 233.387 230.839 233.07C231.39 232.743 232.006 232.58 232.687 232.58C233.378 232.58 233.989 232.739 234.521 233.056C235.063 233.364 235.487 233.803 235.795 234.372C236.103 234.932 236.257 235.581 236.257 236.318C236.257 236.365 236.253 236.416 236.243 236.472C236.243 236.519 236.243 236.57 236.243 236.626H229.845V235.884H235.711L235.319 236.178C235.319 235.646 235.203 235.175 234.969 234.764C234.745 234.344 234.437 234.017 234.045 233.784C233.653 233.551 233.201 233.434 232.687 233.434C232.183 233.434 231.731 233.551 231.329 233.784C230.928 234.017 230.615 234.344 230.391 234.764C230.167 235.184 230.055 235.665 230.055 236.206V236.36C230.055 236.92 230.177 237.415 230.419 237.844C230.671 238.264 231.017 238.595 231.455 238.838C231.903 239.071 232.412 239.188 232.981 239.188C233.429 239.188 233.845 239.109 234.227 238.95C234.619 238.791 234.955 238.549 235.235 238.222L235.795 238.866C235.469 239.258 235.058 239.557 234.563 239.762C234.078 239.967 233.541 240.07 232.953 240.07ZM238.281 240V232.65H239.233V234.652L239.135 234.302C239.34 233.742 239.685 233.317 240.171 233.028C240.656 232.729 241.258 232.58 241.977 232.58V233.546C241.939 233.546 241.902 233.546 241.865 233.546C241.827 233.537 241.79 233.532 241.753 233.532C240.978 233.532 240.371 233.77 239.933 234.246C239.494 234.713 239.275 235.38 239.275 236.248V240H238.281ZM247.849 240V238.376L247.807 238.11V235.394C247.807 234.769 247.63 234.288 247.275 233.952C246.93 233.616 246.412 233.448 245.721 233.448C245.245 233.448 244.793 233.527 244.363 233.686C243.934 233.845 243.57 234.055 243.271 234.316L242.823 233.574C243.197 233.257 243.645 233.014 244.167 232.846C244.69 232.669 245.241 232.58 245.819 232.58C246.771 232.58 247.504 232.818 248.017 233.294C248.54 233.761 248.801 234.475 248.801 235.436V240H247.849ZM245.315 240.07C244.765 240.07 244.284 239.981 243.873 239.804C243.472 239.617 243.164 239.365 242.949 239.048C242.735 238.721 242.627 238.348 242.627 237.928C242.627 237.545 242.716 237.2 242.893 236.892C243.08 236.575 243.379 236.323 243.789 236.136C244.209 235.94 244.769 235.842 245.469 235.842H248.003V236.584H245.497C244.788 236.584 244.293 236.71 244.013 236.962C243.743 237.214 243.607 237.527 243.607 237.9C243.607 238.32 243.771 238.656 244.097 238.908C244.424 239.16 244.881 239.286 245.469 239.286C246.029 239.286 246.51 239.16 246.911 238.908C247.322 238.647 247.621 238.273 247.807 237.788L248.031 238.474C247.845 238.959 247.518 239.347 247.051 239.636C246.594 239.925 246.015 240.07 245.315 240.07ZM258.091 240.07C257.391 240.07 256.761 239.911 256.201 239.594C255.651 239.277 255.217 238.838 254.899 238.278C254.582 237.709 254.423 237.055 254.423 236.318C254.423 235.571 254.582 234.918 254.899 234.358C255.217 233.798 255.651 233.364 256.201 233.056C256.761 232.739 257.391 232.58 258.091 232.58C258.735 232.58 259.309 232.725 259.813 233.014C260.327 233.303 260.733 233.728 261.031 234.288C261.339 234.839 261.493 235.515 261.493 236.318C261.493 237.111 261.344 237.788 261.045 238.348C260.747 238.908 260.341 239.337 259.827 239.636C259.323 239.925 258.745 240.07 258.091 240.07ZM258.161 239.188C258.684 239.188 259.151 239.071 259.561 238.838C259.981 238.595 260.308 238.259 260.541 237.83C260.784 237.391 260.905 236.887 260.905 236.318C260.905 235.739 260.784 235.235 260.541 234.806C260.308 234.377 259.981 234.045 259.561 233.812C259.151 233.569 258.684 233.448 258.161 233.448C257.648 233.448 257.186 233.569 256.775 233.812C256.365 234.045 256.038 234.377 255.795 234.806C255.553 235.235 255.431 235.739 255.431 236.318C255.431 236.887 255.553 237.391 255.795 237.83C256.038 238.259 256.365 238.595 256.775 238.838C257.186 239.071 257.648 239.188 258.161 239.188ZM260.933 240V237.788L261.031 236.304L260.891 234.82V229.612H261.885V240H260.933ZM267.776 240.07C267.01 240.07 266.338 239.911 265.76 239.594C265.181 239.267 264.728 238.824 264.402 238.264C264.075 237.695 263.912 237.046 263.912 236.318C263.912 235.59 264.066 234.946 264.374 234.386C264.691 233.826 265.12 233.387 265.662 233.07C266.212 232.743 266.828 232.58 267.51 232.58C268.2 232.58 268.812 232.739 269.344 233.056C269.885 233.364 270.31 233.803 270.618 234.372C270.926 234.932 271.08 235.581 271.08 236.318C271.08 236.365 271.075 236.416 271.066 236.472C271.066 236.519 271.066 236.57 271.066 236.626H264.668V235.884H270.534L270.142 236.178C270.142 235.646 270.025 235.175 269.792 234.764C269.568 234.344 269.26 234.017 268.868 233.784C268.476 233.551 268.023 233.434 267.51 233.434C267.006 233.434 266.553 233.551 266.152 233.784C265.75 234.017 265.438 234.344 265.214 234.764C264.99 235.184 264.878 235.665 264.878 236.206V236.36C264.878 236.92 264.999 237.415 265.242 237.844C265.494 238.264 265.839 238.595 266.278 238.838C266.726 239.071 267.234 239.188 267.804 239.188C268.252 239.188 268.667 239.109 269.05 238.95C269.442 238.791 269.778 238.549 270.058 238.222L270.618 238.866C270.291 239.258 269.88 239.557 269.386 239.762C268.9 239.967 268.364 240.07 267.776 240.07ZM273.103 240V229.612H274.097V240H273.103ZM283.663 242.786C282.991 242.786 282.347 242.688 281.731 242.492C281.115 242.296 280.615 242.016 280.233 241.652L280.737 240.896C281.082 241.204 281.507 241.447 282.011 241.624C282.524 241.811 283.065 241.904 283.635 241.904C284.568 241.904 285.254 241.685 285.693 241.246C286.131 240.817 286.351 240.145 286.351 239.23V237.396L286.491 236.136L286.393 234.876V232.65H287.345V239.104C287.345 240.373 287.032 241.302 286.407 241.89C285.791 242.487 284.876 242.786 283.663 242.786ZM283.481 239.72C282.781 239.72 282.151 239.571 281.591 239.272C281.031 238.964 280.587 238.539 280.261 237.998C279.943 237.457 279.785 236.836 279.785 236.136C279.785 235.436 279.943 234.82 280.261 234.288C280.587 233.747 281.031 233.327 281.591 233.028C282.151 232.729 282.781 232.58 283.481 232.58C284.134 232.58 284.722 232.715 285.245 232.986C285.767 233.257 286.183 233.658 286.491 234.19C286.799 234.722 286.953 235.371 286.953 236.136C286.953 236.901 286.799 237.55 286.491 238.082C286.183 238.614 285.767 239.02 285.245 239.3C284.722 239.58 284.134 239.72 283.481 239.72ZM283.579 238.838C284.12 238.838 284.601 238.726 285.021 238.502C285.441 238.269 285.772 237.951 286.015 237.55C286.257 237.139 286.379 236.668 286.379 236.136C286.379 235.604 286.257 235.137 286.015 234.736C285.772 234.335 285.441 234.022 285.021 233.798C284.601 233.565 284.12 233.448 283.579 233.448C283.047 233.448 282.566 233.565 282.137 233.798C281.717 234.022 281.385 234.335 281.143 234.736C280.909 235.137 280.793 235.604 280.793 236.136C280.793 236.668 280.909 237.139 281.143 237.55C281.385 237.951 281.717 238.269 282.137 238.502C282.566 238.726 283.047 238.838 283.579 238.838ZM290.111 240V232.65H291.063V234.652L290.965 234.302C291.17 233.742 291.515 233.317 292.001 233.028C292.486 232.729 293.088 232.58 293.807 232.58V233.546C293.769 233.546 293.732 233.546 293.695 233.546C293.657 233.537 293.62 233.532 293.583 233.532C292.808 233.532 292.201 233.77 291.763 234.246C291.324 234.713 291.105 235.38 291.105 236.248V240H290.111ZM295.62 240V232.65H296.614V240H295.62ZM296.124 231.026C295.919 231.026 295.746 230.956 295.606 230.816C295.466 230.676 295.396 230.508 295.396 230.312C295.396 230.116 295.466 229.953 295.606 229.822C295.746 229.682 295.919 229.612 296.124 229.612C296.33 229.612 296.502 229.677 296.642 229.808C296.782 229.939 296.852 230.102 296.852 230.298C296.852 230.503 296.782 230.676 296.642 230.816C296.512 230.956 296.339 231.026 296.124 231.026ZM302.306 240.07C301.606 240.07 300.976 239.911 300.416 239.594C299.865 239.277 299.431 238.838 299.114 238.278C298.797 237.709 298.638 237.055 298.638 236.318C298.638 235.571 298.797 234.918 299.114 234.358C299.431 233.798 299.865 233.364 300.416 233.056C300.976 232.739 301.606 232.58 302.306 232.58C302.95 232.58 303.524 232.725 304.028 233.014C304.541 233.303 304.947 233.728 305.246 234.288C305.554 234.839 305.708 235.515 305.708 236.318C305.708 237.111 305.559 237.788 305.26 238.348C304.961 238.908 304.555 239.337 304.042 239.636C303.538 239.925 302.959 240.07 302.306 240.07ZM302.376 239.188C302.899 239.188 303.365 239.071 303.776 238.838C304.196 238.595 304.523 238.259 304.756 237.83C304.999 237.391 305.12 236.887 305.12 236.318C305.12 235.739 304.999 235.235 304.756 234.806C304.523 234.377 304.196 234.045 303.776 233.812C303.365 233.569 302.899 233.448 302.376 233.448C301.863 233.448 301.401 233.569 300.99 233.812C300.579 234.045 300.253 234.377 300.01 234.806C299.767 235.235 299.646 235.739 299.646 236.318C299.646 236.887 299.767 237.391 300.01 237.83C300.253 238.259 300.579 238.595 300.99 238.838C301.401 239.071 301.863 239.188 302.376 239.188ZM305.148 240V237.788L305.246 236.304L305.106 234.82V229.612H306.1V240H305.148ZM18.276 260L15.014 252.65H16.05L19.046 259.468H18.556L21.594 252.65H22.574L19.298 260H18.276ZM26.8908 260.07C26.1255 260.07 25.4535 259.911 24.8748 259.594C24.2961 259.267 23.8435 258.824 23.5168 258.264C23.1901 257.695 23.0268 257.046 23.0268 256.318C23.0268 255.59 23.1808 254.946 23.4888 254.386C23.8061 253.826 24.2355 253.387 24.7768 253.07C25.3275 252.743 25.9435 252.58 26.6248 252.58C27.3155 252.58 27.9268 252.739 28.4588 253.056C29.0001 253.364 29.4248 253.803 29.7328 254.372C30.0408 254.932 30.1948 255.581 30.1948 256.318C30.1948 256.365 30.1901 256.416 30.1808 256.472C30.1808 256.519 30.1808 256.57 30.1808 256.626H23.7828V255.884H29.6488L29.2568 256.178C29.2568 255.646 29.1401 255.175 28.9068 254.764C28.6828 254.344 28.3748 254.017 27.9828 253.784C27.5908 253.551 27.1381 253.434 26.6248 253.434C26.1208 253.434 25.6681 253.551 25.2668 253.784C24.8655 254.017 24.5528 254.344 24.3288 254.764C24.1048 255.184 23.9928 255.665 23.9928 256.206V256.36C23.9928 256.92 24.1141 257.415 24.3568 257.844C24.6088 258.264 24.9541 258.595 25.3928 258.838C25.8408 259.071 26.3495 259.188 26.9188 259.188C27.3668 259.188 27.7821 259.109 28.1648 258.95C28.5568 258.791 28.8928 258.549 29.1728 258.222L29.7328 258.866C29.4061 259.258 28.9955 259.557 28.5008 259.762C28.0155 259.967 27.4788 260.07 26.8908 260.07ZM32.218 260V252.65H33.17V254.652L33.072 254.302C33.2774 253.742 33.6227 253.317 34.108 253.028C34.5934 252.729 35.1954 252.58 35.914 252.58V253.546C35.8767 253.546 35.8394 253.546 35.802 253.546C35.7647 253.537 35.7274 253.532 35.69 253.532C34.9154 253.532 34.3087 253.77 33.87 254.246C33.4314 254.713 33.212 255.38 33.212 256.248V260H32.218ZM40.3663 260.07C39.6756 260.07 39.1436 259.883 38.7703 259.51C38.3969 259.137 38.2103 258.609 38.2103 257.928V251.026H39.2043V257.872C39.2043 258.301 39.3116 258.633 39.5263 258.866C39.7503 259.099 40.0676 259.216 40.4783 259.216C40.9169 259.216 41.2809 259.09 41.5703 258.838L41.9203 259.552C41.7243 259.729 41.4863 259.86 41.2063 259.944C40.9356 260.028 40.6556 260.07 40.3663 260.07ZM36.8943 253.476V252.65H41.4443V253.476H36.8943ZM43.7298 260V252.65H44.7238V260H43.7298ZM44.2338 251.026C44.0284 251.026 43.8558 250.956 43.7158 250.816C43.5758 250.676 43.5058 250.508 43.5058 250.312C43.5058 250.116 43.5758 249.953 43.7158 249.822C43.8558 249.682 44.0284 249.612 44.2338 249.612C44.4391 249.612 44.6118 249.677 44.7518 249.808C44.8918 249.939 44.9618 250.102 44.9618 250.298C44.9618 250.503 44.8918 250.676 44.7518 250.816C44.6211 250.956 44.4484 251.026 44.2338 251.026ZM50.5415 260.07C49.8135 260.07 49.1602 259.911 48.5815 259.594C48.0122 259.267 47.5642 258.824 47.2375 258.264C46.9108 257.695 46.7475 257.046 46.7475 256.318C46.7475 255.581 46.9108 254.932 47.2375 254.372C47.5642 253.812 48.0122 253.373 48.5815 253.056C49.1602 252.739 49.8135 252.58 50.5415 252.58C51.1668 252.58 51.7315 252.701 52.2355 252.944C52.7395 253.187 53.1362 253.551 53.4255 254.036L52.6835 254.54C52.4315 254.167 52.1188 253.891 51.7455 253.714C51.3722 253.537 50.9662 253.448 50.5275 253.448C50.0048 253.448 49.5335 253.569 49.1135 253.812C48.6935 254.045 48.3622 254.377 48.1195 254.806C47.8768 255.235 47.7555 255.739 47.7555 256.318C47.7555 256.897 47.8768 257.401 48.1195 257.83C48.3622 258.259 48.6935 258.595 49.1135 258.838C49.5335 259.071 50.0048 259.188 50.5275 259.188C50.9662 259.188 51.3722 259.099 51.7455 258.922C52.1188 258.745 52.4315 258.474 52.6835 258.11L53.4255 258.614C53.1362 259.09 52.7395 259.454 52.2355 259.706C51.7315 259.949 51.1668 260.07 50.5415 260.07ZM59.9842 260V258.376L59.9422 258.11V255.394C59.9422 254.769 59.7649 254.288 59.4102 253.952C59.0649 253.616 58.5469 253.448 57.8562 253.448C57.3802 253.448 56.9275 253.527 56.4982 253.686C56.0689 253.845 55.7049 254.055 55.4062 254.316L54.9582 253.574C55.3315 253.257 55.7795 253.014 56.3022 252.846C56.8249 252.669 57.3755 252.58 57.9542 252.58C58.9062 252.58 59.6389 252.818 60.1522 253.294C60.6749 253.761 60.9362 254.475 60.9362 255.436V260H59.9842ZM57.4502 260.07C56.8995 260.07 56.4189 259.981 56.0082 259.804C55.6069 259.617 55.2989 259.365 55.0842 259.048C54.8695 258.721 54.7622 258.348 54.7622 257.928C54.7622 257.545 54.8509 257.2 55.0282 256.892C55.2149 256.575 55.5135 256.323 55.9242 256.136C56.3442 255.94 56.9042 255.842 57.6042 255.842H60.1382V256.584H57.6322C56.9229 256.584 56.4282 256.71 56.1482 256.962C55.8775 257.214 55.7422 257.527 55.7422 257.9C55.7422 258.32 55.9055 258.656 56.2322 258.908C56.5589 259.16 57.0162 259.286 57.6042 259.286C58.1642 259.286 58.6449 259.16 59.0462 258.908C59.4569 258.647 59.7555 258.273 59.9422 257.788L60.1662 258.474C59.9795 258.959 59.6529 259.347 59.1862 259.636C58.7289 259.925 58.1502 260.07 57.4502 260.07ZM63.636 260V249.612H64.63V260H63.636ZM67.4938 260.07C67.2884 260.07 67.1111 259.995 66.9618 259.846C66.8218 259.697 66.7518 259.515 66.7518 259.3C66.7518 259.076 66.8218 258.894 66.9618 258.754C67.1111 258.614 67.2884 258.544 67.4938 258.544C67.6991 258.544 67.8718 258.614 68.0118 258.754C68.1611 258.894 68.2358 259.076 68.2358 259.3C68.2358 259.515 68.1611 259.697 68.0118 259.846C67.8718 259.995 67.6991 260.07 67.4938 260.07Z" fill="#525A6C"/>
<circle cx="314" cy="21" r="21" fill="white"/>
<path d="M299.192 21.0001C299.192 12.8211 305.821 6.19238 314 6.19238C322.179 6.19238 328.808 12.8211 328.808 21.0001C328.808 29.179 322.179 35.8078 314 35.8078C305.821 35.8078 299.192 29.179 299.192 21.0001ZM309.315 18.2294L312.039 20.948L309.315 23.7187C308.777 24.2624 308.777 25.1416 309.315 25.6333C309.859 26.2233 310.738 26.2233 311.229 25.6333L313.948 22.9609L316.719 25.6333C317.262 26.2233 318.142 26.2233 318.633 25.6333C319.223 25.1416 319.223 24.2624 318.633 23.7187L315.961 20.948L318.633 18.2294C319.223 17.7378 319.223 16.8585 318.633 16.3148C318.142 15.7769 317.262 15.7769 316.719 16.3148L313.948 19.0392L311.229 16.3148C310.738 15.7769 309.859 15.7769 309.315 16.3148C308.777 16.8585 308.777 17.7378 309.315 18.2294Z" fill="#BD033B"/>
<defs>
<clipPath id="clip0_1670_1651">
<rect width="208" height="175" fill="white" transform="translate(70 29.5)"/>
</clipPath>
<clipPath id="clip1_1670_1651">
<rect width="430" height="229" fill="white" transform="translate(70 36.8584)"/>
</clipPath>
</defs>
</svg>
