<svg width="348" height="294" viewBox="0 0 348 294" fill="none" xmlns="http://www.w3.org/2000/svg">
<path d="M0 28C0 23.5817 3.58172 20 8 20H340C344.418 20 348 23.5817 348 28V214H0V28Z" fill="#EBECF0"/>
<g clip-path="url(#clip0_1670_1627)">
<path d="M70 34.0059C70 31.7967 71.7909 30.0059 74 30.0059H279V37.4999H70V34.0059Z" fill="#6A7180"/>
<ellipse cx="75.5641" cy="33.4792" rx="1.77044" ry="1.77018" fill="white"/>
<ellipse cx="81.1281" cy="33.4792" rx="1.77044" ry="1.77018" fill="white"/>
<ellipse cx="86.6926" cy="33.4792" rx="1.77044" ry="1.77018" fill="white"/>
<g clip-path="url(#clip1_1670_1627)">
<rect width="430" height="229" transform="translate(70 36.8584)" fill="#F9F9F9"/>
<rect x="71" y="50" width="209" height="154" fill="#F9F9F9"/>
<path d="M173.113 109.5H89.887C88.2926 109.5 87 108.151 87 106.487V96.513C87 94.849 88.2926 93.5 89.887 93.5H173.113C174.707 93.5 176 94.849 176 96.513V106.487C176 108.151 174.707 109.5 173.113 109.5Z" fill="#F9F9F9" stroke="#B1B5BD" stroke-width="0.5"/>
<mask id="mask0_1670_1627" style="mask-type:luminance" maskUnits="userSpaceOnUse" x="93" y="96" width="76" height="11">
<path d="M168.345 106.071H93.0654V96.9284H168.345V106.071Z" fill="white"/>
</mask>
<g mask="url(#mask0_1670_1627)">
<path d="M168.345 106.071H93.0654V96.9284H168.345V106.071Z" fill="#999EA9"/>
<path d="M93.9414 103.993V99.3388H95.9514C96.4066 99.3388 96.7978 99.4031 97.1252 99.5317C97.4525 99.6558 97.7031 99.8375 97.877 100.077C98.056 100.312 98.1455 100.598 98.1455 100.935C98.1455 101.263 98.056 101.546 97.877 101.786C97.7031 102.021 97.4525 102.203 97.1252 102.331C96.7978 102.46 96.4066 102.524 95.9514 102.524H94.2559L94.5091 102.291V103.993H93.9414ZM94.5091 102.331L94.2559 102.092H95.9361C96.4731 102.092 96.8797 101.992 97.1559 101.792C97.4372 101.589 97.5778 101.303 97.5778 100.935C97.5778 100.562 97.4372 100.274 97.1559 100.07C96.8797 99.8663 96.4731 99.7644 95.9361 99.7644H94.2559L94.5091 99.5317V102.331ZM99.3329 103.993V99.0596H99.8776V103.993H99.3329ZM103.917 103.993V103.222L103.894 103.096V101.806C103.894 101.509 103.797 101.28 103.603 101.121C103.413 100.961 103.13 100.881 102.751 100.881C102.49 100.881 102.242 100.919 102.007 100.995C101.772 101.07 101.572 101.17 101.409 101.294L101.163 100.941C101.368 100.791 101.613 100.675 101.9 100.596C102.186 100.511 102.488 100.469 102.805 100.469C103.327 100.469 103.728 100.582 104.009 100.808C104.296 101.03 104.439 101.369 104.439 101.826V103.993H103.917ZM102.529 104.027C102.227 104.027 101.963 103.985 101.738 103.9C101.519 103.812 101.35 103.692 101.232 103.541C101.114 103.386 101.056 103.209 101.056 103.009C101.056 102.828 101.104 102.664 101.201 102.517C101.304 102.367 101.467 102.247 101.692 102.158C101.923 102.065 102.229 102.019 102.613 102.019H104.002V102.371H102.628C102.24 102.371 101.969 102.431 101.815 102.55C101.667 102.67 101.593 102.819 101.593 102.996C101.593 103.195 101.682 103.355 101.861 103.475C102.04 103.594 102.291 103.654 102.613 103.654C102.92 103.654 103.183 103.594 103.403 103.475C103.628 103.351 103.792 103.173 103.894 102.943L104.017 103.269C103.915 103.499 103.736 103.683 103.48 103.821C103.229 103.958 102.912 104.027 102.529 104.027ZM107.591 104.027C107.192 104.027 106.834 103.951 106.517 103.801C106.205 103.645 105.959 103.435 105.78 103.169C105.601 102.898 105.512 102.59 105.512 102.245C105.512 101.894 105.601 101.586 105.78 101.32C105.959 101.054 106.205 100.846 106.517 100.695C106.834 100.545 107.192 100.469 107.591 100.469C107.933 100.469 108.243 100.527 108.519 100.642C108.795 100.757 109.013 100.93 109.171 101.161L108.765 101.4C108.627 101.223 108.455 101.092 108.251 101.008C108.046 100.924 107.824 100.881 107.583 100.881C107.297 100.881 107.038 100.939 106.808 101.054C106.578 101.165 106.397 101.323 106.264 101.526C106.131 101.73 106.064 101.97 106.064 102.245C106.064 102.519 106.131 102.759 106.264 102.963C106.397 103.167 106.578 103.326 106.808 103.441C107.038 103.552 107.297 103.608 107.583 103.608C107.824 103.608 108.046 103.566 108.251 103.481C108.455 103.397 108.627 103.269 108.765 103.096L109.171 103.335C109.013 103.561 108.795 103.734 108.519 103.854C108.243 103.969 107.933 104.027 107.591 104.027ZM111.885 104.027C111.465 104.027 111.097 103.951 110.78 103.801C110.463 103.645 110.215 103.435 110.036 103.169C109.857 102.898 109.767 102.59 109.767 102.245C109.767 101.899 109.852 101.593 110.02 101.327C110.194 101.061 110.43 100.853 110.726 100.702C111.028 100.547 111.365 100.469 111.739 100.469C112.117 100.469 112.452 100.545 112.744 100.695C113.04 100.842 113.273 101.05 113.442 101.32C113.611 101.586 113.695 101.894 113.695 102.245C113.695 102.267 113.693 102.291 113.687 102.318C113.687 102.34 113.687 102.364 113.687 102.391H110.181V102.038H113.396L113.181 102.178C113.181 101.925 113.117 101.702 112.989 101.507C112.867 101.307 112.698 101.152 112.483 101.041C112.268 100.93 112.02 100.875 111.739 100.875C111.463 100.875 111.215 100.93 110.995 101.041C110.775 101.152 110.603 101.307 110.481 101.507C110.358 101.706 110.297 101.934 110.297 102.191V102.265C110.297 102.531 110.363 102.765 110.496 102.969C110.634 103.169 110.823 103.326 111.064 103.441C111.309 103.552 111.588 103.608 111.9 103.608C112.145 103.608 112.373 103.57 112.583 103.495C112.798 103.419 112.982 103.304 113.135 103.149L113.442 103.455C113.263 103.641 113.038 103.783 112.767 103.88C112.501 103.978 112.207 104.027 111.885 104.027ZM116.86 100.469C117.187 100.469 117.474 100.525 117.719 100.635C117.97 100.742 118.164 100.906 118.302 101.128C118.445 101.349 118.517 101.628 118.517 101.965V103.993H117.972V102.012C117.972 101.644 117.865 101.367 117.65 101.181C117.44 100.99 117.144 100.895 116.76 100.895C116.474 100.895 116.223 100.946 116.008 101.048C115.799 101.145 115.635 101.289 115.517 101.48C115.405 101.666 115.349 101.892 115.349 102.158V103.993H114.804V99.0596H115.349V101.46L115.241 101.28C115.369 101.028 115.574 100.831 115.855 100.689C116.136 100.542 116.471 100.469 116.86 100.469ZM121.63 104.027C121.241 104.027 120.891 103.951 120.579 103.801C120.272 103.645 120.029 103.435 119.85 103.169C119.671 102.898 119.582 102.59 119.582 102.245C119.582 101.894 119.671 101.586 119.85 101.32C120.029 101.054 120.272 100.846 120.579 100.695C120.886 100.545 121.236 100.469 121.63 100.469C122.029 100.469 122.382 100.545 122.689 100.695C123.001 100.846 123.244 101.054 123.418 101.32C123.597 101.586 123.686 101.894 123.686 102.245C123.686 102.59 123.597 102.898 123.418 103.169C123.244 103.435 123.001 103.645 122.689 103.801C122.377 103.951 122.024 104.027 121.63 104.027ZM121.63 103.608C121.922 103.608 122.18 103.552 122.405 103.441C122.63 103.326 122.806 103.167 122.934 102.963C123.067 102.754 123.134 102.515 123.134 102.245C123.134 101.97 123.067 101.73 122.934 101.526C122.806 101.323 122.63 101.165 122.405 101.054C122.18 100.939 121.924 100.881 121.638 100.881C121.351 100.881 121.096 100.939 120.871 101.054C120.646 101.165 120.466 101.323 120.334 101.526C120.201 101.73 120.134 101.97 120.134 102.245C120.134 102.515 120.201 102.754 120.334 102.963C120.466 103.167 120.646 103.326 120.871 103.441C121.096 103.552 121.349 103.608 121.63 103.608ZM124.798 103.993V99.0596H125.343V103.993H124.798ZM128.462 104.027C128.078 104.027 127.733 103.951 127.426 103.801C127.124 103.65 126.887 103.441 126.713 103.176C126.539 102.905 126.452 102.595 126.452 102.245C126.452 101.89 126.539 101.58 126.713 101.314C126.887 101.048 127.124 100.842 127.426 100.695C127.733 100.545 128.078 100.469 128.462 100.469C128.815 100.469 129.129 100.538 129.405 100.675C129.687 100.813 129.909 101.014 130.073 101.28C130.242 101.542 130.326 101.863 130.326 102.245C130.326 102.621 130.244 102.943 130.081 103.209C129.917 103.475 129.694 103.679 129.413 103.821C129.137 103.958 128.82 104.027 128.462 104.027ZM128.5 103.608C128.787 103.608 129.042 103.552 129.267 103.441C129.497 103.326 129.677 103.167 129.804 102.963C129.937 102.754 130.004 102.515 130.004 102.245C130.004 101.97 129.937 101.73 129.804 101.526C129.677 101.323 129.497 101.165 129.267 101.054C129.042 100.939 128.787 100.881 128.5 100.881C128.219 100.881 127.966 100.939 127.741 101.054C127.516 101.165 127.337 101.323 127.204 101.526C127.071 101.73 127.004 101.97 127.004 102.245C127.004 102.515 127.071 102.754 127.204 102.963C127.337 103.167 127.516 103.326 127.741 103.441C127.966 103.552 128.219 103.608 128.5 103.608ZM130.019 103.993V102.943L130.073 102.238L129.996 101.533V99.0596H130.541V103.993H130.019ZM133.768 104.027C133.349 104.027 132.981 103.951 132.664 103.801C132.347 103.645 132.099 103.435 131.92 103.169C131.741 102.898 131.651 102.59 131.651 102.245C131.651 101.899 131.736 101.593 131.904 101.327C132.078 101.061 132.314 100.853 132.61 100.702C132.912 100.547 133.25 100.469 133.623 100.469C134.001 100.469 134.336 100.545 134.628 100.695C134.924 100.842 135.157 101.05 135.326 101.32C135.495 101.586 135.579 101.894 135.579 102.245C135.579 102.267 135.577 102.291 135.571 102.318C135.571 102.34 135.571 102.364 135.571 102.391H132.066V102.038H135.28L135.065 102.178C135.065 101.925 135.001 101.702 134.873 101.507C134.75 101.307 134.582 101.152 134.367 101.041C134.152 100.93 133.904 100.875 133.623 100.875C133.347 100.875 133.099 100.93 132.879 101.041C132.659 101.152 132.487 101.307 132.365 101.507C132.242 101.706 132.181 101.934 132.181 102.191V102.265C132.181 102.531 132.247 102.765 132.38 102.969C132.518 103.169 132.707 103.326 132.948 103.441C133.193 103.552 133.472 103.608 133.784 103.608C134.029 103.608 134.257 103.57 134.467 103.495C134.681 103.419 134.866 103.304 135.019 103.149L135.326 103.455C135.147 103.641 134.922 103.783 134.651 103.88C134.385 103.978 134.091 104.027 133.768 104.027ZM136.688 103.993V100.502H137.21V101.453L137.156 101.287C137.268 101.021 137.458 100.819 137.724 100.682C137.989 100.54 138.319 100.469 138.713 100.469V100.928C138.693 100.928 138.672 100.928 138.652 100.928C138.631 100.924 138.611 100.921 138.591 100.921C138.166 100.921 137.834 101.034 137.593 101.261C137.353 101.482 137.233 101.799 137.233 102.211V103.993H136.688Z" fill="#999EA9"/>
</g>
<path d="M274.613 109.5H191.387C189.793 109.5 188.5 108.151 188.5 106.487V96.513C188.5 94.849 189.793 93.5 191.387 93.5H274.613C276.207 93.5 277.5 94.849 277.5 96.513V106.487C277.5 108.151 276.207 109.5 274.613 109.5Z" fill="#F9F9F9" stroke="#B1B5BD" stroke-width="0.5"/>
<mask id="mask1_1670_1627" style="mask-type:luminance" maskUnits="userSpaceOnUse" x="194" y="96" width="76" height="11">
<path d="M269.845 106.071H194.565V96.9284H269.845V106.071Z" fill="white"/>
</mask>
<g mask="url(#mask1_1670_1627)">
<path d="M269.845 106.071H194.565V96.9284H269.845V106.071Z" fill="#999EA9"/>
<path d="M195.441 103.993V99.3388H197.451C197.907 99.3388 198.298 99.4031 198.625 99.5317C198.953 99.6558 199.203 99.8375 199.377 100.077C199.556 100.312 199.646 100.598 199.646 100.935C199.646 101.263 199.556 101.546 199.377 101.786C199.203 102.021 198.953 102.203 198.625 102.331C198.298 102.46 197.907 102.524 197.451 102.524H195.756L196.009 102.291V103.993H195.441ZM196.009 102.331L195.756 102.092H197.436C197.973 102.092 198.38 101.992 198.656 101.792C198.937 101.589 199.078 101.303 199.078 100.935C199.078 100.562 198.937 100.274 198.656 100.07C198.38 99.8663 197.973 99.7644 197.436 99.7644H195.756L196.009 99.5317V102.331ZM200.833 103.993V99.0596H201.378V103.993H200.833ZM205.417 103.993V103.222L205.394 103.096V101.806C205.394 101.509 205.297 101.28 205.103 101.121C204.913 100.961 204.63 100.881 204.251 100.881C203.99 100.881 203.742 100.919 203.507 100.995C203.272 101.07 203.072 101.17 202.909 101.294L202.663 100.941C202.868 100.791 203.113 100.675 203.4 100.596C203.686 100.511 203.988 100.469 204.305 100.469C204.827 100.469 205.228 100.582 205.509 100.808C205.796 101.03 205.939 101.369 205.939 101.826V103.993H205.417ZM204.029 104.027C203.727 104.027 203.463 103.985 203.238 103.9C203.019 103.812 202.85 103.692 202.732 103.541C202.614 103.386 202.556 103.209 202.556 103.009C202.556 102.828 202.604 102.664 202.701 102.517C202.804 102.367 202.967 102.247 203.192 102.158C203.423 102.065 203.729 102.019 204.113 102.019H205.502V102.371H204.128C203.74 102.371 203.469 102.431 203.315 102.55C203.167 102.67 203.093 102.819 203.093 102.996C203.093 103.195 203.182 103.355 203.361 103.475C203.54 103.594 203.791 103.654 204.113 103.654C204.42 103.654 204.683 103.594 204.903 103.475C205.128 103.351 205.292 103.173 205.394 102.943L205.517 103.269C205.415 103.499 205.236 103.683 204.98 103.821C204.729 103.958 204.412 104.027 204.029 104.027ZM209.091 104.027C208.692 104.027 208.334 103.951 208.017 103.801C207.705 103.645 207.459 103.435 207.28 103.169C207.101 102.898 207.012 102.59 207.012 102.245C207.012 101.894 207.101 101.586 207.28 101.32C207.459 101.054 207.705 100.846 208.017 100.695C208.334 100.545 208.692 100.469 209.091 100.469C209.433 100.469 209.743 100.527 210.019 100.642C210.295 100.757 210.513 100.93 210.671 101.161L210.265 101.4C210.127 101.223 209.955 101.092 209.751 101.008C209.546 100.924 209.324 100.881 209.083 100.881C208.797 100.881 208.538 100.939 208.308 101.054C208.078 101.165 207.897 101.323 207.764 101.526C207.631 101.73 207.564 101.97 207.564 102.245C207.564 102.519 207.631 102.759 207.764 102.963C207.897 103.167 208.078 103.326 208.308 103.441C208.538 103.552 208.797 103.608 209.083 103.608C209.324 103.608 209.546 103.566 209.751 103.481C209.955 103.397 210.127 103.269 210.265 103.096L210.671 103.335C210.513 103.561 210.295 103.734 210.019 103.854C209.743 103.969 209.433 104.027 209.091 104.027ZM213.385 104.027C212.965 104.027 212.597 103.951 212.28 103.801C211.963 103.645 211.715 103.435 211.536 103.169C211.357 102.898 211.267 102.59 211.267 102.245C211.267 101.899 211.352 101.593 211.52 101.327C211.694 101.061 211.93 100.853 212.226 100.702C212.528 100.547 212.865 100.469 213.239 100.469C213.617 100.469 213.952 100.545 214.244 100.695C214.54 100.842 214.773 101.05 214.942 101.32C215.111 101.586 215.195 101.894 215.195 102.245C215.195 102.267 215.193 102.291 215.187 102.318C215.187 102.34 215.187 102.364 215.187 102.391H211.681V102.038H214.896L214.681 102.178C214.681 101.925 214.617 101.702 214.489 101.507C214.367 101.307 214.198 101.152 213.983 101.041C213.768 100.93 213.52 100.875 213.239 100.875C212.963 100.875 212.715 100.93 212.495 101.041C212.275 101.152 212.103 101.307 211.981 101.507C211.858 101.706 211.797 101.934 211.797 102.191V102.265C211.797 102.531 211.863 102.765 211.996 102.969C212.134 103.169 212.323 103.326 212.564 103.441C212.809 103.552 213.088 103.608 213.4 103.608C213.645 103.608 213.873 103.57 214.083 103.495C214.298 103.419 214.482 103.304 214.635 103.149L214.942 103.455C214.763 103.641 214.538 103.783 214.267 103.88C214.001 103.978 213.707 104.027 213.385 104.027ZM218.36 100.469C218.687 100.469 218.974 100.525 219.219 100.635C219.47 100.742 219.664 100.906 219.802 101.128C219.945 101.349 220.017 101.628 220.017 101.965V103.993H219.472V102.012C219.472 101.644 219.365 101.367 219.15 101.181C218.94 100.99 218.644 100.895 218.26 100.895C217.974 100.895 217.723 100.946 217.508 101.048C217.299 101.145 217.135 101.289 217.017 101.48C216.905 101.666 216.849 101.892 216.849 102.158V103.993H216.304V99.0596H216.849V101.46L216.741 101.28C216.869 101.028 217.074 100.831 217.355 100.689C217.636 100.542 217.971 100.469 218.36 100.469ZM223.13 104.027C222.741 104.027 222.391 103.951 222.079 103.801C221.772 103.645 221.529 103.435 221.35 103.169C221.171 102.898 221.082 102.59 221.082 102.245C221.082 101.894 221.171 101.586 221.35 101.32C221.529 101.054 221.772 100.846 222.079 100.695C222.386 100.545 222.736 100.469 223.13 100.469C223.529 100.469 223.882 100.545 224.189 100.695C224.501 100.846 224.744 101.054 224.918 101.32C225.097 101.586 225.186 101.894 225.186 102.245C225.186 102.59 225.097 102.898 224.918 103.169C224.744 103.435 224.501 103.645 224.189 103.801C223.877 103.951 223.524 104.027 223.13 104.027ZM223.13 103.608C223.422 103.608 223.68 103.552 223.905 103.441C224.13 103.326 224.306 103.167 224.434 102.963C224.567 102.754 224.634 102.515 224.634 102.245C224.634 101.97 224.567 101.73 224.434 101.526C224.306 101.323 224.13 101.165 223.905 101.054C223.68 100.939 223.424 100.881 223.138 100.881C222.851 100.881 222.596 100.939 222.371 101.054C222.146 101.165 221.966 101.323 221.834 101.526C221.701 101.73 221.634 101.97 221.634 102.245C221.634 102.515 221.701 102.754 221.834 102.963C221.966 103.167 222.146 103.326 222.371 103.441C222.596 103.552 222.849 103.608 223.13 103.608ZM226.298 103.993V99.0596H226.843V103.993H226.298ZM229.962 104.027C229.578 104.027 229.233 103.951 228.926 103.801C228.624 103.65 228.387 103.441 228.213 103.176C228.039 102.905 227.952 102.595 227.952 102.245C227.952 101.89 228.039 101.58 228.213 101.314C228.387 101.048 228.624 100.842 228.926 100.695C229.233 100.545 229.578 100.469 229.962 100.469C230.315 100.469 230.629 100.538 230.905 100.675C231.187 100.813 231.409 101.014 231.573 101.28C231.742 101.542 231.826 101.863 231.826 102.245C231.826 102.621 231.744 102.943 231.581 103.209C231.417 103.475 231.194 103.679 230.913 103.821C230.637 103.958 230.32 104.027 229.962 104.027ZM230 103.608C230.287 103.608 230.542 103.552 230.767 103.441C230.997 103.326 231.177 103.167 231.304 102.963C231.437 102.754 231.504 102.515 231.504 102.245C231.504 101.97 231.437 101.73 231.304 101.526C231.177 101.323 230.997 101.165 230.767 101.054C230.542 100.939 230.287 100.881 230 100.881C229.719 100.881 229.466 100.939 229.241 101.054C229.016 101.165 228.837 101.323 228.704 101.526C228.571 101.73 228.504 101.97 228.504 102.245C228.504 102.515 228.571 102.754 228.704 102.963C228.837 103.167 229.016 103.326 229.241 103.441C229.466 103.552 229.719 103.608 230 103.608ZM231.519 103.993V102.943L231.573 102.238L231.496 101.533V99.0596H232.041V103.993H231.519ZM235.268 104.027C234.849 104.027 234.481 103.951 234.164 103.801C233.847 103.645 233.599 103.435 233.42 103.169C233.241 102.898 233.151 102.59 233.151 102.245C233.151 101.899 233.236 101.593 233.404 101.327C233.578 101.061 233.814 100.853 234.11 100.702C234.412 100.547 234.75 100.469 235.123 100.469C235.501 100.469 235.836 100.545 236.128 100.695C236.424 100.842 236.657 101.05 236.826 101.32C236.995 101.586 237.079 101.894 237.079 102.245C237.079 102.267 237.077 102.291 237.071 102.318C237.071 102.34 237.071 102.364 237.071 102.391H233.566V102.038H236.78L236.565 102.178C236.565 101.925 236.501 101.702 236.373 101.507C236.25 101.307 236.082 101.152 235.867 101.041C235.652 100.93 235.404 100.875 235.123 100.875C234.847 100.875 234.599 100.93 234.379 101.041C234.159 101.152 233.987 101.307 233.865 101.507C233.742 101.706 233.681 101.934 233.681 102.191V102.265C233.681 102.531 233.747 102.765 233.88 102.969C234.018 103.169 234.207 103.326 234.448 103.441C234.693 103.552 234.972 103.608 235.284 103.608C235.529 103.608 235.757 103.57 235.967 103.495C236.181 103.419 236.366 103.304 236.519 103.149L236.826 103.455C236.647 103.641 236.422 103.783 236.151 103.88C235.885 103.978 235.591 104.027 235.268 104.027ZM238.188 103.993V100.502H238.71V101.453L238.656 101.287C238.768 101.021 238.958 100.819 239.224 100.682C239.489 100.54 239.819 100.469 240.213 100.469V100.928C240.193 100.928 240.172 100.928 240.152 100.928C240.131 100.924 240.111 100.921 240.091 100.921C239.666 100.921 239.334 101.034 239.093 101.261C238.853 101.482 238.733 101.799 238.733 102.211V103.993H238.188Z" fill="#999EA9"/>
</g>
<path d="M274.613 149.5H191.387C189.793 149.5 188.5 148.151 188.5 146.487V136.513C188.5 134.849 189.793 133.5 191.387 133.5H274.613C276.207 133.5 277.5 134.849 277.5 136.513V146.487C277.5 148.151 276.207 149.5 274.613 149.5Z" fill="#F9F9F9" stroke="#B1B5BD" stroke-width="0.5"/>
<mask id="mask2_1670_1627" style="mask-type:luminance" maskUnits="userSpaceOnUse" x="194" y="136" width="76" height="11">
<path d="M269.845 146.071H194.565V136.928H269.845V146.071Z" fill="white"/>
</mask>
<g mask="url(#mask2_1670_1627)">
<path d="M269.845 146.071H194.565V136.928H269.845V146.071Z" fill="#999EA9"/>
<path d="M195.441 143.993V139.339H197.451C197.907 139.339 198.298 139.403 198.625 139.532C198.953 139.656 199.203 139.838 199.377 140.077C199.556 140.312 199.646 140.598 199.646 140.935C199.646 141.263 199.556 141.546 199.377 141.786C199.203 142.021 198.953 142.203 198.625 142.331C198.298 142.46 197.907 142.524 197.451 142.524H195.756L196.009 142.291V143.993H195.441ZM196.009 142.331L195.756 142.092H197.436C197.973 142.092 198.38 141.992 198.656 141.792C198.937 141.589 199.078 141.303 199.078 140.935C199.078 140.562 198.937 140.274 198.656 140.07C198.38 139.866 197.973 139.764 197.436 139.764H195.756L196.009 139.532V142.331ZM200.833 143.993V139.06H201.378V143.993H200.833ZM205.417 143.993V143.222L205.394 143.096V141.806C205.394 141.509 205.297 141.28 205.103 141.121C204.913 140.961 204.63 140.881 204.251 140.881C203.99 140.881 203.742 140.919 203.507 140.995C203.272 141.07 203.072 141.17 202.909 141.294L202.663 140.941C202.868 140.791 203.113 140.675 203.4 140.596C203.686 140.511 203.988 140.469 204.305 140.469C204.827 140.469 205.228 140.582 205.509 140.808C205.796 141.03 205.939 141.369 205.939 141.826V143.993H205.417ZM204.029 144.027C203.727 144.027 203.463 143.985 203.238 143.9C203.019 143.812 202.85 143.692 202.732 143.541C202.614 143.386 202.556 143.209 202.556 143.009C202.556 142.828 202.604 142.664 202.701 142.517C202.804 142.367 202.967 142.247 203.192 142.158C203.423 142.065 203.729 142.019 204.113 142.019H205.502V142.371H204.128C203.74 142.371 203.469 142.431 203.315 142.55C203.167 142.67 203.093 142.819 203.093 142.996C203.093 143.195 203.182 143.355 203.361 143.475C203.54 143.594 203.791 143.654 204.113 143.654C204.42 143.654 204.683 143.594 204.903 143.475C205.128 143.351 205.292 143.173 205.394 142.943L205.517 143.269C205.415 143.499 205.236 143.683 204.98 143.821C204.729 143.958 204.412 144.027 204.029 144.027ZM209.091 144.027C208.692 144.027 208.334 143.951 208.017 143.801C207.705 143.645 207.459 143.435 207.28 143.169C207.101 142.898 207.012 142.59 207.012 142.245C207.012 141.894 207.101 141.586 207.28 141.32C207.459 141.054 207.705 140.846 208.017 140.695C208.334 140.545 208.692 140.469 209.091 140.469C209.433 140.469 209.743 140.527 210.019 140.642C210.295 140.757 210.513 140.93 210.671 141.161L210.265 141.4C210.127 141.223 209.955 141.092 209.751 141.008C209.546 140.924 209.324 140.881 209.083 140.881C208.797 140.881 208.538 140.939 208.308 141.054C208.078 141.165 207.897 141.323 207.764 141.526C207.631 141.73 207.564 141.97 207.564 142.245C207.564 142.519 207.631 142.759 207.764 142.963C207.897 143.167 208.078 143.326 208.308 143.441C208.538 143.552 208.797 143.608 209.083 143.608C209.324 143.608 209.546 143.566 209.751 143.481C209.955 143.397 210.127 143.269 210.265 143.096L210.671 143.335C210.513 143.561 210.295 143.734 210.019 143.854C209.743 143.969 209.433 144.027 209.091 144.027ZM213.385 144.027C212.965 144.027 212.597 143.951 212.28 143.801C211.963 143.645 211.715 143.435 211.536 143.169C211.357 142.898 211.267 142.59 211.267 142.245C211.267 141.899 211.352 141.593 211.52 141.327C211.694 141.061 211.93 140.853 212.226 140.702C212.528 140.547 212.865 140.469 213.239 140.469C213.617 140.469 213.952 140.545 214.244 140.695C214.54 140.842 214.773 141.05 214.942 141.32C215.111 141.586 215.195 141.894 215.195 142.245C215.195 142.267 215.193 142.291 215.187 142.318C215.187 142.34 215.187 142.364 215.187 142.391H211.681V142.038H214.896L214.681 142.178C214.681 141.925 214.617 141.702 214.489 141.507C214.367 141.307 214.198 141.152 213.983 141.041C213.768 140.93 213.52 140.875 213.239 140.875C212.963 140.875 212.715 140.93 212.495 141.041C212.275 141.152 212.103 141.307 211.981 141.507C211.858 141.706 211.797 141.934 211.797 142.191V142.265C211.797 142.531 211.863 142.765 211.996 142.969C212.134 143.169 212.323 143.326 212.564 143.441C212.809 143.552 213.088 143.608 213.4 143.608C213.645 143.608 213.873 143.57 214.083 143.495C214.298 143.419 214.482 143.304 214.635 143.149L214.942 143.455C214.763 143.641 214.538 143.783 214.267 143.88C214.001 143.978 213.707 144.027 213.385 144.027ZM218.36 140.469C218.687 140.469 218.974 140.525 219.219 140.635C219.47 140.742 219.664 140.906 219.802 141.128C219.945 141.349 220.017 141.628 220.017 141.965V143.993H219.472V142.012C219.472 141.644 219.365 141.367 219.15 141.181C218.94 140.99 218.644 140.895 218.26 140.895C217.974 140.895 217.723 140.946 217.508 141.048C217.299 141.145 217.135 141.289 217.017 141.48C216.905 141.666 216.849 141.892 216.849 142.158V143.993H216.304V139.06H216.849V141.46L216.741 141.28C216.869 141.028 217.074 140.831 217.355 140.689C217.636 140.542 217.971 140.469 218.36 140.469ZM223.13 144.027C222.741 144.027 222.391 143.951 222.079 143.801C221.772 143.645 221.529 143.435 221.35 143.169C221.171 142.898 221.082 142.59 221.082 142.245C221.082 141.894 221.171 141.586 221.35 141.32C221.529 141.054 221.772 140.846 222.079 140.695C222.386 140.545 222.736 140.469 223.13 140.469C223.529 140.469 223.882 140.545 224.189 140.695C224.501 140.846 224.744 141.054 224.918 141.32C225.097 141.586 225.186 141.894 225.186 142.245C225.186 142.59 225.097 142.898 224.918 143.169C224.744 143.435 224.501 143.645 224.189 143.801C223.877 143.951 223.524 144.027 223.13 144.027ZM223.13 143.608C223.422 143.608 223.68 143.552 223.905 143.441C224.13 143.326 224.306 143.167 224.434 142.963C224.567 142.754 224.634 142.515 224.634 142.245C224.634 141.97 224.567 141.73 224.434 141.526C224.306 141.323 224.13 141.165 223.905 141.054C223.68 140.939 223.424 140.881 223.138 140.881C222.851 140.881 222.596 140.939 222.371 141.054C222.146 141.165 221.966 141.323 221.834 141.526C221.701 141.73 221.634 141.97 221.634 142.245C221.634 142.515 221.701 142.754 221.834 142.963C221.966 143.167 222.146 143.326 222.371 143.441C222.596 143.552 222.849 143.608 223.13 143.608ZM226.298 143.993V139.06H226.843V143.993H226.298ZM229.962 144.027C229.578 144.027 229.233 143.951 228.926 143.801C228.624 143.65 228.387 143.441 228.213 143.176C228.039 142.905 227.952 142.595 227.952 142.245C227.952 141.89 228.039 141.58 228.213 141.314C228.387 141.048 228.624 140.842 228.926 140.695C229.233 140.545 229.578 140.469 229.962 140.469C230.315 140.469 230.629 140.538 230.905 140.675C231.187 140.813 231.409 141.014 231.573 141.28C231.742 141.542 231.826 141.863 231.826 142.245C231.826 142.621 231.744 142.943 231.581 143.209C231.417 143.475 231.194 143.679 230.913 143.821C230.637 143.958 230.32 144.027 229.962 144.027ZM230 143.608C230.287 143.608 230.542 143.552 230.767 143.441C230.997 143.326 231.177 143.167 231.304 142.963C231.437 142.754 231.504 142.515 231.504 142.245C231.504 141.97 231.437 141.73 231.304 141.526C231.177 141.323 230.997 141.165 230.767 141.054C230.542 140.939 230.287 140.881 230 140.881C229.719 140.881 229.466 140.939 229.241 141.054C229.016 141.165 228.837 141.323 228.704 141.526C228.571 141.73 228.504 141.97 228.504 142.245C228.504 142.515 228.571 142.754 228.704 142.963C228.837 143.167 229.016 143.326 229.241 143.441C229.466 143.552 229.719 143.608 230 143.608ZM231.519 143.993V142.943L231.573 142.238L231.496 141.533V139.06H232.041V143.993H231.519ZM235.268 144.027C234.849 144.027 234.481 143.951 234.164 143.801C233.847 143.645 233.599 143.435 233.42 143.169C233.241 142.898 233.151 142.59 233.151 142.245C233.151 141.899 233.236 141.593 233.404 141.327C233.578 141.061 233.814 140.853 234.11 140.702C234.412 140.547 234.75 140.469 235.123 140.469C235.501 140.469 235.836 140.545 236.128 140.695C236.424 140.842 236.657 141.05 236.826 141.32C236.995 141.586 237.079 141.894 237.079 142.245C237.079 142.267 237.077 142.291 237.071 142.318C237.071 142.34 237.071 142.364 237.071 142.391H233.566V142.038H236.78L236.565 142.178C236.565 141.925 236.501 141.702 236.373 141.507C236.25 141.307 236.082 141.152 235.867 141.041C235.652 140.93 235.404 140.875 235.123 140.875C234.847 140.875 234.599 140.93 234.379 141.041C234.159 141.152 233.987 141.307 233.865 141.507C233.742 141.706 233.681 141.934 233.681 142.191V142.265C233.681 142.531 233.747 142.765 233.88 142.969C234.018 143.169 234.207 143.326 234.448 143.441C234.693 143.552 234.972 143.608 235.284 143.608C235.529 143.608 235.757 143.57 235.967 143.495C236.181 143.419 236.366 143.304 236.519 143.149L236.826 143.455C236.647 143.641 236.422 143.783 236.151 143.88C235.885 143.978 235.591 144.027 235.268 144.027ZM238.188 143.993V140.502H238.71V141.453L238.656 141.287C238.768 141.021 238.958 140.819 239.224 140.682C239.489 140.54 239.819 140.469 240.213 140.469V140.928C240.193 140.928 240.172 140.928 240.152 140.928C240.131 140.924 240.111 140.921 240.091 140.921C239.666 140.921 239.334 141.034 239.093 141.261C238.853 141.482 238.733 141.799 238.733 142.211V143.993H238.188Z" fill="#999EA9"/>
</g>
<path d="M173.113 149.5H89.887C88.2926 149.5 87 148.151 87 146.487V136.513C87 134.849 88.2926 133.5 89.887 133.5H173.113C174.707 133.5 176 134.849 176 136.513V146.487C176 148.151 174.707 149.5 173.113 149.5Z" fill="#F9F9F9" stroke="#B1B5BD" stroke-width="0.5"/>
<mask id="mask3_1670_1627" style="mask-type:luminance" maskUnits="userSpaceOnUse" x="93" y="136" width="63" height="11">
<path d="M155.505 146.071H93.0649V136.928H155.505V146.071Z" fill="white"/>
</mask>
<g mask="url(#mask3_1670_1627)">
<path d="M155.505 146.071H93.0649V136.928H155.505V146.071Z" fill="#999EA9"/>
<path d="M93.791 143.993V139.339H95.4582C95.8358 139.339 96.1603 139.403 96.4318 139.532C96.7033 139.656 96.9112 139.838 97.0554 140.077C97.2039 140.312 97.2781 140.598 97.2781 140.935C97.2781 141.263 97.2039 141.546 97.0554 141.786C96.9112 142.021 96.7033 142.203 96.4318 142.331C96.1603 142.46 95.8358 142.524 95.4582 142.524H94.0519L94.2619 142.291V143.993H93.791ZM94.2619 142.331L94.0519 142.092H95.4455C95.8909 142.092 96.2282 141.992 96.4573 141.792C96.6906 141.589 96.8072 141.303 96.8072 140.935C96.8072 140.562 96.6906 140.274 96.4573 140.07C96.2282 139.866 95.8909 139.764 95.4455 139.764H94.0519L94.2619 139.532V142.331ZM98.263 143.993V139.06H98.7148V143.993H98.263ZM102.065 143.993V143.222L102.046 143.096V141.806C102.046 141.509 101.966 141.28 101.805 141.121C101.648 140.961 101.412 140.881 101.098 140.881C100.882 140.881 100.676 140.919 100.481 140.995C100.286 141.07 100.12 141.17 99.9847 141.294L99.781 140.941C99.9507 140.791 100.154 140.675 100.392 140.596C100.629 140.511 100.88 140.469 101.143 140.469C101.576 140.469 101.909 140.582 102.142 140.808C102.379 141.03 102.498 141.369 102.498 141.826V143.993H102.065ZM100.914 144.027C100.663 144.027 100.445 143.985 100.258 143.9C100.076 143.812 99.9359 143.692 99.8383 143.541C99.7407 143.386 99.692 143.209 99.692 143.009C99.692 142.828 99.7322 142.664 99.8129 142.517C99.8977 142.367 100.033 142.247 100.22 142.158C100.411 142.065 100.666 142.019 100.984 142.019H102.135V142.371H100.996C100.674 142.371 100.449 142.431 100.322 142.55C100.199 142.67 100.137 142.819 100.137 142.996C100.137 143.195 100.212 143.355 100.36 143.475C100.509 143.594 100.716 143.654 100.984 143.654C101.238 143.654 101.457 143.594 101.639 143.475C101.826 143.351 101.962 143.173 102.046 142.943L102.148 143.269C102.063 143.499 101.915 143.683 101.703 143.821C101.495 143.958 101.232 144.027 100.914 144.027ZM105.113 144.027C104.782 144.027 104.485 143.951 104.222 143.801C103.963 143.645 103.759 143.435 103.611 143.169C103.462 142.898 103.388 142.59 103.388 142.245C103.388 141.894 103.462 141.586 103.611 141.32C103.759 141.054 103.963 140.846 104.222 140.695C104.485 140.545 104.782 140.469 105.113 140.469C105.397 140.469 105.653 140.527 105.883 140.642C106.112 140.757 106.292 140.93 106.423 141.161L106.086 141.4C105.972 141.223 105.829 141.092 105.66 141.008C105.49 140.924 105.306 140.881 105.106 140.881C104.869 140.881 104.654 140.939 104.463 141.054C104.273 141.165 104.122 141.323 104.012 141.526C103.901 141.73 103.846 141.97 103.846 142.245C103.846 142.519 103.901 142.759 104.012 142.963C104.122 143.167 104.273 143.326 104.463 143.441C104.654 143.552 104.869 143.608 105.106 143.608C105.306 143.608 105.49 143.566 105.66 143.481C105.829 143.397 105.972 143.269 106.086 143.096L106.423 143.335C106.292 143.561 106.112 143.734 105.883 143.854C105.653 143.969 105.397 144.027 105.113 144.027ZM108.674 144.027C108.326 144.027 108.021 143.951 107.758 143.801C107.495 143.645 107.289 143.435 107.14 143.169C106.992 142.898 106.918 142.59 106.918 142.245C106.918 141.899 106.988 141.593 107.128 141.327C107.272 141.061 107.467 140.853 107.713 140.702C107.963 140.547 108.243 140.469 108.553 140.469C108.867 140.469 109.145 140.545 109.387 140.695C109.633 140.842 109.826 141.05 109.966 141.32C110.106 141.586 110.176 141.894 110.176 142.245C110.176 142.267 110.174 142.291 110.169 142.318C110.169 142.34 110.169 142.364 110.169 142.391H107.261V142.038H109.928L109.749 142.178C109.749 141.925 109.696 141.702 109.59 141.507C109.489 141.307 109.349 141.152 109.17 141.041C108.992 140.93 108.786 140.875 108.553 140.875C108.324 140.875 108.118 140.93 107.936 141.041C107.753 141.152 107.611 141.307 107.51 141.507C107.408 141.706 107.357 141.934 107.357 142.191V142.265C107.357 142.531 107.412 142.765 107.522 142.969C107.637 143.169 107.794 143.326 107.993 143.441C108.197 143.552 108.428 143.608 108.687 143.608C108.89 143.608 109.079 143.57 109.253 143.495C109.431 143.419 109.584 143.304 109.711 143.149L109.966 143.455C109.817 143.641 109.631 143.783 109.406 143.88C109.185 143.978 108.941 144.027 108.674 144.027ZM112.801 140.469C113.072 140.469 113.31 140.525 113.513 140.635C113.721 140.742 113.883 140.906 113.997 141.128C114.116 141.349 114.175 141.628 114.175 141.965V143.993H113.723V142.012C113.723 141.644 113.634 141.367 113.456 141.181C113.282 140.99 113.036 140.895 112.718 140.895C112.48 140.895 112.273 140.946 112.094 141.048C111.92 141.145 111.785 141.289 111.687 141.48C111.594 141.666 111.547 141.892 111.547 142.158V143.993H111.095V139.06H111.547V141.46L111.458 141.28C111.564 141.028 111.734 140.831 111.967 140.689C112.2 140.542 112.478 140.469 112.801 140.469ZM116.757 144.027C116.435 144.027 116.144 143.951 115.886 143.801C115.631 143.645 115.43 143.435 115.281 143.169C115.133 142.898 115.058 142.59 115.058 142.245C115.058 141.894 115.133 141.586 115.281 141.32C115.43 141.054 115.631 140.846 115.886 140.695C116.14 140.545 116.431 140.469 116.757 140.469C117.088 140.469 117.381 140.545 117.636 140.695C117.894 140.846 118.096 141.054 118.24 141.32C118.388 141.586 118.463 141.894 118.463 142.245C118.463 142.59 118.388 142.898 118.24 143.169C118.096 143.435 117.894 143.645 117.636 143.801C117.377 143.951 117.084 144.027 116.757 144.027ZM116.757 143.608C116.999 143.608 117.213 143.552 117.4 143.441C117.587 143.326 117.733 143.167 117.839 142.963C117.949 142.754 118.005 142.515 118.005 142.245C118.005 141.97 117.949 141.73 117.839 141.526C117.733 141.323 117.587 141.165 117.4 141.054C117.213 140.939 117.001 140.881 116.764 140.881C116.526 140.881 116.314 140.939 116.127 141.054C115.941 141.165 115.792 141.323 115.682 141.526C115.572 141.73 115.517 141.97 115.517 142.245C115.517 142.515 115.572 142.754 115.682 142.963C115.792 143.167 115.941 143.326 116.127 143.441C116.314 143.552 116.524 143.608 116.757 143.608ZM119.385 143.993V139.06H119.837V143.993H119.385ZM122.424 144.027C122.106 144.027 121.819 143.951 121.565 143.801C121.315 143.65 121.117 143.441 120.973 143.176C120.829 142.905 120.757 142.595 120.757 142.245C120.757 141.89 120.829 141.58 120.973 141.314C121.117 141.048 121.315 140.842 121.565 140.695C121.819 140.545 122.106 140.469 122.424 140.469C122.717 140.469 122.978 140.538 123.207 140.675C123.44 140.813 123.625 141.014 123.76 141.28C123.9 141.542 123.97 141.863 123.97 142.245C123.97 142.621 123.902 142.943 123.767 143.209C123.631 143.475 123.446 143.679 123.213 143.821C122.984 143.958 122.721 144.027 122.424 144.027ZM122.456 143.608C122.693 143.608 122.905 143.552 123.092 143.441C123.283 143.326 123.432 143.167 123.538 142.963C123.648 142.754 123.703 142.515 123.703 142.245C123.703 141.97 123.648 141.73 123.538 141.526C123.432 141.323 123.283 141.165 123.092 141.054C122.905 140.939 122.693 140.881 122.456 140.881C122.222 140.881 122.013 140.939 121.826 141.054C121.639 141.165 121.491 141.323 121.38 141.526C121.27 141.73 121.215 141.97 121.215 142.245C121.215 142.515 121.27 142.754 121.38 142.963C121.491 143.167 121.639 143.326 121.826 143.441C122.013 143.552 122.222 143.608 122.456 143.608ZM123.716 143.993V142.943L123.76 142.238L123.697 141.533V139.06H124.148V143.993H123.716ZM126.826 144.027C126.478 144.027 126.172 143.951 125.909 143.801C125.646 143.645 125.441 143.435 125.292 143.169C125.144 142.898 125.069 142.59 125.069 142.245C125.069 141.899 125.139 141.593 125.279 141.327C125.424 141.061 125.619 140.853 125.865 140.702C126.115 140.547 126.395 140.469 126.705 140.469C127.019 140.469 127.296 140.545 127.538 140.695C127.784 140.842 127.977 141.05 128.117 141.32C128.257 141.586 128.327 141.894 128.327 142.245C128.327 142.267 128.325 142.291 128.321 142.318C128.321 142.34 128.321 142.364 128.321 142.391H125.413V142.038H128.079L127.901 142.178C127.901 141.925 127.848 141.702 127.742 141.507C127.64 141.307 127.5 141.152 127.322 141.041C127.144 140.93 126.938 140.875 126.705 140.875C126.476 140.875 126.27 140.93 126.088 141.041C125.905 141.152 125.763 141.307 125.661 141.507C125.559 141.706 125.509 141.934 125.509 142.191V142.265C125.509 142.531 125.564 142.765 125.674 142.969C125.789 143.169 125.945 143.326 126.145 143.441C126.348 143.552 126.58 143.608 126.838 143.608C127.042 143.608 127.231 143.57 127.405 143.495C127.583 143.419 127.736 143.304 127.863 143.149L128.117 143.455C127.969 143.641 127.782 143.783 127.557 143.88C127.337 143.978 127.093 144.027 126.826 144.027ZM129.247 143.993V140.502H129.68V141.453L129.635 141.287C129.728 141.021 129.886 140.819 130.106 140.682C130.327 140.54 130.6 140.469 130.927 140.469V140.928C130.91 140.928 130.893 140.928 130.876 140.928C130.859 140.924 130.842 140.921 130.825 140.921C130.473 140.921 130.197 141.034 129.998 141.261C129.798 141.482 129.699 141.799 129.699 142.211V143.993H129.247Z" fill="#999EA9"/>
</g>
<path d="M165.948 142.499C165.868 142.499 165.791 142.476 165.73 142.434L163.683 141.006C163.613 140.957 163.569 140.888 163.561 140.812C163.553 140.737 163.58 140.661 163.638 140.603C163.696 140.545 163.779 140.508 163.869 140.501C163.96 140.494 164.05 140.518 164.119 140.566L165.948 141.845L167.777 140.612C167.812 140.588 167.852 140.57 167.895 140.56C167.938 140.549 167.983 140.545 168.028 140.549C168.072 140.553 168.116 140.565 168.156 140.583C168.195 140.601 168.23 140.625 168.258 140.655C168.289 140.684 168.313 140.718 168.328 140.756C168.342 140.793 168.347 140.833 168.343 140.872C168.338 140.911 168.324 140.949 168.301 140.983C168.278 141.018 168.247 141.048 168.21 141.072L166.163 142.451C166.1 142.487 166.024 142.504 165.948 142.499Z" fill="black"/>
<rect x="87" y="125.5" width="21" height="4" fill="#999EA9"/>
<rect x="86" y="165.5" width="21" height="4" fill="#999EA9"/>
<rect x="96" y="174.5" width="35" height="4" fill="#999EA9"/>
<rect x="96" y="184.5" width="35" height="4" fill="#999EA9"/>
<rect x="86" y="85.5" width="21" height="4" fill="#999EA9"/>
<rect x="86" y="60.5" width="90" height="8" fill="#999EA9"/>
<rect x="188.5" y="85" width="22" height="4" fill="#999EA9"/>
<rect x="188.5" y="125" width="22" height="4" fill="#999EA9"/>
<circle cx="89" cy="176.5" r="2.5" stroke="#999EA9"/>
<circle cx="89" cy="186.5" r="2.5" stroke="#999EA9"/>
<line x1="86.5" y1="36.8584" x2="86.5" y2="265.858" stroke="#019155"/>
<rect x="70" y="36.5" width="430" height="14" fill="#3A4458"/>
</g>
</g>
<rect y="214" width="348" height="4" fill="#019155"/>
<path d="M0 218H348V286C348 290.418 344.418 294 340 294H8C3.58172 294 0 290.418 0 286V218Z" fill="#E5F6ED"/>
<path d="M0 218H348V273C348 277.418 344.418 281 340 281H8C3.58172 281 0 277.418 0 273V218Z" fill="#E5F6ED"/>
<path d="M16.596 241V231.2H17.632V240.104H23.12V241H16.596ZM27.5168 241.07C26.8074 241.07 26.1681 240.911 25.5988 240.594C25.0388 240.267 24.5954 239.824 24.2688 239.264C23.9421 238.695 23.7788 238.046 23.7788 237.318C23.7788 236.581 23.9421 235.932 24.2688 235.372C24.5954 234.812 25.0388 234.373 25.5988 234.056C26.1588 233.739 26.7981 233.58 27.5168 233.58C28.2448 233.58 28.8888 233.739 29.4488 234.056C30.0181 234.373 30.4614 234.812 30.7788 235.372C31.1054 235.932 31.2688 236.581 31.2688 237.318C31.2688 238.046 31.1054 238.695 30.7788 239.264C30.4614 239.824 30.0181 240.267 29.4488 240.594C28.8794 240.911 28.2354 241.07 27.5168 241.07ZM27.5168 240.188C28.0488 240.188 28.5201 240.071 28.9308 239.838C29.3414 239.595 29.6634 239.259 29.8968 238.83C30.1394 238.391 30.2608 237.887 30.2608 237.318C30.2608 236.739 30.1394 236.235 29.8968 235.806C29.6634 235.377 29.3414 235.045 28.9308 234.812C28.5201 234.569 28.0534 234.448 27.5308 234.448C27.0081 234.448 26.5414 234.569 26.1308 234.812C25.7201 235.045 25.3934 235.377 25.1508 235.806C24.9081 236.235 24.7868 236.739 24.7868 237.318C24.7868 237.887 24.9081 238.391 25.1508 238.83C25.3934 239.259 25.7201 239.595 26.1308 239.838C26.5414 240.071 27.0034 240.188 27.5168 240.188ZM35.2721 241.07C34.6654 241.07 34.0914 240.986 33.5501 240.818C33.0088 240.641 32.5841 240.421 32.2761 240.16L32.7241 239.376C33.0228 239.6 33.4054 239.796 33.8721 239.964C34.3388 240.123 34.8288 240.202 35.3421 240.202C36.0421 240.202 36.5461 240.095 36.8541 239.88C37.1621 239.656 37.3161 239.362 37.3161 238.998C37.3161 238.727 37.2274 238.517 37.0501 238.368C36.8821 238.209 36.6581 238.093 36.3781 238.018C36.0981 237.934 35.7854 237.864 35.4401 237.808C35.0948 237.752 34.7494 237.687 34.4041 237.612C34.0681 237.537 33.7601 237.43 33.4801 237.29C33.2001 237.141 32.9714 236.94 32.7941 236.688C32.6261 236.436 32.5421 236.1 32.5421 235.68C32.5421 235.279 32.6541 234.919 32.8781 234.602C33.1021 234.285 33.4288 234.037 33.8581 233.86C34.2968 233.673 34.8288 233.58 35.4541 233.58C35.9301 233.58 36.4061 233.645 36.8821 233.776C37.3581 233.897 37.7501 234.061 38.0581 234.266L37.6241 235.064C37.2974 234.84 36.9474 234.681 36.5741 234.588C36.2008 234.485 35.8274 234.434 35.4541 234.434C34.7914 234.434 34.3014 234.551 33.9841 234.784C33.6761 235.008 33.5221 235.297 33.5221 235.652C33.5221 235.932 33.6061 236.151 33.7741 236.31C33.9514 236.469 34.1801 236.595 34.4601 236.688C34.7494 236.772 35.0621 236.842 35.3981 236.898C35.7434 236.954 36.0841 237.024 36.4201 237.108C36.7654 237.183 37.0781 237.29 37.3581 237.43C37.6474 237.561 37.8761 237.752 38.0441 238.004C38.2214 238.247 38.3101 238.569 38.3101 238.97C38.3101 239.399 38.1888 239.773 37.9461 240.09C37.7128 240.398 37.3674 240.641 36.9101 240.818C36.4621 240.986 35.9161 241.07 35.2721 241.07ZM46.8501 241.07C46.1221 241.07 45.4688 240.911 44.8901 240.594C44.3208 240.267 43.8728 239.824 43.5461 239.264C43.2194 238.695 43.0561 238.046 43.0561 237.318C43.0561 236.581 43.2194 235.932 43.5461 235.372C43.8728 234.812 44.3208 234.373 44.8901 234.056C45.4688 233.739 46.1221 233.58 46.8501 233.58C47.4754 233.58 48.0401 233.701 48.5441 233.944C49.0481 234.187 49.4448 234.551 49.7341 235.036L48.9921 235.54C48.7401 235.167 48.4274 234.891 48.0541 234.714C47.6808 234.537 47.2748 234.448 46.8361 234.448C46.3134 234.448 45.8421 234.569 45.4221 234.812C45.0021 235.045 44.6708 235.377 44.4281 235.806C44.1854 236.235 44.0641 236.739 44.0641 237.318C44.0641 237.897 44.1854 238.401 44.4281 238.83C44.6708 239.259 45.0021 239.595 45.4221 239.838C45.8421 240.071 46.3134 240.188 46.8361 240.188C47.2748 240.188 47.6808 240.099 48.0541 239.922C48.4274 239.745 48.7401 239.474 48.9921 239.11L49.7341 239.614C49.4448 240.09 49.0481 240.454 48.5441 240.706C48.0401 240.949 47.4754 241.07 46.8501 241.07ZM54.5597 241.07C53.8504 241.07 53.2111 240.911 52.6417 240.594C52.0817 240.267 51.6384 239.824 51.3117 239.264C50.9851 238.695 50.8217 238.046 50.8217 237.318C50.8217 236.581 50.9851 235.932 51.3117 235.372C51.6384 234.812 52.0817 234.373 52.6417 234.056C53.2017 233.739 53.8411 233.58 54.5597 233.58C55.2877 233.58 55.9317 233.739 56.4917 234.056C57.0611 234.373 57.5044 234.812 57.8217 235.372C58.1484 235.932 58.3117 236.581 58.3117 237.318C58.3117 238.046 58.1484 238.695 57.8217 239.264C57.5044 239.824 57.0611 240.267 56.4917 240.594C55.9224 240.911 55.2784 241.07 54.5597 241.07ZM54.5597 240.188C55.0917 240.188 55.5631 240.071 55.9737 239.838C56.3844 239.595 56.7064 239.259 56.9397 238.83C57.1824 238.391 57.3037 237.887 57.3037 237.318C57.3037 236.739 57.1824 236.235 56.9397 235.806C56.7064 235.377 56.3844 235.045 55.9737 234.812C55.5631 234.569 55.0964 234.448 54.5737 234.448C54.0511 234.448 53.5844 234.569 53.1737 234.812C52.7631 235.045 52.4364 235.377 52.1937 235.806C51.9511 236.235 51.8297 236.739 51.8297 237.318C51.8297 237.887 51.9511 238.391 52.1937 238.83C52.4364 239.259 52.7631 239.595 53.1737 239.838C53.5844 240.071 54.0464 240.188 54.5597 240.188ZM69.5251 233.58C70.1224 233.58 70.6404 233.697 71.0791 233.93C71.5271 234.154 71.8724 234.499 72.1151 234.966C72.3671 235.433 72.4931 236.021 72.4931 236.73V241H71.4991V236.828C71.4991 236.053 71.3124 235.47 70.9391 235.078C70.5751 234.677 70.0571 234.476 69.3851 234.476C68.8811 234.476 68.4424 234.583 68.0691 234.798C67.7051 235.003 67.4204 235.307 67.2151 235.708C67.0191 236.1 66.9211 236.576 66.9211 237.136V241H65.9271V236.828C65.9271 236.053 65.7404 235.47 65.3671 235.078C64.9937 234.677 64.4711 234.476 63.7991 234.476C63.3044 234.476 62.8704 234.583 62.4971 234.798C62.1237 235.003 61.8344 235.307 61.6291 235.708C61.4331 236.1 61.3351 236.576 61.3351 237.136V241H60.3411V233.65H61.2931V235.638L61.1391 235.288C61.3631 234.756 61.7224 234.341 62.2171 234.042C62.7211 233.734 63.3137 233.58 63.9951 233.58C64.7137 233.58 65.3251 233.762 65.8291 234.126C66.3331 234.481 66.6597 235.017 66.8091 235.736L66.4171 235.582C66.6317 234.985 67.0097 234.504 67.5511 234.14C68.1017 233.767 68.7597 233.58 69.5251 233.58ZM78.9827 241.07C78.3481 241.07 77.7741 240.925 77.2607 240.636C76.7474 240.337 76.3367 239.913 76.0287 239.362C75.7301 238.802 75.5807 238.121 75.5807 237.318C75.5807 236.515 75.7301 235.839 76.0287 235.288C76.3274 234.728 76.7334 234.303 77.2467 234.014C77.7601 233.725 78.3387 233.58 78.9827 233.58C79.6827 233.58 80.3081 233.739 80.8587 234.056C81.4187 234.364 81.8574 234.803 82.1747 235.372C82.4921 235.932 82.6507 236.581 82.6507 237.318C82.6507 238.065 82.4921 238.718 82.1747 239.278C81.8574 239.838 81.4187 240.277 80.8587 240.594C80.3081 240.911 79.6827 241.07 78.9827 241.07ZM75.1887 243.716V233.65H76.1407V235.862L76.0427 237.332L76.1827 238.816V243.716H75.1887ZM78.9127 240.188C79.4354 240.188 79.9021 240.071 80.3127 239.838C80.7234 239.595 81.0501 239.259 81.2927 238.83C81.5354 238.391 81.6567 237.887 81.6567 237.318C81.6567 236.749 81.5354 236.249 81.2927 235.82C81.0501 235.391 80.7234 235.055 80.3127 234.812C79.9021 234.569 79.4354 234.448 78.9127 234.448C78.3901 234.448 77.9187 234.569 77.4987 234.812C77.0881 235.055 76.7614 235.391 76.5187 235.82C76.2854 236.249 76.1687 236.749 76.1687 237.318C76.1687 237.887 76.2854 238.391 76.5187 238.83C76.7614 239.259 77.0881 239.595 77.4987 239.838C77.9187 240.071 78.3901 240.188 78.9127 240.188ZM87.673 241.07C86.9637 241.07 86.3243 240.911 85.755 240.594C85.195 240.267 84.7517 239.824 84.425 239.264C84.0983 238.695 83.935 238.046 83.935 237.318C83.935 236.581 84.0983 235.932 84.425 235.372C84.7517 234.812 85.195 234.373 85.755 234.056C86.315 233.739 86.9543 233.58 87.673 233.58C88.401 233.58 89.045 233.739 89.605 234.056C90.1743 234.373 90.6177 234.812 90.935 235.372C91.2617 235.932 91.425 236.581 91.425 237.318C91.425 238.046 91.2617 238.695 90.935 239.264C90.6177 239.824 90.1743 240.267 89.605 240.594C89.0357 240.911 88.3917 241.07 87.673 241.07ZM87.673 240.188C88.205 240.188 88.6763 240.071 89.087 239.838C89.4977 239.595 89.8197 239.259 90.053 238.83C90.2957 238.391 90.417 237.887 90.417 237.318C90.417 236.739 90.2957 236.235 90.053 235.806C89.8197 235.377 89.4977 235.045 89.087 234.812C88.6763 234.569 88.2097 234.448 87.687 234.448C87.1643 234.448 86.6977 234.569 86.287 234.812C85.8763 235.045 85.5497 235.377 85.307 235.806C85.0643 236.235 84.943 236.739 84.943 237.318C84.943 237.887 85.0643 238.391 85.307 238.83C85.5497 239.259 85.8763 239.595 86.287 239.838C86.6977 240.071 87.1597 240.188 87.673 240.188ZM97.2064 233.58C97.8037 233.58 98.3264 233.697 98.7744 233.93C99.2317 234.154 99.5864 234.499 99.8384 234.966C100.1 235.433 100.23 236.021 100.23 236.73V241H99.2364V236.828C99.2364 236.053 99.0404 235.47 98.6484 235.078C98.2657 234.677 97.7244 234.476 97.0244 234.476C96.5017 234.476 96.0444 234.583 95.6524 234.798C95.2697 235.003 94.971 235.307 94.7564 235.708C94.551 236.1 94.4484 236.576 94.4484 237.136V241H93.4544V233.65H94.4064V235.666L94.2524 235.288C94.4857 234.756 94.859 234.341 95.3724 234.042C95.8857 233.734 96.497 233.58 97.2064 233.58ZM106.037 241.07C105.272 241.07 104.6 240.911 104.021 240.594C103.443 240.267 102.99 239.824 102.663 239.264C102.337 238.695 102.173 238.046 102.173 237.318C102.173 236.59 102.327 235.946 102.635 235.386C102.953 234.826 103.382 234.387 103.923 234.07C104.474 233.743 105.09 233.58 105.771 233.58C106.462 233.58 107.073 233.739 107.605 234.056C108.147 234.364 108.571 234.803 108.879 235.372C109.187 235.932 109.341 236.581 109.341 237.318C109.341 237.365 109.337 237.416 109.327 237.472C109.327 237.519 109.327 237.57 109.327 237.626H102.929V236.884H108.795L108.403 237.178C108.403 236.646 108.287 236.175 108.053 235.764C107.829 235.344 107.521 235.017 107.129 234.784C106.737 234.551 106.285 234.434 105.771 234.434C105.267 234.434 104.815 234.551 104.413 234.784C104.012 235.017 103.699 235.344 103.475 235.764C103.251 236.184 103.139 236.665 103.139 237.206V237.36C103.139 237.92 103.261 238.415 103.503 238.844C103.755 239.264 104.101 239.595 104.539 239.838C104.987 240.071 105.496 240.188 106.065 240.188C106.513 240.188 106.929 240.109 107.311 239.95C107.703 239.791 108.039 239.549 108.319 239.222L108.879 239.866C108.553 240.258 108.142 240.557 107.647 240.762C107.162 240.967 106.625 241.07 106.037 241.07ZM115.117 233.58C115.714 233.58 116.237 233.697 116.685 233.93C117.142 234.154 117.497 234.499 117.749 234.966C118.01 235.433 118.141 236.021 118.141 236.73V241H117.147V236.828C117.147 236.053 116.951 235.47 116.559 235.078C116.176 234.677 115.635 234.476 114.935 234.476C114.412 234.476 113.955 234.583 113.563 234.798C113.18 235.003 112.881 235.307 112.667 235.708C112.461 236.1 112.359 236.576 112.359 237.136V241H111.365V233.65H112.317V235.666L112.163 235.288C112.396 234.756 112.769 234.341 113.283 234.042C113.796 233.734 114.407 233.58 115.117 233.58ZM123.947 241.07C123.182 241.07 122.51 240.911 121.931 240.594C121.353 240.267 120.9 239.824 120.573 239.264C120.247 238.695 120.083 238.046 120.083 237.318C120.083 236.59 120.237 235.946 120.545 235.386C120.863 234.826 121.292 234.387 121.833 234.07C122.384 233.743 123 233.58 123.681 233.58C124.372 233.58 124.983 233.739 125.515 234.056C126.057 234.364 126.481 234.803 126.789 235.372C127.097 235.932 127.251 236.581 127.251 237.318C127.251 237.365 127.247 237.416 127.237 237.472C127.237 237.519 127.237 237.57 127.237 237.626H120.839V236.884H126.705L126.313 237.178C126.313 236.646 126.197 236.175 125.963 235.764C125.739 235.344 125.431 235.017 125.039 234.784C124.647 234.551 124.195 234.434 123.681 234.434C123.177 234.434 122.725 234.551 122.323 234.784C121.922 235.017 121.609 235.344 121.385 235.764C121.161 236.184 121.049 236.665 121.049 237.206V237.36C121.049 237.92 121.171 238.415 121.413 238.844C121.665 239.264 122.011 239.595 122.449 239.838C122.897 240.071 123.406 240.188 123.975 240.188C124.423 240.188 124.839 240.109 125.221 239.95C125.613 239.791 125.949 239.549 126.229 239.222L126.789 239.866C126.463 240.258 126.052 240.557 125.557 240.762C125.072 240.967 124.535 241.07 123.947 241.07ZM131.599 241.07C130.908 241.07 130.376 240.883 130.003 240.51C129.629 240.137 129.443 239.609 129.443 238.928V232.026H130.437V238.872C130.437 239.301 130.544 239.633 130.759 239.866C130.983 240.099 131.3 240.216 131.711 240.216C132.149 240.216 132.513 240.09 132.803 239.838L133.153 240.552C132.957 240.729 132.719 240.86 132.439 240.944C132.168 241.028 131.888 241.07 131.599 241.07ZM128.127 234.476V233.65H132.677V234.476H128.127ZM137.824 241.07C137.059 241.07 136.387 240.911 135.808 240.594C135.23 240.267 134.777 239.824 134.45 239.264C134.124 238.695 133.96 238.046 133.96 237.318C133.96 236.59 134.114 235.946 134.422 235.386C134.74 234.826 135.169 234.387 135.71 234.07C136.261 233.743 136.877 233.58 137.558 233.58C138.249 233.58 138.86 233.739 139.392 234.056C139.934 234.364 140.358 234.803 140.666 235.372C140.974 235.932 141.128 236.581 141.128 237.318C141.128 237.365 141.124 237.416 141.114 237.472C141.114 237.519 141.114 237.57 141.114 237.626H134.716V236.884H140.582L140.19 237.178C140.19 236.646 140.074 236.175 139.84 235.764C139.616 235.344 139.308 235.017 138.916 234.784C138.524 234.551 138.072 234.434 137.558 234.434C137.054 234.434 136.602 234.551 136.2 234.784C135.799 235.017 135.486 235.344 135.262 235.764C135.038 236.184 134.926 236.665 134.926 237.206V237.36C134.926 237.92 135.048 238.415 135.29 238.844C135.542 239.264 135.888 239.595 136.326 239.838C136.774 240.071 137.283 240.188 137.852 240.188C138.3 240.188 138.716 240.109 139.098 239.95C139.49 239.791 139.826 239.549 140.106 239.222L140.666 239.866C140.34 240.258 139.929 240.557 139.434 240.762C138.949 240.967 138.412 241.07 137.824 241.07ZM145.126 241.07C144.519 241.07 143.945 240.986 143.404 240.818C142.862 240.641 142.438 240.421 142.13 240.16L142.578 239.376C142.876 239.6 143.259 239.796 143.726 239.964C144.192 240.123 144.682 240.202 145.196 240.202C145.896 240.202 146.4 240.095 146.708 239.88C147.016 239.656 147.17 239.362 147.17 238.998C147.17 238.727 147.081 238.517 146.904 238.368C146.736 238.209 146.512 238.093 146.232 238.018C145.952 237.934 145.639 237.864 145.294 237.808C144.948 237.752 144.603 237.687 144.258 237.612C143.922 237.537 143.614 237.43 143.334 237.29C143.054 237.141 142.825 236.94 142.648 236.688C142.48 236.436 142.396 236.1 142.396 235.68C142.396 235.279 142.508 234.919 142.732 234.602C142.956 234.285 143.282 234.037 143.712 233.86C144.15 233.673 144.682 233.58 145.308 233.58C145.784 233.58 146.26 233.645 146.736 233.776C147.212 233.897 147.604 234.061 147.912 234.266L147.478 235.064C147.151 234.84 146.801 234.681 146.428 234.588C146.054 234.485 145.681 234.434 145.308 234.434C144.645 234.434 144.155 234.551 143.838 234.784C143.53 235.008 143.376 235.297 143.376 235.652C143.376 235.932 143.46 236.151 143.628 236.31C143.805 236.469 144.034 236.595 144.314 236.688C144.603 236.772 144.916 236.842 145.252 236.898C145.597 236.954 145.938 237.024 146.274 237.108C146.619 237.183 146.932 237.29 147.212 237.43C147.501 237.561 147.73 237.752 147.898 238.004C148.075 238.247 148.164 238.569 148.164 238.97C148.164 239.399 148.042 239.773 147.8 240.09C147.566 240.398 147.221 240.641 146.764 240.818C146.316 240.986 145.77 241.07 145.126 241.07ZM153.708 243.786C153.362 243.786 153.031 243.73 152.714 243.618C152.406 243.506 152.14 243.338 151.916 243.114L152.378 242.372C152.564 242.549 152.765 242.685 152.98 242.778C153.204 242.881 153.451 242.932 153.722 242.932C154.048 242.932 154.328 242.839 154.562 242.652C154.804 242.475 155.033 242.157 155.248 241.7L155.724 240.622L155.836 240.468L158.86 233.65H159.84L156.158 241.882C155.952 242.358 155.724 242.736 155.472 243.016C155.229 243.296 154.963 243.492 154.674 243.604C154.384 243.725 154.062 243.786 153.708 243.786ZM155.668 241.21L152.28 233.65H153.316L156.312 240.398L155.668 241.21ZM168.026 241.07C167.26 241.07 166.588 240.911 166.01 240.594C165.431 240.267 164.978 239.824 164.652 239.264C164.325 238.695 164.162 238.046 164.162 237.318C164.162 236.59 164.316 235.946 164.624 235.386C164.941 234.826 165.37 234.387 165.912 234.07C166.462 233.743 167.078 233.58 167.76 233.58C168.45 233.58 169.062 233.739 169.594 234.056C170.135 234.364 170.56 234.803 170.868 235.372C171.176 235.932 171.33 236.581 171.33 237.318C171.33 237.365 171.325 237.416 171.316 237.472C171.316 237.519 171.316 237.57 171.316 237.626H164.918V236.884H170.784L170.392 237.178C170.392 236.646 170.275 236.175 170.042 235.764C169.818 235.344 169.51 235.017 169.118 234.784C168.726 234.551 168.273 234.434 167.76 234.434C167.256 234.434 166.803 234.551 166.402 234.784C166 235.017 165.688 235.344 165.464 235.764C165.24 236.184 165.128 236.665 165.128 237.206V237.36C165.128 237.92 165.249 238.415 165.492 238.844C165.744 239.264 166.089 239.595 166.528 239.838C166.976 240.071 167.484 240.188 168.054 240.188C168.502 240.188 168.917 240.109 169.3 239.95C169.692 239.791 170.028 239.549 170.308 239.222L170.868 239.866C170.541 240.258 170.13 240.557 169.636 240.762C169.15 240.967 168.614 241.07 168.026 241.07ZM173.353 241V230.612H174.347V241H173.353ZM183.101 241.07C182.41 241.07 181.878 240.883 181.505 240.51C181.131 240.137 180.945 239.609 180.945 238.928V232.026H181.939V238.872C181.939 239.301 182.046 239.633 182.261 239.866C182.485 240.099 182.802 240.216 183.213 240.216C183.651 240.216 184.015 240.09 184.305 239.838L184.655 240.552C184.459 240.729 184.221 240.86 183.941 240.944C183.67 241.028 183.39 241.07 183.101 241.07ZM179.629 234.476V233.65H184.179V234.476H179.629ZM189.326 241.07C188.561 241.07 187.889 240.911 187.31 240.594C186.732 240.267 186.279 239.824 185.952 239.264C185.626 238.695 185.462 238.046 185.462 237.318C185.462 236.59 185.616 235.946 185.924 235.386C186.242 234.826 186.671 234.387 187.212 234.07C187.763 233.743 188.379 233.58 189.06 233.58C189.751 233.58 190.362 233.739 190.894 234.056C191.436 234.364 191.86 234.803 192.168 235.372C192.476 235.932 192.63 236.581 192.63 237.318C192.63 237.365 192.626 237.416 192.616 237.472C192.616 237.519 192.616 237.57 192.616 237.626H186.218V236.884H192.084L191.692 237.178C191.692 236.646 191.576 236.175 191.342 235.764C191.118 235.344 190.81 235.017 190.418 234.784C190.026 234.551 189.574 234.434 189.06 234.434C188.556 234.434 188.104 234.551 187.702 234.784C187.301 235.017 186.988 235.344 186.764 235.764C186.54 236.184 186.428 236.665 186.428 237.206V237.36C186.428 237.92 186.55 238.415 186.792 238.844C187.044 239.264 187.39 239.595 187.828 239.838C188.276 240.071 188.785 240.188 189.354 240.188C189.802 240.188 190.218 240.109 190.6 239.95C190.992 239.791 191.328 239.549 191.608 239.222L192.168 239.866C191.842 240.258 191.431 240.557 190.936 240.762C190.451 240.967 189.914 241.07 189.326 241.07ZM193.329 241L196.437 236.968L196.423 237.458L193.469 233.65H194.589L197.011 236.8L196.591 236.786L199.013 233.65H200.105L197.123 237.5L197.137 236.968L200.273 241H199.139L196.577 237.64L196.969 237.696L194.449 241H193.329ZM204.251 241.07C203.56 241.07 203.028 240.883 202.655 240.51C202.282 240.137 202.095 239.609 202.095 238.928V232.026H203.089V238.872C203.089 239.301 203.196 239.633 203.411 239.866C203.635 240.099 203.952 240.216 204.363 240.216C204.802 240.216 205.166 240.09 205.455 239.838L205.805 240.552C205.609 240.729 205.371 240.86 205.091 240.944C204.82 241.028 204.54 241.07 204.251 241.07ZM200.779 234.476V233.65H205.329V234.476H200.779ZM210.351 241.07C209.641 241.07 209.002 240.911 208.433 240.594C207.873 240.267 207.429 239.824 207.103 239.264C206.776 238.695 206.613 238.046 206.613 237.318C206.613 236.581 206.776 235.932 207.103 235.372C207.429 234.812 207.873 234.373 208.433 234.056C208.993 233.739 209.632 233.58 210.351 233.58C211.079 233.58 211.723 233.739 212.283 234.056C212.852 234.373 213.295 234.812 213.613 235.372C213.939 235.932 214.103 236.581 214.103 237.318C214.103 238.046 213.939 238.695 213.613 239.264C213.295 239.824 212.852 240.267 212.283 240.594C211.713 240.911 211.069 241.07 210.351 241.07ZM210.351 240.188C210.883 240.188 211.354 240.071 211.765 239.838C212.175 239.595 212.497 239.259 212.731 238.83C212.973 238.391 213.095 237.887 213.095 237.318C213.095 236.739 212.973 236.235 212.731 235.806C212.497 235.377 212.175 235.045 211.765 234.812C211.354 234.569 210.887 234.448 210.365 234.448C209.842 234.448 209.375 234.569 208.965 234.812C208.554 235.045 208.227 235.377 207.985 235.806C207.742 236.235 207.621 236.739 207.621 237.318C207.621 237.887 207.742 238.391 207.985 238.83C208.227 239.259 208.554 239.595 208.965 239.838C209.375 240.071 209.837 240.188 210.351 240.188ZM221.77 241.07C221.163 241.07 220.589 240.986 220.048 240.818C219.507 240.641 219.082 240.421 218.774 240.16L219.222 239.376C219.521 239.6 219.903 239.796 220.37 239.964C220.837 240.123 221.327 240.202 221.84 240.202C222.54 240.202 223.044 240.095 223.352 239.88C223.66 239.656 223.814 239.362 223.814 238.998C223.814 238.727 223.725 238.517 223.548 238.368C223.38 238.209 223.156 238.093 222.876 238.018C222.596 237.934 222.283 237.864 221.938 237.808C221.593 237.752 221.247 237.687 220.902 237.612C220.566 237.537 220.258 237.43 219.978 237.29C219.698 237.141 219.469 236.94 219.292 236.688C219.124 236.436 219.04 236.1 219.04 235.68C219.04 235.279 219.152 234.919 219.376 234.602C219.6 234.285 219.927 234.037 220.356 233.86C220.795 233.673 221.327 233.58 221.952 233.58C222.428 233.58 222.904 233.645 223.38 233.776C223.856 233.897 224.248 234.061 224.556 234.266L224.122 235.064C223.795 234.84 223.445 234.681 223.072 234.588C222.699 234.485 222.325 234.434 221.952 234.434C221.289 234.434 220.799 234.551 220.482 234.784C220.174 235.008 220.02 235.297 220.02 235.652C220.02 235.932 220.104 236.151 220.272 236.31C220.449 236.469 220.678 236.595 220.958 236.688C221.247 236.772 221.56 236.842 221.896 236.898C222.241 236.954 222.582 237.024 222.918 237.108C223.263 237.183 223.576 237.29 223.856 237.43C224.145 237.561 224.374 237.752 224.542 238.004C224.719 238.247 224.808 238.569 224.808 238.97C224.808 239.399 224.687 239.773 224.444 240.09C224.211 240.398 223.865 240.641 223.408 240.818C222.96 240.986 222.414 241.07 221.77 241.07ZM229.754 241.07C228.989 241.07 228.317 240.911 227.738 240.594C227.159 240.267 226.707 239.824 226.38 239.264C226.053 238.695 225.89 238.046 225.89 237.318C225.89 236.59 226.044 235.946 226.352 235.386C226.669 234.826 227.099 234.387 227.64 234.07C228.191 233.743 228.807 233.58 229.488 233.58C230.179 233.58 230.79 233.739 231.322 234.056C231.863 234.364 232.288 234.803 232.596 235.372C232.904 235.932 233.058 236.581 233.058 237.318C233.058 237.365 233.053 237.416 233.044 237.472C233.044 237.519 233.044 237.57 233.044 237.626H226.646V236.884H232.512L232.12 237.178C232.12 236.646 232.003 236.175 231.77 235.764C231.546 235.344 231.238 235.017 230.846 234.784C230.454 234.551 230.001 234.434 229.488 234.434C228.984 234.434 228.531 234.551 228.13 234.784C227.729 235.017 227.416 235.344 227.192 235.764C226.968 236.184 226.856 236.665 226.856 237.206V237.36C226.856 237.92 226.977 238.415 227.22 238.844C227.472 239.264 227.817 239.595 228.256 239.838C228.704 240.071 229.213 240.188 229.782 240.188C230.23 240.188 230.645 240.109 231.028 239.95C231.42 239.791 231.756 239.549 232.036 239.222L232.596 239.866C232.269 240.258 231.859 240.557 231.364 240.762C230.879 240.967 230.342 241.07 229.754 241.07ZM243.351 241V239.376L243.309 239.11V236.394C243.309 235.769 243.132 235.288 242.777 234.952C242.432 234.616 241.914 234.448 241.223 234.448C240.747 234.448 240.295 234.527 239.865 234.686C239.436 234.845 239.072 235.055 238.773 235.316L238.325 234.574C238.699 234.257 239.147 234.014 239.669 233.846C240.192 233.669 240.743 233.58 241.321 233.58C242.273 233.58 243.006 233.818 243.519 234.294C244.042 234.761 244.303 235.475 244.303 236.436V241H243.351ZM240.817 241.07C240.267 241.07 239.786 240.981 239.375 240.804C238.974 240.617 238.666 240.365 238.451 240.048C238.237 239.721 238.129 239.348 238.129 238.928C238.129 238.545 238.218 238.2 238.395 237.892C238.582 237.575 238.881 237.323 239.291 237.136C239.711 236.94 240.271 236.842 240.971 236.842H243.505V237.584H240.999C240.29 237.584 239.795 237.71 239.515 237.962C239.245 238.214 239.109 238.527 239.109 238.9C239.109 239.32 239.273 239.656 239.599 239.908C239.926 240.16 240.383 240.286 240.971 240.286C241.531 240.286 242.012 240.16 242.413 239.908C242.824 239.647 243.123 239.273 243.309 238.788L243.533 239.474C243.347 239.959 243.02 240.347 242.553 240.636C242.096 240.925 241.517 241.07 240.817 241.07ZM247.003 241V230.612H247.997V241H247.003ZM250.763 241V233.65H251.757V241H250.763ZM251.267 232.026C251.062 232.026 250.889 231.956 250.749 231.816C250.609 231.676 250.539 231.508 250.539 231.312C250.539 231.116 250.609 230.953 250.749 230.822C250.889 230.682 251.062 230.612 251.267 230.612C251.472 230.612 251.645 230.677 251.785 230.808C251.925 230.939 251.995 231.102 251.995 231.298C251.995 231.503 251.925 231.676 251.785 231.816C251.654 231.956 251.482 232.026 251.267 232.026ZM258.275 233.58C258.872 233.58 259.395 233.697 259.843 233.93C260.3 234.154 260.655 234.499 260.907 234.966C261.168 235.433 261.299 236.021 261.299 236.73V241H260.305V236.828C260.305 236.053 260.109 235.47 259.717 235.078C259.334 234.677 258.793 234.476 258.093 234.476C257.57 234.476 257.113 234.583 256.721 234.798C256.338 235.003 256.039 235.307 255.825 235.708C255.619 236.1 255.517 236.576 255.517 237.136V241H254.523V233.65H255.475V235.666L255.321 235.288C255.554 234.756 255.927 234.341 256.441 234.042C256.954 233.734 257.565 233.58 258.275 233.58ZM267.106 241.07C266.34 241.07 265.668 240.911 265.09 240.594C264.511 240.267 264.058 239.824 263.732 239.264C263.405 238.695 263.242 238.046 263.242 237.318C263.242 236.59 263.396 235.946 263.704 235.386C264.021 234.826 264.45 234.387 264.992 234.07C265.542 233.743 266.158 233.58 266.84 233.58C267.53 233.58 268.142 233.739 268.674 234.056C269.215 234.364 269.64 234.803 269.948 235.372C270.256 235.932 270.41 236.581 270.41 237.318C270.41 237.365 270.405 237.416 270.396 237.472C270.396 237.519 270.396 237.57 270.396 237.626H263.998V236.884H269.864L269.472 237.178C269.472 236.646 269.355 236.175 269.122 235.764C268.898 235.344 268.59 235.017 268.198 234.784C267.806 234.551 267.353 234.434 266.84 234.434C266.336 234.434 265.883 234.551 265.482 234.784C265.08 235.017 264.768 235.344 264.544 235.764C264.32 236.184 264.208 236.665 264.208 237.206V237.36C264.208 237.92 264.329 238.415 264.572 238.844C264.824 239.264 265.169 239.595 265.608 239.838C266.056 240.071 266.564 240.188 267.134 240.188C267.582 240.188 267.997 240.109 268.38 239.95C268.772 239.791 269.108 239.549 269.388 239.222L269.948 239.866C269.621 240.258 269.21 240.557 268.716 240.762C268.23 240.967 267.694 241.07 267.106 241.07ZM276.834 241V239.376L276.792 239.11V236.394C276.792 235.769 276.614 235.288 276.26 234.952C275.914 234.616 275.396 234.448 274.706 234.448C274.23 234.448 273.777 234.527 273.348 234.686C272.918 234.845 272.554 235.055 272.256 235.316L271.808 234.574C272.181 234.257 272.629 234.014 273.152 233.846C273.674 233.669 274.225 233.58 274.804 233.58C275.756 233.58 276.488 233.818 277.002 234.294C277.524 234.761 277.786 235.475 277.786 236.436V241H276.834ZM274.3 241.07C273.749 241.07 273.268 240.981 272.858 240.804C272.456 240.617 272.148 240.365 271.934 240.048C271.719 239.721 271.612 239.348 271.612 238.928C271.612 238.545 271.7 238.2 271.878 237.892C272.064 237.575 272.363 237.323 272.774 237.136C273.194 236.94 273.754 236.842 274.454 236.842H276.988V237.584H274.482C273.772 237.584 273.278 237.71 272.998 237.962C272.727 238.214 272.592 238.527 272.592 238.9C272.592 239.32 272.755 239.656 273.082 239.908C273.408 240.16 273.866 240.286 274.454 240.286C275.014 240.286 275.494 240.16 275.896 239.908C276.306 239.647 276.605 239.273 276.792 238.788L277.016 239.474C276.829 239.959 276.502 240.347 276.036 240.636C275.578 240.925 275 241.07 274.3 241.07ZM284.238 233.58C284.835 233.58 285.358 233.697 285.806 233.93C286.263 234.154 286.618 234.499 286.87 234.966C287.131 235.433 287.262 236.021 287.262 236.73V241H286.268V236.828C286.268 236.053 286.072 235.47 285.68 235.078C285.297 234.677 284.756 234.476 284.056 234.476C283.533 234.476 283.076 234.583 282.684 234.798C282.301 235.003 282.002 235.307 281.788 235.708C281.582 236.1 281.48 236.576 281.48 237.136V241H280.486V233.65H281.438V235.666L281.284 235.288C281.517 234.756 281.89 234.341 282.404 234.042C282.917 233.734 283.528 233.58 284.238 233.58ZM298.217 241V239.376L298.175 239.11V236.394C298.175 235.769 297.997 235.288 297.643 234.952C297.297 234.616 296.779 234.448 296.089 234.448C295.613 234.448 295.16 234.527 294.731 234.686C294.301 234.845 293.937 235.055 293.639 235.316L293.191 234.574C293.564 234.257 294.012 234.014 294.535 233.846C295.057 233.669 295.608 233.58 296.187 233.58C297.139 233.58 297.871 233.818 298.385 234.294C298.907 234.761 299.169 235.475 299.169 236.436V241H298.217ZM295.683 241.07C295.132 241.07 294.651 240.981 294.241 240.804C293.839 240.617 293.531 240.365 293.317 240.048C293.102 239.721 292.995 239.348 292.995 238.928C292.995 238.545 293.083 238.2 293.261 237.892C293.447 237.575 293.746 237.323 294.157 237.136C294.577 236.94 295.137 236.842 295.837 236.842H298.371V237.584H295.865C295.155 237.584 294.661 237.71 294.381 237.962C294.11 238.214 293.975 238.527 293.975 238.9C293.975 239.32 294.138 239.656 294.465 239.908C294.791 240.16 295.249 240.286 295.837 240.286C296.397 240.286 296.877 240.16 297.279 239.908C297.689 239.647 297.988 239.273 298.175 238.788L298.399 239.474C298.212 239.959 297.885 240.347 297.419 240.636C296.961 240.925 296.383 241.07 295.683 241.07ZM305.532 241V230.612H306.526V241H305.532ZM313.898 241V239.376L313.856 239.11V236.394C313.856 235.769 313.679 235.288 313.324 234.952C312.979 234.616 312.461 234.448 311.77 234.448C311.294 234.448 310.842 234.527 310.412 234.686C309.983 234.845 309.619 235.055 309.32 235.316L308.872 234.574C309.246 234.257 309.694 234.014 310.216 233.846C310.739 233.669 311.29 233.58 311.868 233.58C312.82 233.58 313.553 233.818 314.066 234.294C314.589 234.761 314.85 235.475 314.85 236.436V241H313.898ZM311.364 241.07C310.814 241.07 310.333 240.981 309.922 240.804C309.521 240.617 309.213 240.365 308.998 240.048C308.784 239.721 308.676 239.348 308.676 238.928C308.676 238.545 308.765 238.2 308.942 237.892C309.129 237.575 309.428 237.323 309.838 237.136C310.258 236.94 310.818 236.842 311.518 236.842H314.052V237.584H311.546C310.837 237.584 310.342 237.71 310.062 237.962C309.792 238.214 309.656 238.527 309.656 238.9C309.656 239.32 309.82 239.656 310.146 239.908C310.473 240.16 310.93 240.286 311.518 240.286C312.078 240.286 312.559 240.16 312.96 239.908C313.371 239.647 313.67 239.273 313.856 238.788L314.08 239.474C313.894 239.959 313.567 240.347 313.1 240.636C312.643 240.925 312.064 241.07 311.364 241.07ZM16.386 262V254.65H17.38V262H16.386ZM16.89 253.026C16.6847 253.026 16.512 252.956 16.372 252.816C16.232 252.676 16.162 252.508 16.162 252.312C16.162 252.116 16.232 251.953 16.372 251.822C16.512 251.682 16.6847 251.612 16.89 251.612C17.0953 251.612 17.268 251.677 17.408 251.808C17.548 251.939 17.618 252.102 17.618 252.298C17.618 252.503 17.548 252.676 17.408 252.816C17.2773 252.956 17.1047 253.026 16.89 253.026ZM19.3478 262V261.342L24.2478 255.14L24.4578 255.476H19.4318V254.65H25.2418V255.294L20.3558 261.51L20.1038 261.174H25.3398V262H19.3478ZM30.0991 262.07C29.3991 262.07 28.7691 261.911 28.2091 261.594C27.6584 261.277 27.2244 260.838 26.9071 260.278C26.5898 259.718 26.4311 259.065 26.4311 258.318C26.4311 257.581 26.5898 256.932 26.9071 256.372C27.2244 255.803 27.6584 255.364 28.2091 255.056C28.7691 254.739 29.3991 254.58 30.0991 254.58C30.7524 254.58 31.3311 254.725 31.8351 255.014C32.3484 255.303 32.7544 255.728 33.0531 256.288C33.3518 256.839 33.5011 257.515 33.5011 258.318C33.5011 259.121 33.3471 259.802 33.0391 260.362C32.7404 260.913 32.3344 261.337 31.8211 261.636C31.3171 261.925 30.7431 262.07 30.0991 262.07ZM30.1691 261.188C30.6918 261.188 31.1584 261.071 31.5691 260.838C31.9891 260.595 32.3158 260.259 32.5491 259.83C32.7918 259.391 32.9131 258.887 32.9131 258.318C32.9131 257.749 32.7918 257.249 32.5491 256.82C32.3158 256.391 31.9891 256.055 31.5691 255.812C31.1584 255.569 30.6918 255.448 30.1691 255.448C29.6558 255.448 29.1938 255.569 28.7831 255.812C28.3724 256.055 28.0458 256.391 27.8031 256.82C27.5604 257.249 27.4391 257.749 27.4391 258.318C27.4391 258.887 27.5604 259.391 27.8031 259.83C28.0458 260.259 28.3724 260.595 28.7831 260.838C29.1938 261.071 29.6558 261.188 30.1691 261.188ZM32.8991 264.716V259.816L33.0391 258.332L32.9411 256.862V254.65H33.8931V264.716H32.8991ZM39.6994 262.07C39.0741 262.07 38.5281 261.953 38.0614 261.72C37.5947 261.487 37.2307 261.137 36.9694 260.67C36.7174 260.203 36.5914 259.62 36.5914 258.92V254.65H37.5854V258.808C37.5854 259.592 37.7767 260.185 38.1594 260.586C38.5514 260.978 39.0974 261.174 39.7974 261.174C40.3107 261.174 40.7541 261.071 41.1274 260.866C41.5101 260.651 41.7994 260.343 41.9954 259.942C42.2007 259.541 42.3034 259.06 42.3034 258.5V254.65H43.2974V262H42.3454V259.984L42.4994 260.348C42.2661 260.889 41.9021 261.314 41.4074 261.622C40.9221 261.921 40.3527 262.07 39.6994 262.07ZM46.0676 262V254.65H47.0616V262H46.0676ZM46.5716 253.026C46.3663 253.026 46.1936 252.956 46.0536 252.816C45.9136 252.676 45.8436 252.508 45.8436 252.312C45.8436 252.116 45.9136 251.953 46.0536 251.822C46.1936 251.682 46.3663 251.612 46.5716 251.612C46.777 251.612 46.9496 251.677 47.0896 251.808C47.2296 251.939 47.2996 252.102 47.2996 252.298C47.2996 252.503 47.2296 252.676 47.0896 252.816C46.959 252.956 46.7863 253.026 46.5716 253.026ZM52.9494 262.07C52.1841 262.07 51.5121 261.911 50.9334 261.594C50.3547 261.267 49.9021 260.824 49.5754 260.264C49.2487 259.695 49.0854 259.046 49.0854 258.318C49.0854 257.59 49.2394 256.946 49.5474 256.386C49.8647 255.826 50.2941 255.387 50.8354 255.07C51.3861 254.743 52.0021 254.58 52.6834 254.58C53.3741 254.58 53.9854 254.739 54.5174 255.056C55.0587 255.364 55.4834 255.803 55.7914 256.372C56.0994 256.932 56.2534 257.581 56.2534 258.318C56.2534 258.365 56.2487 258.416 56.2394 258.472C56.2394 258.519 56.2394 258.57 56.2394 258.626H49.8414V257.884H55.7074L55.3154 258.178C55.3154 257.646 55.1987 257.175 54.9654 256.764C54.7414 256.344 54.4334 256.017 54.0414 255.784C53.6494 255.551 53.1967 255.434 52.6834 255.434C52.1794 255.434 51.7267 255.551 51.3254 255.784C50.9241 256.017 50.6114 256.344 50.3874 256.764C50.1634 257.184 50.0514 257.665 50.0514 258.206V258.36C50.0514 258.92 50.1727 259.415 50.4154 259.844C50.6674 260.264 51.0127 260.595 51.4514 260.838C51.8994 261.071 52.4081 261.188 52.9774 261.188C53.4254 261.188 53.8407 261.109 54.2234 260.95C54.6154 260.791 54.9514 260.549 55.2314 260.222L55.7914 260.866C55.4647 261.258 55.0541 261.557 54.5594 261.762C54.0741 261.967 53.5374 262.07 52.9494 262.07ZM58.2766 262V254.65H59.2286V256.652L59.1306 256.302C59.336 255.742 59.6813 255.317 60.1666 255.028C60.652 254.729 61.254 254.58 61.9726 254.58V255.546C61.9353 255.546 61.898 255.546 61.8606 255.546C61.8233 255.537 61.786 255.532 61.7486 255.532C60.974 255.532 60.3673 255.77 59.9286 256.246C59.49 256.713 59.2706 257.38 59.2706 258.248V262H58.2766ZM66.644 262.07C65.944 262.07 65.314 261.911 64.754 261.594C64.2034 261.277 63.7694 260.838 63.452 260.278C63.1347 259.709 62.976 259.055 62.976 258.318C62.976 257.571 63.1347 256.918 63.452 256.358C63.7694 255.798 64.2034 255.364 64.754 255.056C65.314 254.739 65.944 254.58 66.644 254.58C67.288 254.58 67.862 254.725 68.366 255.014C68.8794 255.303 69.2854 255.728 69.584 256.288C69.892 256.839 70.046 257.515 70.046 258.318C70.046 259.111 69.8967 259.788 69.598 260.348C69.2994 260.908 68.8934 261.337 68.38 261.636C67.876 261.925 67.2974 262.07 66.644 262.07ZM66.714 261.188C67.2367 261.188 67.7034 261.071 68.114 260.838C68.534 260.595 68.8607 260.259 69.094 259.83C69.3367 259.391 69.458 258.887 69.458 258.318C69.458 257.739 69.3367 257.235 69.094 256.806C68.8607 256.377 68.534 256.045 68.114 255.812C67.7034 255.569 67.2367 255.448 66.714 255.448C66.2007 255.448 65.7387 255.569 65.328 255.812C64.9174 256.045 64.5907 256.377 64.348 256.806C64.1054 257.235 63.984 257.739 63.984 258.318C63.984 258.887 64.1054 259.391 64.348 259.83C64.5907 260.259 64.9174 260.595 65.328 260.838C65.7387 261.071 66.2007 261.188 66.714 261.188ZM69.486 262V259.788L69.584 258.304L69.444 256.82V251.612H70.438V262H69.486ZM77.8123 262V260.376L77.7703 260.11V257.394C77.7703 256.769 77.593 256.288 77.2383 255.952C76.893 255.616 76.375 255.448 75.6843 255.448C75.2083 255.448 74.7556 255.527 74.3263 255.686C73.897 255.845 73.533 256.055 73.2343 256.316L72.7863 255.574C73.1596 255.257 73.6076 255.014 74.1303 254.846C74.653 254.669 75.2036 254.58 75.7823 254.58C76.7343 254.58 77.467 254.818 77.9803 255.294C78.503 255.761 78.7643 256.475 78.7643 257.436V262H77.8123ZM75.2783 262.07C74.7276 262.07 74.247 261.981 73.8363 261.804C73.435 261.617 73.127 261.365 72.9123 261.048C72.6976 260.721 72.5903 260.348 72.5903 259.928C72.5903 259.545 72.679 259.2 72.8563 258.892C73.043 258.575 73.3416 258.323 73.7523 258.136C74.1723 257.94 74.7323 257.842 75.4323 257.842H77.9663V258.584H75.4603C74.751 258.584 74.2563 258.71 73.9763 258.962C73.7056 259.214 73.5703 259.527 73.5703 259.9C73.5703 260.32 73.7336 260.656 74.0603 260.908C74.387 261.16 74.8443 261.286 75.4323 261.286C75.9923 261.286 76.473 261.16 76.8743 260.908C77.285 260.647 77.5836 260.273 77.7703 259.788L77.9943 260.474C77.8076 260.959 77.481 261.347 77.0143 261.636C76.557 261.925 75.9783 262.07 75.2783 262.07ZM87.1022 262.07C86.4955 262.07 85.9215 261.986 85.3802 261.818C84.8389 261.641 84.4142 261.421 84.1062 261.16L84.5542 260.376C84.8529 260.6 85.2355 260.796 85.7022 260.964C86.1689 261.123 86.6589 261.202 87.1722 261.202C87.8722 261.202 88.3762 261.095 88.6842 260.88C88.9922 260.656 89.1462 260.362 89.1462 259.998C89.1462 259.727 89.0575 259.517 88.8802 259.368C88.7122 259.209 88.4882 259.093 88.2082 259.018C87.9282 258.934 87.6155 258.864 87.2702 258.808C86.9249 258.752 86.5795 258.687 86.2342 258.612C85.8982 258.537 85.5902 258.43 85.3102 258.29C85.0302 258.141 84.8015 257.94 84.6242 257.688C84.4562 257.436 84.3722 257.1 84.3722 256.68C84.3722 256.279 84.4842 255.919 84.7082 255.602C84.9322 255.285 85.2589 255.037 85.6882 254.86C86.1269 254.673 86.6589 254.58 87.2842 254.58C87.7602 254.58 88.2362 254.645 88.7122 254.776C89.1882 254.897 89.5802 255.061 89.8882 255.266L89.4542 256.064C89.1275 255.84 88.7775 255.681 88.4042 255.588C88.0309 255.485 87.6575 255.434 87.2842 255.434C86.6215 255.434 86.1315 255.551 85.8142 255.784C85.5062 256.008 85.3522 256.297 85.3522 256.652C85.3522 256.932 85.4362 257.151 85.6042 257.31C85.7815 257.469 86.0102 257.595 86.2902 257.688C86.5795 257.772 86.8922 257.842 87.2282 257.898C87.5735 257.954 87.9142 258.024 88.2502 258.108C88.5955 258.183 88.9082 258.29 89.1882 258.43C89.4775 258.561 89.7062 258.752 89.8742 259.004C90.0515 259.247 90.1402 259.569 90.1402 259.97C90.1402 260.399 90.0189 260.773 89.7762 261.09C89.5429 261.398 89.1975 261.641 88.7402 261.818C88.2922 261.986 87.7462 262.07 87.1022 262.07ZM91.9641 262V254.65H92.9581V262H91.9641ZM92.4681 253.026C92.2628 253.026 92.0901 252.956 91.9501 252.816C91.8101 252.676 91.7401 252.508 91.7401 252.312C91.7401 252.116 91.8101 251.953 91.9501 251.822C92.0901 251.682 92.2628 251.612 92.4681 251.612C92.6735 251.612 92.8461 251.677 92.9861 251.808C93.1261 251.939 93.1961 252.102 93.1961 252.298C93.1961 252.503 93.1261 252.676 92.9861 252.816C92.8555 252.956 92.6828 253.026 92.4681 253.026ZM98.8599 264.786C98.1879 264.786 97.5439 264.688 96.9279 264.492C96.3119 264.296 95.8126 264.016 95.4299 263.652L95.9339 262.896C96.2792 263.204 96.7039 263.447 97.2079 263.624C97.7212 263.811 98.2626 263.904 98.8319 263.904C99.7652 263.904 100.451 263.685 100.89 263.246C101.329 262.817 101.548 262.145 101.548 261.23V259.396L101.688 258.136L101.59 256.876V254.65H102.542V261.104C102.542 262.373 102.229 263.302 101.604 263.89C100.988 264.487 100.073 264.786 98.8599 264.786ZM98.6779 261.72C97.9779 261.72 97.3479 261.571 96.7879 261.272C96.2279 260.964 95.7846 260.539 95.4579 259.998C95.1406 259.457 94.9819 258.836 94.9819 258.136C94.9819 257.436 95.1406 256.82 95.4579 256.288C95.7846 255.747 96.2279 255.327 96.7879 255.028C97.3479 254.729 97.9779 254.58 98.6779 254.58C99.3312 254.58 99.9192 254.715 100.442 254.986C100.965 255.257 101.38 255.658 101.688 256.19C101.996 256.722 102.15 257.371 102.15 258.136C102.15 258.901 101.996 259.55 101.688 260.082C101.38 260.614 100.965 261.02 100.442 261.3C99.9192 261.58 99.3312 261.72 98.6779 261.72ZM98.7759 260.838C99.3172 260.838 99.7979 260.726 100.218 260.502C100.638 260.269 100.969 259.951 101.212 259.55C101.455 259.139 101.576 258.668 101.576 258.136C101.576 257.604 101.455 257.137 101.212 256.736C100.969 256.335 100.638 256.022 100.218 255.798C99.7979 255.565 99.3172 255.448 98.7759 255.448C98.2439 255.448 97.7632 255.565 97.3339 255.798C96.9139 256.022 96.5826 256.335 96.3399 256.736C96.1066 257.137 95.9899 257.604 95.9899 258.136C95.9899 258.668 96.1066 259.139 96.3399 259.55C96.5826 259.951 96.9139 260.269 97.3339 260.502C97.7632 260.726 98.2439 260.838 98.7759 260.838ZM108.346 262.07C107.721 262.07 107.175 261.953 106.708 261.72C106.241 261.487 105.877 261.137 105.616 260.67C105.364 260.203 105.238 259.62 105.238 258.92V254.65H106.232V258.808C106.232 259.592 106.423 260.185 106.806 260.586C107.198 260.978 107.744 261.174 108.444 261.174C108.957 261.174 109.401 261.071 109.774 260.866C110.157 260.651 110.446 260.343 110.642 259.942C110.847 259.541 110.95 259.06 110.95 258.5V254.65H111.944V262H110.992V259.984L111.146 260.348C110.913 260.889 110.549 261.314 110.054 261.622C109.569 261.921 108.999 262.07 108.346 262.07ZM114.714 262V254.65H115.708V262H114.714ZM115.218 253.026C115.013 253.026 114.84 252.956 114.7 252.816C114.56 252.676 114.49 252.508 114.49 252.312C114.49 252.116 114.56 251.953 114.7 251.822C114.84 251.682 115.013 251.612 115.218 251.612C115.423 251.612 115.596 251.677 115.736 251.808C115.876 251.939 115.946 252.102 115.946 252.298C115.946 252.503 115.876 252.676 115.736 252.816C115.605 252.956 115.433 253.026 115.218 253.026ZM121.596 262.07C120.831 262.07 120.159 261.911 119.58 261.594C119.001 261.267 118.549 260.824 118.222 260.264C117.895 259.695 117.732 259.046 117.732 258.318C117.732 257.59 117.886 256.946 118.194 256.386C118.511 255.826 118.941 255.387 119.482 255.07C120.033 254.743 120.649 254.58 121.33 254.58C122.021 254.58 122.632 254.739 123.164 255.056C123.705 255.364 124.13 255.803 124.438 256.372C124.746 256.932 124.9 257.581 124.9 258.318C124.9 258.365 124.895 258.416 124.886 258.472C124.886 258.519 124.886 258.57 124.886 258.626H118.488V257.884H124.354L123.962 258.178C123.962 257.646 123.845 257.175 123.612 256.764C123.388 256.344 123.08 256.017 122.688 255.784C122.296 255.551 121.843 255.434 121.33 255.434C120.826 255.434 120.373 255.551 119.972 255.784C119.571 256.017 119.258 256.344 119.034 256.764C118.81 257.184 118.698 257.665 118.698 258.206V258.36C118.698 258.92 118.819 259.415 119.062 259.844C119.314 260.264 119.659 260.595 120.098 260.838C120.546 261.071 121.055 261.188 121.624 261.188C122.072 261.188 122.487 261.109 122.87 260.95C123.262 260.791 123.598 260.549 123.878 260.222L124.438 260.866C124.111 261.258 123.701 261.557 123.206 261.762C122.721 261.967 122.184 262.07 121.596 262.07ZM130.675 254.58C131.272 254.58 131.795 254.697 132.243 254.93C132.7 255.154 133.055 255.499 133.307 255.966C133.568 256.433 133.699 257.021 133.699 257.73V262H132.705V257.828C132.705 257.053 132.509 256.47 132.117 256.078C131.734 255.677 131.193 255.476 130.493 255.476C129.97 255.476 129.513 255.583 129.121 255.798C128.738 256.003 128.44 256.307 128.225 256.708C128.02 257.1 127.917 257.576 127.917 258.136V262H126.923V254.65H127.875V256.666L127.721 256.288C127.954 255.756 128.328 255.341 128.841 255.042C129.354 254.734 129.966 254.58 130.675 254.58ZM139.31 262.07C138.61 262.07 137.98 261.911 137.42 261.594C136.869 261.277 136.435 260.838 136.118 260.278C135.801 259.709 135.642 259.055 135.642 258.318C135.642 257.571 135.801 256.918 136.118 256.358C136.435 255.798 136.869 255.364 137.42 255.056C137.98 254.739 138.61 254.58 139.31 254.58C139.954 254.58 140.528 254.725 141.032 255.014C141.545 255.303 141.951 255.728 142.25 256.288C142.558 256.839 142.712 257.515 142.712 258.318C142.712 259.111 142.563 259.788 142.264 260.348C141.965 260.908 141.559 261.337 141.046 261.636C140.542 261.925 139.963 262.07 139.31 262.07ZM139.38 261.188C139.903 261.188 140.369 261.071 140.78 260.838C141.2 260.595 141.527 260.259 141.76 259.83C142.003 259.391 142.124 258.887 142.124 258.318C142.124 257.739 142.003 257.235 141.76 256.806C141.527 256.377 141.2 256.045 140.78 255.812C140.369 255.569 139.903 255.448 139.38 255.448C138.867 255.448 138.405 255.569 137.994 255.812C137.583 256.045 137.257 256.377 137.014 256.806C136.771 257.235 136.65 257.739 136.65 258.318C136.65 258.887 136.771 259.391 137.014 259.83C137.257 260.259 137.583 260.595 137.994 260.838C138.405 261.071 138.867 261.188 139.38 261.188ZM142.152 262V259.788L142.25 258.304L142.11 256.82V251.612H143.104V262H142.152ZM148.868 262.07C148.159 262.07 147.52 261.911 146.95 261.594C146.39 261.267 145.947 260.824 145.62 260.264C145.294 259.695 145.13 259.046 145.13 258.318C145.13 257.581 145.294 256.932 145.62 256.372C145.947 255.812 146.39 255.373 146.95 255.056C147.51 254.739 148.15 254.58 148.868 254.58C149.596 254.58 150.24 254.739 150.8 255.056C151.37 255.373 151.813 255.812 152.13 256.372C152.457 256.932 152.62 257.581 152.62 258.318C152.62 259.046 152.457 259.695 152.13 260.264C151.813 260.824 151.37 261.267 150.8 261.594C150.231 261.911 149.587 262.07 148.868 262.07ZM148.868 261.188C149.4 261.188 149.872 261.071 150.282 260.838C150.693 260.595 151.015 260.259 151.248 259.83C151.491 259.391 151.612 258.887 151.612 258.318C151.612 257.739 151.491 257.235 151.248 256.806C151.015 256.377 150.693 256.045 150.282 255.812C149.872 255.569 149.405 255.448 148.882 255.448C148.36 255.448 147.893 255.569 147.482 255.812C147.072 256.045 146.745 256.377 146.502 256.806C146.26 257.235 146.138 257.739 146.138 258.318C146.138 258.887 146.26 259.391 146.502 259.83C146.745 260.259 147.072 260.595 147.482 260.838C147.893 261.071 148.355 261.188 148.868 261.188ZM161.436 262.07C160.67 262.07 159.998 261.911 159.42 261.594C158.841 261.267 158.388 260.824 158.062 260.264C157.735 259.695 157.572 259.046 157.572 258.318C157.572 257.59 157.726 256.946 158.034 256.386C158.351 255.826 158.78 255.387 159.322 255.07C159.872 254.743 160.488 254.58 161.17 254.58C161.86 254.58 162.472 254.739 163.004 255.056C163.545 255.364 163.97 255.803 164.278 256.372C164.586 256.932 164.74 257.581 164.74 258.318C164.74 258.365 164.735 258.416 164.726 258.472C164.726 258.519 164.726 258.57 164.726 258.626H158.328V257.884H164.194L163.802 258.178C163.802 257.646 163.685 257.175 163.452 256.764C163.228 256.344 162.92 256.017 162.528 255.784C162.136 255.551 161.683 255.434 161.17 255.434C160.666 255.434 160.213 255.551 159.812 255.784C159.41 256.017 159.098 256.344 158.874 256.764C158.65 257.184 158.538 257.665 158.538 258.206V258.36C158.538 258.92 158.659 259.415 158.902 259.844C159.154 260.264 159.499 260.595 159.938 260.838C160.386 261.071 160.894 261.188 161.464 261.188C161.912 261.188 162.327 261.109 162.71 260.95C163.102 260.791 163.438 260.549 163.718 260.222L164.278 260.866C163.951 261.258 163.54 261.557 163.046 261.762C162.56 261.967 162.024 262.07 161.436 262.07ZM166.763 262V251.612H167.757V262H166.763ZM177.323 264.786C176.651 264.786 176.007 264.688 175.391 264.492C174.775 264.296 174.275 264.016 173.893 263.652L174.397 262.896C174.742 263.204 175.167 263.447 175.671 263.624C176.184 263.811 176.725 263.904 177.295 263.904C178.228 263.904 178.914 263.685 179.353 263.246C179.791 262.817 180.011 262.145 180.011 261.23V259.396L180.151 258.136L180.053 256.876V254.65H181.005V261.104C181.005 262.373 180.692 263.302 180.067 263.89C179.451 264.487 178.536 264.786 177.323 264.786ZM177.141 261.72C176.441 261.72 175.811 261.571 175.251 261.272C174.691 260.964 174.247 260.539 173.921 259.998C173.603 259.457 173.445 258.836 173.445 258.136C173.445 257.436 173.603 256.82 173.921 256.288C174.247 255.747 174.691 255.327 175.251 255.028C175.811 254.729 176.441 254.58 177.141 254.58C177.794 254.58 178.382 254.715 178.905 254.986C179.427 255.257 179.843 255.658 180.151 256.19C180.459 256.722 180.613 257.371 180.613 258.136C180.613 258.901 180.459 259.55 180.151 260.082C179.843 260.614 179.427 261.02 178.905 261.3C178.382 261.58 177.794 261.72 177.141 261.72ZM177.239 260.838C177.78 260.838 178.261 260.726 178.681 260.502C179.101 260.269 179.432 259.951 179.675 259.55C179.917 259.139 180.039 258.668 180.039 258.136C180.039 257.604 179.917 257.137 179.675 256.736C179.432 256.335 179.101 256.022 178.681 255.798C178.261 255.565 177.78 255.448 177.239 255.448C176.707 255.448 176.226 255.565 175.797 255.798C175.377 256.022 175.045 256.335 174.803 256.736C174.569 257.137 174.453 257.604 174.453 258.136C174.453 258.668 174.569 259.139 174.803 259.55C175.045 259.951 175.377 260.269 175.797 260.502C176.226 260.726 176.707 260.838 177.239 260.838ZM183.771 262V254.65H184.723V256.652L184.625 256.302C184.83 255.742 185.175 255.317 185.661 255.028C186.146 254.729 186.748 254.58 187.467 254.58V255.546C187.429 255.546 187.392 255.546 187.355 255.546C187.317 255.537 187.28 255.532 187.243 255.532C186.468 255.532 185.861 255.77 185.423 256.246C184.984 256.713 184.765 257.38 184.765 258.248V262H183.771ZM189.281 262V254.65H190.275V262H189.281ZM189.785 253.026C189.579 253.026 189.407 252.956 189.267 252.816C189.127 252.676 189.057 252.508 189.057 252.312C189.057 252.116 189.127 251.953 189.267 251.822C189.407 251.682 189.579 251.612 189.785 251.612C189.99 251.612 190.163 251.677 190.303 251.808C190.443 251.939 190.513 252.102 190.513 252.298C190.513 252.503 190.443 252.676 190.303 252.816C190.172 252.956 189.999 253.026 189.785 253.026ZM195.966 262.07C195.266 262.07 194.636 261.911 194.076 261.594C193.526 261.277 193.092 260.838 192.774 260.278C192.457 259.709 192.298 259.055 192.298 258.318C192.298 257.571 192.457 256.918 192.774 256.358C193.092 255.798 193.526 255.364 194.076 255.056C194.636 254.739 195.266 254.58 195.966 254.58C196.61 254.58 197.184 254.725 197.688 255.014C198.202 255.303 198.608 255.728 198.906 256.288C199.214 256.839 199.368 257.515 199.368 258.318C199.368 259.111 199.219 259.788 198.92 260.348C198.622 260.908 198.216 261.337 197.702 261.636C197.198 261.925 196.62 262.07 195.966 262.07ZM196.036 261.188C196.559 261.188 197.026 261.071 197.436 260.838C197.856 260.595 198.183 260.259 198.416 259.83C198.659 259.391 198.78 258.887 198.78 258.318C198.78 257.739 198.659 257.235 198.416 256.806C198.183 256.377 197.856 256.045 197.436 255.812C197.026 255.569 196.559 255.448 196.036 255.448C195.523 255.448 195.061 255.569 194.65 255.812C194.24 256.045 193.913 256.377 193.67 256.806C193.428 257.235 193.306 257.739 193.306 258.318C193.306 258.887 193.428 259.391 193.67 259.83C193.913 260.259 194.24 260.595 194.65 260.838C195.061 261.071 195.523 261.188 196.036 261.188ZM198.808 262V259.788L198.906 258.304L198.766 256.82V251.612H199.76V262H198.808ZM208.083 262L204.821 254.65H205.857L208.853 261.468H208.363L211.401 254.65H212.381L209.105 262H208.083ZM216.697 262.07C215.932 262.07 215.26 261.911 214.681 261.594C214.103 261.267 213.65 260.824 213.323 260.264C212.997 259.695 212.833 259.046 212.833 258.318C212.833 257.59 212.987 256.946 213.295 256.386C213.613 255.826 214.042 255.387 214.583 255.07C215.134 254.743 215.75 254.58 216.431 254.58C217.122 254.58 217.733 254.739 218.265 255.056C218.807 255.364 219.231 255.803 219.539 256.372C219.847 256.932 220.001 257.581 220.001 258.318C220.001 258.365 219.997 258.416 219.987 258.472C219.987 258.519 219.987 258.57 219.987 258.626H213.589V257.884H219.455L219.063 258.178C219.063 257.646 218.947 257.175 218.713 256.764C218.489 256.344 218.181 256.017 217.789 255.784C217.397 255.551 216.945 255.434 216.431 255.434C215.927 255.434 215.475 255.551 215.073 255.784C214.672 256.017 214.359 256.344 214.135 256.764C213.911 257.184 213.799 257.665 213.799 258.206V258.36C213.799 258.92 213.921 259.415 214.163 259.844C214.415 260.264 214.761 260.595 215.199 260.838C215.647 261.071 216.156 261.188 216.725 261.188C217.173 261.188 217.589 261.109 217.971 260.95C218.363 260.791 218.699 260.549 218.979 260.222L219.539 260.866C219.213 261.258 218.802 261.557 218.307 261.762C217.822 261.967 217.285 262.07 216.697 262.07ZM222.025 262V254.65H222.977V256.652L222.879 256.302C223.084 255.742 223.429 255.317 223.915 255.028C224.4 254.729 225.002 254.58 225.721 254.58V255.546C225.683 255.546 225.646 255.546 225.609 255.546C225.571 255.537 225.534 255.532 225.497 255.532C224.722 255.532 224.115 255.77 223.677 256.246C223.238 256.713 223.019 257.38 223.019 258.248V262H222.025ZM230.173 262.07C229.482 262.07 228.95 261.883 228.577 261.51C228.204 261.137 228.017 260.609 228.017 259.928V253.026H229.011V259.872C229.011 260.301 229.118 260.633 229.333 260.866C229.557 261.099 229.874 261.216 230.285 261.216C230.724 261.216 231.088 261.09 231.377 260.838L231.727 261.552C231.531 261.729 231.293 261.86 231.013 261.944C230.742 262.028 230.462 262.07 230.173 262.07ZM226.701 255.476V254.65H231.251V255.476H226.701ZM233.536 262V254.65H234.53V262H233.536ZM234.04 253.026C233.835 253.026 233.662 252.956 233.522 252.816C233.382 252.676 233.312 252.508 233.312 252.312C233.312 252.116 233.382 251.953 233.522 251.822C233.662 251.682 233.835 251.612 234.04 251.612C234.246 251.612 234.418 251.677 234.558 251.808C234.698 251.939 234.768 252.102 234.768 252.298C234.768 252.503 234.698 252.676 234.558 252.816C234.428 252.956 234.255 253.026 234.04 253.026ZM240.348 262.07C239.62 262.07 238.967 261.911 238.388 261.594C237.819 261.267 237.371 260.824 237.044 260.264C236.717 259.695 236.554 259.046 236.554 258.318C236.554 257.581 236.717 256.932 237.044 256.372C237.371 255.812 237.819 255.373 238.388 255.056C238.967 254.739 239.62 254.58 240.348 254.58C240.973 254.58 241.538 254.701 242.042 254.944C242.546 255.187 242.943 255.551 243.232 256.036L242.49 256.54C242.238 256.167 241.925 255.891 241.552 255.714C241.179 255.537 240.773 255.448 240.334 255.448C239.811 255.448 239.34 255.569 238.92 255.812C238.5 256.045 238.169 256.377 237.926 256.806C237.683 257.235 237.562 257.739 237.562 258.318C237.562 258.897 237.683 259.401 237.926 259.83C238.169 260.259 238.5 260.595 238.92 260.838C239.34 261.071 239.811 261.188 240.334 261.188C240.773 261.188 241.179 261.099 241.552 260.922C241.925 260.745 242.238 260.474 242.49 260.11L243.232 260.614C242.943 261.09 242.546 261.454 242.042 261.706C241.538 261.949 240.973 262.07 240.348 262.07ZM249.791 262V260.376L249.749 260.11V257.394C249.749 256.769 249.571 256.288 249.217 255.952C248.871 255.616 248.353 255.448 247.663 255.448C247.187 255.448 246.734 255.527 246.305 255.686C245.875 255.845 245.511 256.055 245.213 256.316L244.765 255.574C245.138 255.257 245.586 255.014 246.109 254.846C246.631 254.669 247.182 254.58 247.761 254.58C248.713 254.58 249.445 254.818 249.959 255.294C250.481 255.761 250.743 256.475 250.743 257.436V262H249.791ZM247.257 262.07C246.706 262.07 246.225 261.981 245.815 261.804C245.413 261.617 245.105 261.365 244.891 261.048C244.676 260.721 244.569 260.348 244.569 259.928C244.569 259.545 244.657 259.2 244.835 258.892C245.021 258.575 245.32 258.323 245.731 258.136C246.151 257.94 246.711 257.842 247.411 257.842H249.945V258.584H247.439C246.729 258.584 246.235 258.71 245.955 258.962C245.684 259.214 245.549 259.527 245.549 259.9C245.549 260.32 245.712 260.656 246.039 260.908C246.365 261.16 246.823 261.286 247.411 261.286C247.971 261.286 248.451 261.16 248.853 260.908C249.263 260.647 249.562 260.273 249.749 259.788L249.973 260.474C249.786 260.959 249.459 261.347 248.993 261.636C248.535 261.925 247.957 262.07 247.257 262.07ZM253.443 262V251.612H254.437V262H253.443ZM257.3 262.07C257.095 262.07 256.918 261.995 256.768 261.846C256.628 261.697 256.558 261.515 256.558 261.3C256.558 261.076 256.628 260.894 256.768 260.754C256.918 260.614 257.095 260.544 257.3 260.544C257.506 260.544 257.678 260.614 257.818 260.754C257.968 260.894 258.042 261.076 258.042 261.3C258.042 261.515 257.968 261.697 257.818 261.846C257.678 261.995 257.506 262.07 257.3 262.07Z" fill="#222D44"/>
<circle cx="314" cy="21" r="21" fill="white"/>
<path d="M299.192 21.0001C299.192 12.8211 305.821 6.19238 314 6.19238C322.179 6.19238 328.808 12.8211 328.808 21.0001C328.808 29.179 322.179 35.8078 314 35.8078C305.821 35.8078 299.192 29.179 299.192 21.0001ZM320.698 18.4434C321.329 17.8129 321.329 16.7834 320.698 16.1529C320.068 15.5224 319.038 15.5224 318.408 16.1529L312.149 22.4114L309.592 19.8548C308.962 19.2243 307.932 19.2243 307.302 19.8548C306.671 20.4853 306.671 21.5149 307.302 22.1454L311.004 25.8473C311.634 26.4778 312.664 26.4778 313.294 25.8473L320.698 18.4434Z" fill="#019155"/>
<defs>
<clipPath id="clip0_1670_1627">
<rect width="208" height="175" fill="white" transform="translate(70 29.5)"/>
</clipPath>
<clipPath id="clip1_1670_1627">
<rect width="430" height="229" fill="white" transform="translate(70 36.8584)"/>
</clipPath>
</defs>
</svg>
