<svg width="225" height="64" viewBox="0 0 225 64" fill="none" xmlns="http://www.w3.org/2000/svg">
<path d="M1.504 16H9.44V14.24H3.584V4.8H1.504V16ZM14.2323 7.36C12.8563 7.36 11.5283 7.712 10.6163 8.416L11.4003 9.872C12.0403 9.344 13.0323 9.024 13.9923 9.024C15.4163 9.024 16.1203 9.712 16.1203 10.88V11.008H13.9123C11.3203 11.008 10.3603 12.128 10.3603 13.552C10.3603 15.04 11.5923 16.112 13.5443 16.112C14.8243 16.112 15.7523 15.696 16.2323 14.96V16H18.1203V10.992C18.1203 8.528 16.6963 7.36 14.2323 7.36ZM13.9603 14.656C12.9363 14.656 12.3283 14.192 12.3283 13.472C12.3283 12.848 12.6963 12.336 14.0563 12.336H16.1203V13.328C15.7843 14.208 14.9363 14.656 13.9603 14.656ZM25.423 7.36C24.335 7.36 23.375 7.728 22.687 8.496V4.128H20.687V16H22.591V14.896C23.263 15.712 24.255 16.112 25.423 16.112C27.919 16.112 29.759 14.384 29.759 11.728C29.759 9.072 27.919 7.36 25.423 7.36ZM25.199 14.4C23.759 14.4 22.655 13.36 22.655 11.728C22.655 10.096 23.759 9.056 25.199 9.056C26.639 9.056 27.727 10.096 27.727 11.728C27.727 13.36 26.639 14.4 25.199 14.4ZM39.6878 11.776C39.6878 9.104 37.8638 7.36 35.3678 7.36C32.8238 7.36 30.9518 9.184 30.9518 11.728C30.9518 14.272 32.8078 16.112 35.6718 16.112C37.1438 16.112 38.3438 15.632 39.1118 14.72L38.0398 13.488C37.4318 14.112 36.6798 14.416 35.7198 14.416C34.2318 14.416 33.1918 13.616 32.9518 12.368H39.6558C39.6718 12.176 39.6878 11.936 39.6878 11.776ZM35.3678 8.96C36.6798 8.96 37.6238 9.808 37.7838 11.04H32.9358C33.1278 9.792 34.0718 8.96 35.3678 8.96ZM41.6089 16H43.6089V4.128H41.6089V16ZM55.5038 7.36C54.2558 7.36 53.2158 7.776 52.5598 8.56V7.456H50.6558V16H52.6558V11.68C52.6558 9.968 53.6158 9.104 55.0398 9.104C56.3198 9.104 57.0718 9.84 57.0718 11.36V16H59.0718V11.104C59.0718 8.528 57.5518 7.36 55.5038 7.36ZM64.8729 7.36C63.4969 7.36 62.1689 7.712 61.2569 8.416L62.0409 9.872C62.6809 9.344 63.6729 9.024 64.6329 9.024C66.0569 9.024 66.7609 9.712 66.7609 10.88V11.008H64.5529C61.9609 11.008 61.0009 12.128 61.0009 13.552C61.0009 15.04 62.2329 16.112 64.1849 16.112C65.4649 16.112 66.3929 15.696 66.8729 14.96V16H68.7609V10.992C68.7609 8.528 67.3369 7.36 64.8729 7.36ZM64.6009 14.656C63.5769 14.656 62.9689 14.192 62.9689 13.472C62.9689 12.848 63.3369 12.336 64.6969 12.336H66.7609V13.328C66.4249 14.208 65.5769 14.656 64.6009 14.656ZM82.1116 7.36C80.7516 7.36 79.5996 7.904 78.9116 8.784C78.3196 7.824 77.2796 7.36 76.0316 7.36C74.8636 7.36 73.8716 7.776 73.2316 8.544V7.456H71.3276V16H73.3276V11.664C73.3276 9.968 74.2236 9.104 75.5516 9.104C76.7676 9.104 77.4716 9.84 77.4716 11.36V16H79.4716V11.664C79.4716 9.968 80.3836 9.104 81.6956 9.104C82.9116 9.104 83.6156 9.84 83.6156 11.36V16H85.6156V11.104C85.6156 8.528 84.1756 7.36 82.1116 7.36ZM96.2815 11.776C96.2815 9.104 94.4575 7.36 91.9615 7.36C89.4175 7.36 87.5455 9.184 87.5455 11.728C87.5455 14.272 89.4015 16.112 92.2655 16.112C93.7375 16.112 94.9375 15.632 95.7055 14.72L94.6335 13.488C94.0255 14.112 93.2735 14.416 92.3135 14.416C90.8255 14.416 89.7855 13.616 89.5455 12.368H96.2495C96.2655 12.176 96.2815 11.936 96.2815 11.776ZM91.9615 8.96C93.2735 8.96 94.2175 9.808 94.3775 11.04H89.5295C89.7215 9.792 90.6655 8.96 91.9615 8.96Z" fill="#6A7180"/>
<path d="M109 3.33325C105.318 3.33325 102.333 6.31763 102.333 9.99992C102.333 13.6822 105.318 16.6666 109 16.6666C112.682 16.6666 115.667 13.6822 115.667 9.99992C115.667 6.31763 112.682 3.33325 109 3.33325ZM109 6.66659C109.46 6.66659 109.833 7.03976 109.833 7.49992C109.833 7.96007 109.46 8.33325 109 8.33325C108.54 8.33325 108.167 7.96086 108.167 7.49992C108.167 7.03898 108.539 6.66659 109 6.66659ZM110.042 13.3333H107.958C107.615 13.3333 107.333 13.0546 107.333 12.7083C107.333 12.3619 107.613 12.0833 107.958 12.0833H108.375V10.4166H108.167C107.822 10.4166 107.542 10.1366 107.542 9.79159C107.542 9.44653 107.823 9.16659 108.167 9.16659H109C109.345 9.16659 109.625 9.44653 109.625 9.79159V12.0833H110.042C110.387 12.0833 110.667 12.3632 110.667 12.7083C110.667 13.0533 110.388 13.3333 110.042 13.3333Z" fill="#6A7180"/>
<path d="M17.824 50V38.8H22.016C22.9653 38.8 23.7813 38.9547 24.464 39.264C25.1467 39.5627 25.6693 40 26.032 40.576C26.4053 41.1413 26.592 41.8293 26.592 42.64C26.592 43.4293 26.4053 44.112 26.032 44.688C25.6693 45.2533 25.1467 45.6907 24.464 46C23.7813 46.3093 22.9653 46.464 22.016 46.464H18.48L19.008 45.904V50H17.824ZM19.008 46L18.48 45.424H21.984C23.104 45.424 23.952 45.184 24.528 44.704C25.1147 44.2133 25.408 43.5253 25.408 42.64C25.408 41.744 25.1147 41.0507 24.528 40.56C23.952 40.0693 23.104 39.824 21.984 39.824H18.48L19.008 39.264V46ZM29.0684 50V38.128H30.2044V50H29.0684ZM38.6293 50V48.144L38.5813 47.84V44.736C38.5813 44.0213 38.3786 43.472 37.9733 43.088C37.5786 42.704 36.9866 42.512 36.1973 42.512C35.6533 42.512 35.1359 42.6027 34.6453 42.784C34.1546 42.9653 33.7386 43.2053 33.3973 43.504L32.8853 42.656C33.3119 42.2933 33.8239 42.016 34.4213 41.824C35.0186 41.6213 35.6479 41.52 36.3093 41.52C37.3973 41.52 38.2346 41.792 38.8213 42.336C39.4186 42.8693 39.7173 43.6853 39.7173 44.784V50H38.6293ZM35.7333 50.08C35.1039 50.08 34.5546 49.9787 34.0853 49.776C33.6266 49.5627 33.2746 49.2747 33.0293 48.912C32.7839 48.5387 32.6613 48.112 32.6613 47.632C32.6613 47.1947 32.7626 46.8 32.9653 46.448C33.1786 46.0853 33.5199 45.7973 33.9893 45.584C34.4693 45.36 35.1093 45.248 35.9093 45.248H38.8053V46.096H35.9413C35.1306 46.096 34.5653 46.24 34.2453 46.528C33.9359 46.816 33.7812 47.1733 33.7812 47.6C33.7812 48.08 33.9679 48.464 34.3413 48.752C34.7146 49.04 35.2373 49.184 35.9093 49.184C36.5493 49.184 37.0986 49.04 37.5573 48.752C38.0266 48.4533 38.3679 48.0267 38.5813 47.472L38.8373 48.256C38.6239 48.8107 38.2506 49.2533 37.7173 49.584C37.1946 49.9147 36.5333 50.08 35.7333 50.08ZM46.2908 50.08C45.4588 50.08 44.7121 49.8987 44.0508 49.536C43.4001 49.1627 42.8881 48.656 42.5148 48.016C42.1414 47.3653 41.9548 46.624 41.9548 45.792C41.9548 44.9493 42.1414 44.208 42.5148 43.568C42.8881 42.928 43.4001 42.4267 44.0508 42.064C44.7121 41.7013 45.4588 41.52 46.2908 41.52C47.0054 41.52 47.6508 41.6587 48.2268 41.936C48.8028 42.2133 49.2561 42.6293 49.5868 43.184L48.7388 43.76C48.4508 43.3333 48.0934 43.0187 47.6668 42.816C47.2401 42.6133 46.7761 42.512 46.2748 42.512C45.6774 42.512 45.1388 42.6507 44.6588 42.928C44.1788 43.1947 43.8001 43.5733 43.5228 44.064C43.2454 44.5547 43.1068 45.1307 43.1068 45.792C43.1068 46.4533 43.2454 47.0293 43.5228 47.52C43.8001 48.0107 44.1788 48.3947 44.6588 48.672C45.1388 48.9387 45.6774 49.072 46.2748 49.072C46.7761 49.072 47.2401 48.9707 47.6668 48.768C48.0934 48.5653 48.4508 48.256 48.7388 47.84L49.5868 48.416C49.2561 48.96 48.8028 49.376 48.2268 49.664C47.6508 49.9413 47.0054 50.08 46.2908 50.08ZM55.2458 50.08C54.3711 50.08 53.6031 49.8987 52.9418 49.536C52.2804 49.1627 51.7631 48.656 51.3898 48.016C51.0164 47.3653 50.8298 46.624 50.8298 45.792C50.8298 44.96 51.0058 44.224 51.3578 43.584C51.7204 42.944 52.2111 42.4427 52.8298 42.08C53.4591 41.7067 54.1631 41.52 54.9418 41.52C55.7311 41.52 56.4298 41.7013 57.0378 42.064C57.6564 42.416 58.1418 42.9173 58.4938 43.568C58.8458 44.208 59.0218 44.9493 59.0218 45.792C59.0218 45.8453 59.0164 45.904 59.0058 45.968C59.0058 46.0213 59.0058 46.08 59.0058 46.144H51.6938V45.296H58.3978L57.9498 45.632C57.9498 45.024 57.8164 44.4853 57.5498 44.016C57.2938 43.536 56.9418 43.1627 56.4938 42.896C56.0458 42.6293 55.5284 42.496 54.9418 42.496C54.3658 42.496 53.8484 42.6293 53.3898 42.896C52.9311 43.1627 52.5738 43.536 52.3178 44.016C52.0618 44.496 51.9338 45.0453 51.9338 45.664V45.84C51.9338 46.48 52.0724 47.0453 52.3498 47.536C52.6378 48.016 53.0324 48.3947 53.5338 48.672C54.0458 48.9387 54.6271 49.072 55.2778 49.072C55.7898 49.072 56.2644 48.9813 56.7018 48.8C57.1498 48.6187 57.5338 48.3413 57.8538 47.968L58.4938 48.704C58.1204 49.152 57.6511 49.4933 57.0858 49.728C56.5311 49.9627 55.9178 50.08 55.2458 50.08ZM65.622 41.52C66.3047 41.52 66.902 41.6533 67.414 41.92C67.9367 42.176 68.342 42.5707 68.63 43.104C68.9287 43.6373 69.078 44.3093 69.078 45.12V50H67.942V45.232C67.942 44.3467 67.718 43.68 67.27 43.232C66.8327 42.7733 66.214 42.544 65.414 42.544C64.8167 42.544 64.294 42.6667 63.846 42.912C63.4087 43.1467 63.0673 43.4933 62.822 43.952C62.5873 44.4 62.47 44.944 62.47 45.584V50H61.334V38.128H62.47V43.904L62.246 43.472C62.5127 42.864 62.9393 42.3893 63.526 42.048C64.1127 41.696 64.8113 41.52 65.622 41.52ZM75.5705 50.08C74.7598 50.08 74.0292 49.8987 73.3785 49.536C72.7385 49.1627 72.2318 48.656 71.8585 48.016C71.4852 47.3653 71.2985 46.624 71.2985 45.792C71.2985 44.9493 71.4852 44.208 71.8585 43.568C72.2318 42.928 72.7385 42.4267 73.3785 42.064C74.0185 41.7013 74.7492 41.52 75.5705 41.52C76.4025 41.52 77.1385 41.7013 77.7785 42.064C78.4292 42.4267 78.9358 42.928 79.2985 43.568C79.6718 44.208 79.8585 44.9493 79.8585 45.792C79.8585 46.624 79.6718 47.3653 79.2985 48.016C78.9358 48.656 78.4292 49.1627 77.7785 49.536C77.1278 49.8987 76.3918 50.08 75.5705 50.08ZM75.5705 49.072C76.1785 49.072 76.7172 48.9387 77.1865 48.672C77.6558 48.3947 78.0238 48.0107 78.2905 47.52C78.5678 47.0187 78.7065 46.4427 78.7065 45.792C78.7065 45.1307 78.5678 44.5547 78.2905 44.064C78.0238 43.5733 77.6558 43.1947 77.1865 42.928C76.7172 42.6507 76.1838 42.512 75.5865 42.512C74.9892 42.512 74.4558 42.6507 73.9865 42.928C73.5172 43.1947 73.1438 43.5733 72.8665 44.064C72.5892 44.5547 72.4505 45.1307 72.4505 45.792C72.4505 46.4427 72.5892 47.0187 72.8665 47.52C73.1438 48.0107 73.5172 48.3947 73.9865 48.672C74.4558 48.9387 74.9838 49.072 75.5705 49.072ZM82.1778 50V38.128H83.3138V50H82.1778ZM89.8186 50.08C89.0186 50.08 88.2986 49.8987 87.6586 49.536C87.0293 49.1733 86.5333 48.672 86.1706 48.032C85.808 47.3813 85.6266 46.6347 85.6266 45.792C85.6266 44.9387 85.808 44.192 86.1706 43.552C86.5333 42.912 87.0293 42.416 87.6586 42.064C88.2986 41.7013 89.0186 41.52 89.8186 41.52C90.5546 41.52 91.2106 41.6853 91.7866 42.016C92.3733 42.3467 92.8373 42.832 93.1786 43.472C93.5306 44.1013 93.7066 44.8747 93.7066 45.792C93.7066 46.6987 93.536 47.472 93.1946 48.112C92.8533 48.752 92.3893 49.2427 91.8026 49.584C91.2266 49.9147 90.5653 50.08 89.8186 50.08ZM89.8986 49.072C90.496 49.072 91.0293 48.9387 91.4986 48.672C91.9786 48.3947 92.352 48.0107 92.6186 47.52C92.896 47.0187 93.0346 46.4427 93.0346 45.792C93.0346 45.1307 92.896 44.5547 92.6186 44.064C92.352 43.5733 91.9786 43.1947 91.4986 42.928C91.0293 42.6507 90.496 42.512 89.8986 42.512C89.312 42.512 88.784 42.6507 88.3146 42.928C87.8453 43.1947 87.472 43.5733 87.1946 44.064C86.9173 44.5547 86.7786 45.1307 86.7786 45.792C86.7786 46.4427 86.9173 47.0187 87.1946 47.52C87.472 48.0107 87.8453 48.3947 88.3146 48.672C88.784 48.9387 89.312 49.072 89.8986 49.072ZM93.0666 50V47.472L93.1786 45.776L93.0186 44.08V38.128H94.1546V50H93.0666ZM100.886 50.08C100.012 50.08 99.2437 49.8987 98.5824 49.536C97.921 49.1627 97.4037 48.656 97.0304 48.016C96.657 47.3653 96.4704 46.624 96.4704 45.792C96.4704 44.96 96.6464 44.224 96.9984 43.584C97.361 42.944 97.8517 42.4427 98.4704 42.08C99.0997 41.7067 99.8037 41.52 100.582 41.52C101.372 41.52 102.07 41.7013 102.678 42.064C103.297 42.416 103.782 42.9173 104.134 43.568C104.486 44.208 104.662 44.9493 104.662 45.792C104.662 45.8453 104.657 45.904 104.646 45.968C104.646 46.0213 104.646 46.08 104.646 46.144H97.3344V45.296H104.038L103.59 45.632C103.59 45.024 103.457 44.4853 103.19 44.016C102.934 43.536 102.582 43.1627 102.134 42.896C101.686 42.6293 101.169 42.496 100.582 42.496C100.006 42.496 99.489 42.6293 99.0304 42.896C98.5717 43.1627 98.2144 43.536 97.9584 44.016C97.7024 44.496 97.5744 45.0453 97.5744 45.664V45.84C97.5744 46.48 97.713 47.0453 97.9904 47.536C98.2784 48.016 98.673 48.3947 99.1744 48.672C99.6864 48.9387 100.268 49.072 100.918 49.072C101.43 49.072 101.905 48.9813 102.342 48.8C102.79 48.6187 103.174 48.3413 103.494 47.968L104.134 48.704C103.761 49.152 103.292 49.4933 102.726 49.728C102.172 49.9627 101.558 50.08 100.886 50.08ZM106.975 50V41.6H108.063V43.888L107.951 43.488C108.185 42.848 108.58 42.3627 109.135 42.032C109.689 41.6907 110.377 41.52 111.199 41.52V42.624C111.156 42.624 111.113 42.624 111.071 42.624C111.028 42.6133 110.985 42.608 110.943 42.608C110.057 42.608 109.364 42.88 108.863 43.424C108.361 43.9573 108.111 44.72 108.111 45.712V50H106.975Z" fill="#6A7180"/>
<rect x="0.75" y="-0.75" width="223.5" height="38.5" rx="7.25" transform="matrix(1 0 0 -1 0 62.5)" stroke="#B1B5BD" stroke-width="1.5"/>
</svg>
