<svg width="278" height="84" viewBox="0 0 278 84" fill="none" xmlns="http://www.w3.org/2000/svg">
<rect y="60" width="278" height="12" rx="6" fill="#D7DAE1"/>
<rect x="84" y="60" width="104" height="12" rx="6" fill="#83378F"/>
<circle cx="84" cy="66" r="18" fill="#83378F" fill-opacity="0.1"/>
<rect x="73" y="55" width="22" height="22" rx="11" fill="#F2F1FC" stroke="#83378F" stroke-width="2"/>
<circle cx="188" cy="66" r="18" fill="#83378F" fill-opacity="0.1"/>
<rect x="177" y="55" width="22" height="22" rx="11" fill="#F2F1FC" stroke="#83378F" stroke-width="2"/>
<g clip-path="url(#clip0_1704_1537)">
<rect x="154" width="68" height="36" rx="8" fill="#F2F1FC"/>
<path d="M171.418 25.92V10.88H172.73V25.92H171.418ZM171.914 24.16C171.039 24.16 170.202 24.0373 169.402 23.792C168.602 23.536 167.967 23.2107 167.498 22.816L168.218 21.2C168.666 21.552 169.22 21.8453 169.882 22.08C170.543 22.3147 171.22 22.432 171.914 22.432C172.5 22.432 172.975 22.368 173.338 22.24C173.7 22.112 173.967 21.9413 174.138 21.728C174.308 21.504 174.394 21.2533 174.394 20.976C174.394 20.6347 174.271 20.3627 174.026 20.16C173.78 19.9467 173.46 19.7813 173.066 19.664C172.682 19.536 172.25 19.4187 171.77 19.312C171.3 19.2053 170.826 19.0827 170.346 18.944C169.876 18.7947 169.444 18.608 169.049 18.384C168.666 18.1493 168.351 17.84 168.106 17.456C167.86 17.072 167.738 16.5813 167.738 15.984C167.738 15.376 167.898 14.8213 168.218 14.32C168.548 13.808 169.044 13.4027 169.706 13.104C170.378 12.7947 171.226 12.64 172.25 12.64C172.922 12.64 173.588 12.7253 174.25 12.896C174.911 13.0667 175.487 13.312 175.977 13.632L175.322 15.248C174.82 14.9493 174.303 14.7307 173.77 14.592C173.236 14.4427 172.724 14.368 172.234 14.368C171.658 14.368 171.188 14.4373 170.826 14.576C170.474 14.7147 170.212 14.896 170.042 15.12C169.882 15.344 169.802 15.6 169.802 15.888C169.802 16.2293 169.919 16.5067 170.154 16.72C170.399 16.9227 170.714 17.0827 171.098 17.2C171.492 17.3173 171.93 17.4347 172.41 17.552C172.89 17.6587 173.364 17.7813 173.834 17.92C174.314 18.0587 174.746 18.24 175.13 18.464C175.524 18.688 175.839 18.992 176.074 19.376C176.319 19.76 176.442 20.2453 176.442 20.832C176.442 21.4293 176.276 21.984 175.946 22.496C175.626 22.9973 175.13 23.4027 174.458 23.712C173.786 24.0107 172.938 24.16 171.914 24.16ZM182.2 24.16C181.272 24.16 180.467 24.0213 179.784 23.744C179.101 23.4667 178.573 23.0773 178.2 22.576C177.827 22.064 177.64 21.4667 177.64 20.784C177.64 20.1013 177.821 19.5253 178.184 19.056C178.547 18.5867 179.069 18.2293 179.752 17.984C180.435 17.7387 181.251 17.616 182.2 17.616C183.149 17.616 183.965 17.7387 184.648 17.984C185.341 18.2293 185.869 18.592 186.232 19.072C186.605 19.5413 186.792 20.112 186.792 20.784C186.792 21.4667 186.6 22.064 186.216 22.576C185.843 23.0773 185.309 23.4667 184.616 23.744C183.933 24.0213 183.128 24.16 182.2 24.16ZM182.2 22.528C182.968 22.528 183.576 22.368 184.024 22.048C184.472 21.728 184.696 21.2853 184.696 20.72C184.696 20.1653 184.472 19.728 184.024 19.408C183.576 19.088 182.968 18.928 182.2 18.928C181.432 18.928 180.829 19.088 180.392 19.408C179.955 19.728 179.736 20.1653 179.736 20.72C179.736 21.2853 179.955 21.728 180.392 22.048C180.829 22.368 181.432 22.528 182.2 22.528ZM182.2 18.704C181.336 18.704 180.595 18.592 179.976 18.368C179.357 18.1333 178.877 17.7973 178.536 17.36C178.205 16.912 178.04 16.3787 178.04 15.76C178.04 15.12 178.211 14.5707 178.552 14.112C178.904 13.6427 179.395 13.28 180.024 13.024C180.653 12.768 181.379 12.64 182.2 12.64C183.032 12.64 183.763 12.768 184.392 13.024C185.021 13.28 185.512 13.6427 185.864 14.112C186.216 14.5707 186.392 15.12 186.392 15.76C186.392 16.3787 186.221 16.912 185.88 17.36C185.549 17.7973 185.069 18.1333 184.44 18.368C183.811 18.592 183.064 18.704 182.2 18.704ZM182.2 17.424C182.861 17.424 183.384 17.2853 183.768 17.008C184.152 16.72 184.344 16.336 184.344 15.856C184.344 15.3547 184.147 14.9653 183.752 14.688C183.357 14.4107 182.84 14.272 182.2 14.272C181.56 14.272 181.048 14.4107 180.664 14.688C180.28 14.9653 180.088 15.3547 180.088 15.856C180.088 16.336 180.275 16.72 180.648 17.008C181.032 17.2853 181.549 17.424 182.2 17.424ZM187.982 21.456V20.016L193.502 12.8H195.726L190.286 20.016L189.246 19.696H198.126V21.456H187.982ZM194.126 24V21.456L194.19 19.696V17.44H196.142V24H194.126ZM203.673 24.16C202.788 24.16 201.988 23.936 201.273 23.488C200.569 23.04 200.014 22.3893 199.609 21.536C199.204 20.672 199.001 19.6267 199.001 18.4C199.001 17.1733 199.204 16.1333 199.609 15.28C200.014 14.416 200.569 13.76 201.273 13.312C201.988 12.864 202.788 12.64 203.673 12.64C204.569 12.64 205.369 12.864 206.073 13.312C206.777 13.76 207.332 14.416 207.737 15.28C208.153 16.1333 208.361 17.1733 208.361 18.4C208.361 19.6267 208.153 20.672 207.737 21.536C207.332 22.3893 206.777 23.04 206.073 23.488C205.369 23.936 204.569 24.16 203.673 24.16ZM203.673 22.352C204.196 22.352 204.649 22.2133 205.033 21.936C205.417 21.648 205.716 21.2107 205.929 20.624C206.153 20.0373 206.265 19.296 206.265 18.4C206.265 17.4933 206.153 16.752 205.929 16.176C205.716 15.5893 205.417 15.1573 205.033 14.88C204.649 14.592 204.196 14.448 203.673 14.448C203.172 14.448 202.724 14.592 202.329 14.88C201.945 15.1573 201.641 15.5893 201.417 16.176C201.204 16.752 201.097 17.4933 201.097 18.4C201.097 19.296 201.204 20.0373 201.417 20.624C201.641 21.2107 201.945 21.648 202.329 21.936C202.724 22.2133 203.172 22.352 203.673 22.352Z" fill="#221987"/>
</g>
<path d="M188 42L181.072 33L194.928 33L188 42Z" fill="#F2F1FC"/>
<g clip-path="url(#clip1_1704_1537)">
<rect x="50" width="68" height="36" rx="8" fill="#F2F1FC"/>
<path d="M70.5113 25.92V10.88H71.8233V25.92H70.5113ZM71.0073 24.16C70.1326 24.16 69.2953 24.0373 68.4953 23.792C67.6953 23.536 67.0606 23.2107 66.5913 22.816L67.3113 21.2C67.7593 21.552 68.3139 21.8453 68.9753 22.08C69.6366 22.3147 70.3139 22.432 71.0073 22.432C71.5939 22.432 72.0686 22.368 72.4313 22.24C72.7939 22.112 73.0606 21.9413 73.2313 21.728C73.4019 21.504 73.4873 21.2533 73.4873 20.976C73.4873 20.6347 73.3646 20.3627 73.1193 20.16C72.8739 19.9467 72.5539 19.7813 72.1593 19.664C71.7753 19.536 71.3433 19.4187 70.8633 19.312C70.3939 19.2053 69.9193 19.0827 69.4393 18.944C68.9699 18.7947 68.5379 18.608 68.1432 18.384C67.7593 18.1493 67.4446 17.84 67.1993 17.456C66.9539 17.072 66.8313 16.5813 66.8313 15.984C66.8313 15.376 66.9913 14.8213 67.3113 14.32C67.6419 13.808 68.1379 13.4027 68.7993 13.104C69.4713 12.7947 70.3193 12.64 71.3433 12.64C72.0153 12.64 72.6819 12.7253 73.3433 12.896C74.0046 13.0667 74.5806 13.312 75.0712 13.632L74.4153 15.248C73.9139 14.9493 73.3966 14.7307 72.8633 14.592C72.3299 14.4427 71.8179 14.368 71.3273 14.368C70.7513 14.368 70.2819 14.4373 69.9193 14.576C69.5673 14.7147 69.3059 14.896 69.1353 15.12C68.9753 15.344 68.8953 15.6 68.8953 15.888C68.8953 16.2293 69.0126 16.5067 69.2473 16.72C69.4926 16.9227 69.8073 17.0827 70.1913 17.2C70.5859 17.3173 71.0233 17.4347 71.5033 17.552C71.9833 17.6587 72.4579 17.7813 72.9273 17.92C73.4073 18.0587 73.8393 18.24 74.2233 18.464C74.6179 18.688 74.9326 18.992 75.1673 19.376C75.4126 19.76 75.5353 20.2453 75.5353 20.832C75.5353 21.4293 75.3699 21.984 75.0393 22.496C74.7193 22.9973 74.2233 23.4027 73.5513 23.712C72.8793 24.0107 72.0313 24.16 71.0073 24.16ZM80.5098 24.16C79.7204 24.16 78.9471 24.048 78.1898 23.824C77.4431 23.5893 76.8138 23.2693 76.3018 22.864L77.1818 21.248C77.5871 21.5787 78.0778 21.8453 78.6538 22.048C79.2404 22.2507 79.8484 22.352 80.4778 22.352C81.2138 22.352 81.7898 22.1973 82.2058 21.888C82.6324 21.5787 82.8458 21.1627 82.8458 20.64C82.8458 20.288 82.7551 19.9787 82.5738 19.712C82.4031 19.4453 82.0938 19.2427 81.6458 19.104C81.2084 18.9653 80.6058 18.896 79.8378 18.896H77.1338L77.7098 12.8H84.2858V14.544H78.4778L79.5658 13.552L79.1338 18.112L78.0458 17.136H80.3018C81.4111 17.136 82.3018 17.2853 82.9738 17.584C83.6564 17.872 84.1524 18.2773 84.4618 18.8C84.7818 19.312 84.9418 19.8987 84.9418 20.56C84.9418 21.2107 84.7818 21.808 84.4618 22.352C84.1418 22.896 83.6511 23.3333 82.9898 23.664C82.3391 23.9947 81.5124 24.16 80.5098 24.16ZM89.7754 24.16C88.986 24.16 88.2127 24.048 87.4554 23.824C86.7087 23.5893 86.0794 23.2693 85.5674 22.864L86.4474 21.248C86.8527 21.5787 87.3434 21.8453 87.9194 22.048C88.506 22.2507 89.114 22.352 89.7434 22.352C90.4794 22.352 91.0554 22.1973 91.4714 21.888C91.898 21.5787 92.1114 21.1627 92.1114 20.64C92.1114 20.288 92.0207 19.9787 91.8394 19.712C91.6687 19.4453 91.3594 19.2427 90.9114 19.104C90.474 18.9653 89.8714 18.896 89.1034 18.896H86.3994L86.9754 12.8H93.5514V14.544H87.7434L88.8314 13.552L88.3994 18.112L87.3114 17.136H89.5674C90.6767 17.136 91.5674 17.2853 92.2394 17.584C92.922 17.872 93.418 18.2773 93.7274 18.8C94.0474 19.312 94.2074 19.8987 94.2074 20.56C94.2074 21.2107 94.0474 21.808 93.7274 22.352C93.4074 22.896 92.9167 23.3333 92.2554 23.664C91.6047 23.9947 90.778 24.16 89.7754 24.16ZM99.041 24.16C98.2517 24.16 97.4783 24.048 96.721 23.824C95.9743 23.5893 95.345 23.2693 94.833 22.864L95.713 21.248C96.1183 21.5787 96.609 21.8453 97.185 22.048C97.7717 22.2507 98.3797 22.352 99.009 22.352C99.745 22.352 100.321 22.1973 100.737 21.888C101.164 21.5787 101.377 21.1627 101.377 20.64C101.377 20.288 101.286 19.9787 101.105 19.712C100.934 19.4453 100.625 19.2427 100.177 19.104C99.7397 18.9653 99.137 18.896 98.369 18.896H95.665L96.241 12.8H102.817V14.544H97.009L98.097 13.552L97.665 18.112L96.577 17.136H98.833C99.9423 17.136 100.833 17.2853 101.505 17.584C102.188 17.872 102.684 18.2773 102.993 18.8C103.313 19.312 103.473 19.8987 103.473 20.56C103.473 21.2107 103.313 21.808 102.993 22.352C102.673 22.896 102.182 23.3333 101.521 23.664C100.87 23.9947 100.044 24.16 99.041 24.16Z" fill="#221987"/>
</g>
<path d="M84 42L77.0718 33L90.9282 33L84 42Z" fill="#F2F1FC"/>
<defs>
<clipPath id="clip0_1704_1537">
<rect x="154" width="68" height="36" rx="8" fill="white"/>
</clipPath>
<clipPath id="clip1_1704_1537">
<rect x="50" width="68" height="36" rx="8" fill="white"/>
</clipPath>
</defs>
</svg>
