<svg width="346" height="116" viewBox="0 0 346 116" fill="none" xmlns="http://www.w3.org/2000/svg">
<rect x="104" y="46.5" width="201" height="9" rx="4.5" fill="#D7DAE1"/>
<rect x="104" y="46.5" width="104.838" height="9" rx="4.5" fill="#83378F"/>
<rect x="195.377" y="41.5" width="18.2446" height="19" rx="9.1223" fill="#F2F1FC" stroke="#83378F" stroke-width="2"/>
<path d="M229 111.833C231.946 111.833 234.333 109.446 234.333 106.5C234.333 103.554 231.946 101.167 229 101.167C226.054 101.167 223.667 103.554 223.667 106.5C223.667 109.446 226.054 111.833 229 111.833ZM230 106.5L230 59.5L228 59.5L228 106.5L230 106.5Z" fill="#83378F"/>
<path d="M53.6667 50C53.6667 52.9455 56.0545 55.3333 59 55.3333C61.9455 55.3333 64.3333 52.9455 64.3333 50C64.3333 47.0545 61.9455 44.6667 59 44.6667C56.0545 44.6667 53.6667 47.0545 53.6667 50ZM198.167 10C198.167 12.9455 200.554 15.3333 203.5 15.3333C206.446 15.3333 208.833 12.9455 208.833 10C208.833 7.05448 206.446 4.66667 203.5 4.66667C200.554 4.66667 198.167 7.05448 198.167 10ZM59 51L96 51V49L59 49V51ZM202.5 10V32H204.5V10H202.5Z" fill="#83378F"/>
<path d="M244.688 112.16C243.835 112.16 243.04 112.021 242.304 111.744C241.579 111.456 240.944 111.056 240.4 110.544C239.867 110.021 239.451 109.408 239.152 108.704C238.853 108 238.704 107.232 238.704 106.4C238.704 105.568 238.853 104.8 239.152 104.096C239.451 103.392 239.872 102.784 240.416 102.272C240.96 101.749 241.595 101.349 242.32 101.072C243.045 100.784 243.84 100.64 244.704 100.64C245.621 100.64 246.459 100.8 247.216 101.12C247.973 101.429 248.613 101.893 249.136 102.512L247.792 103.776C247.387 103.339 246.933 103.013 246.432 102.8C245.931 102.576 245.387 102.464 244.8 102.464C244.213 102.464 243.675 102.56 243.184 102.752C242.704 102.944 242.283 103.216 241.92 103.568C241.568 103.92 241.291 104.336 241.088 104.816C240.896 105.296 240.8 105.824 240.8 106.4C240.8 106.976 240.896 107.504 241.088 107.984C241.291 108.464 241.568 108.88 241.92 109.232C242.283 109.584 242.704 109.856 243.184 110.048C243.675 110.24 244.213 110.336 244.8 110.336C245.387 110.336 245.931 110.229 246.432 110.016C246.933 109.792 247.387 109.456 247.792 109.008L249.136 110.288C248.613 110.896 247.973 111.36 247.216 111.68C246.459 112 245.616 112.16 244.688 112.16ZM254.449 112.112C253.574 112.112 252.796 111.925 252.113 111.552C251.43 111.168 250.892 110.645 250.497 109.984C250.102 109.323 249.905 108.571 249.905 107.728C249.905 106.875 250.102 106.123 250.497 105.472C250.892 104.811 251.43 104.293 252.113 103.92C252.796 103.547 253.574 103.36 254.449 103.36C255.334 103.36 256.118 103.547 256.801 103.92C257.494 104.293 258.033 104.805 258.417 105.456C258.812 106.107 259.009 106.864 259.009 107.728C259.009 108.571 258.812 109.323 258.417 109.984C258.033 110.645 257.494 111.168 256.801 111.552C256.118 111.925 255.334 112.112 254.449 112.112ZM254.449 110.4C254.94 110.4 255.377 110.293 255.761 110.08C256.145 109.867 256.444 109.557 256.657 109.152C256.881 108.747 256.993 108.272 256.993 107.728C256.993 107.173 256.881 106.699 256.657 106.304C256.444 105.899 256.145 105.589 255.761 105.376C255.377 105.163 254.945 105.056 254.465 105.056C253.974 105.056 253.537 105.163 253.153 105.376C252.78 105.589 252.481 105.899 252.257 106.304C252.033 106.699 251.921 107.173 251.921 107.728C251.921 108.272 252.033 108.747 252.257 109.152C252.481 109.557 252.78 109.867 253.153 110.08C253.537 110.293 253.969 110.4 254.449 110.4ZM265.769 103.36C266.452 103.36 267.06 103.493 267.593 103.76C268.137 104.027 268.564 104.437 268.873 104.992C269.183 105.536 269.337 106.24 269.337 107.104V112H267.337V107.36C267.337 106.603 267.156 106.037 266.793 105.664C266.441 105.291 265.945 105.104 265.305 105.104C264.836 105.104 264.42 105.2 264.057 105.392C263.695 105.584 263.412 105.872 263.209 106.256C263.017 106.629 262.921 107.104 262.921 107.68V112H260.921V103.456H262.825V105.76L262.489 105.056C262.788 104.512 263.22 104.096 263.785 103.808C264.361 103.509 265.023 103.36 265.769 103.36ZM275.091 112.112C274.152 112.112 273.427 111.872 272.914 111.392C272.403 110.901 272.147 110.181 272.147 109.232V101.568H274.147V109.184C274.147 109.589 274.248 109.904 274.451 110.128C274.664 110.352 274.957 110.464 275.331 110.464C275.779 110.464 276.152 110.347 276.451 110.112L277.011 111.536C276.776 111.728 276.488 111.872 276.147 111.968C275.805 112.064 275.453 112.112 275.091 112.112ZM270.739 105.12V103.52H276.435V105.12H270.739ZM282.391 112.112C281.441 112.112 280.609 111.925 279.895 111.552C279.191 111.168 278.641 110.645 278.247 109.984C277.863 109.323 277.671 108.571 277.671 107.728C277.671 106.875 277.857 106.123 278.231 105.472C278.615 104.811 279.137 104.293 279.799 103.92C280.471 103.547 281.233 103.36 282.087 103.36C282.919 103.36 283.66 103.541 284.311 103.904C284.961 104.267 285.473 104.779 285.847 105.44C286.22 106.101 286.407 106.88 286.407 107.776C286.407 107.861 286.401 107.957 286.391 108.064C286.391 108.171 286.385 108.272 286.375 108.368H279.255V107.04H285.319L284.535 107.456C284.545 106.965 284.444 106.533 284.231 106.16C284.017 105.787 283.724 105.493 283.351 105.28C282.988 105.067 282.567 104.96 282.087 104.96C281.596 104.96 281.164 105.067 280.791 105.28C280.428 105.493 280.14 105.792 279.927 106.176C279.724 106.549 279.623 106.992 279.623 107.504V107.824C279.623 108.336 279.74 108.789 279.975 109.184C280.209 109.579 280.54 109.883 280.967 110.096C281.393 110.309 281.884 110.416 282.439 110.416C282.919 110.416 283.351 110.341 283.735 110.192C284.119 110.043 284.46 109.808 284.759 109.488L285.831 110.72C285.447 111.168 284.961 111.515 284.375 111.76C283.799 111.995 283.137 112.112 282.391 112.112ZM293.176 103.36C293.858 103.36 294.466 103.493 295 103.76C295.544 104.027 295.97 104.437 296.28 104.992C296.589 105.536 296.744 106.24 296.744 107.104V112H294.744V107.36C294.744 106.603 294.562 106.037 294.2 105.664C293.848 105.291 293.352 105.104 292.712 105.104C292.242 105.104 291.826 105.2 291.464 105.392C291.101 105.584 290.818 105.872 290.616 106.256C290.424 106.629 290.328 107.104 290.328 107.68V112H288.328V103.456H290.232V105.76L289.896 105.056C290.194 104.512 290.626 104.096 291.192 103.808C291.768 103.509 292.429 103.36 293.176 103.36ZM303.312 112.112C302.363 112.112 301.531 111.925 300.816 111.552C300.112 111.168 299.563 110.645 299.168 109.984C298.784 109.323 298.592 108.571 298.592 107.728C298.592 106.875 298.779 106.123 299.152 105.472C299.536 104.811 300.059 104.293 300.72 103.92C301.392 103.547 302.155 103.36 303.008 103.36C303.84 103.36 304.582 103.541 305.232 103.904C305.883 104.267 306.395 104.779 306.768 105.44C307.142 106.101 307.328 106.88 307.328 107.776C307.328 107.861 307.323 107.957 307.312 108.064C307.312 108.171 307.307 108.272 307.296 108.368H300.176V107.04H306.24L305.456 107.456C305.467 106.965 305.366 106.533 305.152 106.16C304.939 105.787 304.646 105.493 304.272 105.28C303.91 105.067 303.488 104.96 303.008 104.96C302.518 104.96 302.086 105.067 301.712 105.28C301.35 105.493 301.062 105.792 300.848 106.176C300.646 106.549 300.544 106.992 300.544 107.504V107.824C300.544 108.336 300.662 108.789 300.896 109.184C301.131 109.579 301.462 109.883 301.888 110.096C302.315 110.309 302.806 110.416 303.36 110.416C303.84 110.416 304.272 110.341 304.656 110.192C305.04 110.043 305.382 109.808 305.68 109.488L306.752 110.72C306.368 111.168 305.883 111.515 305.296 111.76C304.72 111.995 304.059 112.112 303.312 112.112ZM312.866 112.112C312.044 112.112 311.303 111.931 310.642 111.568C309.991 111.195 309.479 110.683 309.106 110.032C308.732 109.381 308.546 108.613 308.546 107.728C308.546 106.843 308.732 106.075 309.106 105.424C309.479 104.773 309.991 104.267 310.642 103.904C311.303 103.541 312.044 103.36 312.866 103.36C313.58 103.36 314.22 103.52 314.786 103.84C315.351 104.149 315.799 104.624 316.13 105.264C316.46 105.904 316.626 106.725 316.626 107.728C316.626 108.72 316.466 109.541 316.146 110.192C315.826 110.832 315.383 111.312 314.818 111.632C314.252 111.952 313.602 112.112 312.866 112.112ZM313.106 110.4C313.586 110.4 314.012 110.293 314.386 110.08C314.77 109.867 315.074 109.557 315.298 109.152C315.532 108.747 315.65 108.272 315.65 107.728C315.65 107.173 315.532 106.699 315.298 106.304C315.074 105.899 314.77 105.589 314.386 105.376C314.012 105.163 313.586 105.056 313.106 105.056C312.626 105.056 312.194 105.163 311.81 105.376C311.436 105.589 311.132 105.899 310.898 106.304C310.674 106.699 310.562 107.173 310.562 107.728C310.562 108.272 310.674 108.747 310.898 109.152C311.132 109.557 311.436 109.867 311.81 110.08C312.194 110.293 312.626 110.4 313.106 110.4ZM315.698 112V109.984L315.778 107.712L315.618 105.44V100.128H317.602V112H315.698ZM324.074 112.112C323.199 112.112 322.421 111.925 321.738 111.552C321.055 111.168 320.517 110.645 320.122 109.984C319.727 109.323 319.53 108.571 319.53 107.728C319.53 106.875 319.727 106.123 320.122 105.472C320.517 104.811 321.055 104.293 321.738 103.92C322.421 103.547 323.199 103.36 324.074 103.36C324.959 103.36 325.743 103.547 326.426 103.92C327.119 104.293 327.658 104.805 328.042 105.456C328.437 106.107 328.634 106.864 328.634 107.728C328.634 108.571 328.437 109.323 328.042 109.984C327.658 110.645 327.119 111.168 326.426 111.552C325.743 111.925 324.959 112.112 324.074 112.112ZM324.074 110.4C324.565 110.4 325.002 110.293 325.386 110.08C325.77 109.867 326.069 109.557 326.282 109.152C326.506 108.747 326.618 108.272 326.618 107.728C326.618 107.173 326.506 106.699 326.282 106.304C326.069 105.899 325.77 105.589 325.386 105.376C325.002 105.163 324.57 105.056 324.09 105.056C323.599 105.056 323.162 105.163 322.778 105.376C322.405 105.589 322.106 105.899 321.882 106.304C321.658 106.699 321.546 107.173 321.546 107.728C321.546 108.272 321.658 108.747 321.882 109.152C322.106 109.557 322.405 109.867 322.778 110.08C323.162 110.293 323.594 110.4 324.074 110.4ZM330.546 112V103.456H332.45V105.808L332.226 105.12C332.482 104.544 332.882 104.107 333.426 103.808C333.981 103.509 334.669 103.36 335.49 103.36V105.264C335.405 105.243 335.325 105.232 335.25 105.232C335.176 105.221 335.101 105.216 335.026 105.216C334.269 105.216 333.666 105.44 333.218 105.888C332.77 106.325 332.546 106.981 332.546 107.856V112H330.546Z" fill="#474747"/>
<path d="M221.688 16.16C220.835 16.16 220.04 16.0213 219.304 15.744C218.579 15.456 217.944 15.056 217.4 14.544C216.867 14.0213 216.451 13.408 216.152 12.704C215.853 12 215.704 11.232 215.704 10.4C215.704 9.568 215.853 8.8 216.152 8.096C216.451 7.392 216.872 6.784 217.416 6.272C217.96 5.74933 218.595 5.34933 219.32 5.072C220.045 4.784 220.84 4.64 221.704 4.64C222.621 4.64 223.459 4.8 224.216 5.12C224.973 5.42933 225.613 5.89333 226.136 6.512L224.792 7.776C224.387 7.33867 223.933 7.01333 223.432 6.8C222.931 6.576 222.387 6.464 221.8 6.464C221.213 6.464 220.675 6.56 220.184 6.752C219.704 6.944 219.283 7.216 218.92 7.568C218.568 7.92 218.291 8.336 218.088 8.816C217.896 9.296 217.8 9.824 217.8 10.4C217.8 10.976 217.896 11.504 218.088 11.984C218.291 12.464 218.568 12.88 218.92 13.232C219.283 13.584 219.704 13.856 220.184 14.048C220.675 14.24 221.213 14.336 221.8 14.336C222.387 14.336 222.931 14.2293 223.432 14.016C223.933 13.792 224.387 13.456 224.792 13.008L226.136 14.288C225.613 14.896 224.973 15.36 224.216 15.68C223.459 16 222.616 16.16 221.688 16.16ZM231.449 16.112C230.574 16.112 229.796 15.9253 229.113 15.552C228.43 15.168 227.892 14.6453 227.497 13.984C227.102 13.3227 226.905 12.5707 226.905 11.728C226.905 10.8747 227.102 10.1227 227.497 9.472C227.892 8.81067 228.43 8.29333 229.113 7.92C229.796 7.54667 230.574 7.36 231.449 7.36C232.334 7.36 233.118 7.54667 233.801 7.92C234.494 8.29333 235.033 8.80533 235.417 9.456C235.812 10.1067 236.009 10.864 236.009 11.728C236.009 12.5707 235.812 13.3227 235.417 13.984C235.033 14.6453 234.494 15.168 233.801 15.552C233.118 15.9253 232.334 16.112 231.449 16.112ZM231.449 14.4C231.94 14.4 232.377 14.2933 232.761 14.08C233.145 13.8667 233.444 13.5573 233.657 13.152C233.881 12.7467 233.993 12.272 233.993 11.728C233.993 11.1733 233.881 10.6987 233.657 10.304C233.444 9.89867 233.145 9.58933 232.761 9.376C232.377 9.16267 231.945 9.056 231.465 9.056C230.974 9.056 230.537 9.16267 230.153 9.376C229.78 9.58933 229.481 9.89867 229.257 10.304C229.033 10.6987 228.921 11.1733 228.921 11.728C228.921 12.272 229.033 12.7467 229.257 13.152C229.481 13.5573 229.78 13.8667 230.153 14.08C230.537 14.2933 230.969 14.4 231.449 14.4ZM242.769 7.36C243.452 7.36 244.06 7.49333 244.593 7.76C245.137 8.02667 245.564 8.43733 245.873 8.992C246.183 9.536 246.337 10.24 246.337 11.104V16H244.337V11.36C244.337 10.6027 244.156 10.0373 243.793 9.664C243.441 9.29067 242.945 9.104 242.305 9.104C241.836 9.104 241.42 9.2 241.057 9.392C240.695 9.584 240.412 9.872 240.209 10.256C240.017 10.6293 239.921 11.104 239.921 11.68V16H237.921V7.456H239.825V9.76L239.489 9.056C239.788 8.512 240.22 8.096 240.785 7.808C241.361 7.50933 242.023 7.36 242.769 7.36ZM252.091 16.112C251.152 16.112 250.427 15.872 249.914 15.392C249.403 14.9013 249.147 14.1813 249.147 13.232V5.568H251.147V13.184C251.147 13.5893 251.248 13.904 251.451 14.128C251.664 14.352 251.957 14.464 252.331 14.464C252.779 14.464 253.152 14.3467 253.451 14.112L254.011 15.536C253.776 15.728 253.488 15.872 253.147 15.968C252.805 16.064 252.453 16.112 252.091 16.112ZM247.739 9.12V7.52H253.435V9.12H247.739ZM255.656 16V7.456H257.56V9.808L257.336 9.12C257.592 8.544 257.992 8.10667 258.536 7.808C259.09 7.50933 259.778 7.36 260.6 7.36V9.264C260.514 9.24267 260.434 9.232 260.36 9.232C260.285 9.22133 260.21 9.216 260.136 9.216C259.378 9.216 258.776 9.44 258.328 9.888C257.88 10.3253 257.656 10.9813 257.656 11.856V16H255.656ZM266.058 16.112C265.184 16.112 264.405 15.9253 263.722 15.552C263.04 15.168 262.501 14.6453 262.106 13.984C261.712 13.3227 261.514 12.5707 261.514 11.728C261.514 10.8747 261.712 10.1227 262.106 9.472C262.501 8.81067 263.04 8.29333 263.722 7.92C264.405 7.54667 265.184 7.36 266.058 7.36C266.944 7.36 267.728 7.54667 268.41 7.92C269.104 8.29333 269.642 8.80533 270.026 9.456C270.421 10.1067 270.618 10.864 270.618 11.728C270.618 12.5707 270.421 13.3227 270.026 13.984C269.642 14.6453 269.104 15.168 268.41 15.552C267.728 15.9253 266.944 16.112 266.058 16.112ZM266.058 14.4C266.549 14.4 266.986 14.2933 267.37 14.08C267.754 13.8667 268.053 13.5573 268.266 13.152C268.49 12.7467 268.602 12.272 268.602 11.728C268.602 11.1733 268.49 10.6987 268.266 10.304C268.053 9.89867 267.754 9.58933 267.37 9.376C266.986 9.16267 266.554 9.056 266.074 9.056C265.584 9.056 265.146 9.16267 264.762 9.376C264.389 9.58933 264.09 9.89867 263.866 10.304C263.642 10.6987 263.53 11.1733 263.53 11.728C263.53 12.272 263.642 12.7467 263.866 13.152C264.09 13.5573 264.389 13.8667 264.762 14.08C265.146 14.2933 265.578 14.4 266.058 14.4ZM272.531 16V4.128H274.531V16H272.531ZM282.42 16V14.272L282.308 13.904V10.88C282.308 10.2933 282.132 9.84 281.78 9.52C281.428 9.18933 280.894 9.024 280.18 9.024C279.7 9.024 279.225 9.09867 278.756 9.248C278.297 9.39733 277.908 9.60533 277.588 9.872L276.804 8.416C277.262 8.064 277.806 7.80267 278.436 7.632C279.076 7.45067 279.737 7.36 280.42 7.36C281.657 7.36 282.612 7.65867 283.284 8.256C283.966 8.84267 284.308 9.75467 284.308 10.992V16H282.42ZM279.732 16.112C279.092 16.112 278.532 16.0053 278.052 15.792C277.572 15.568 277.198 15.264 276.932 14.88C276.676 14.4853 276.548 14.0427 276.548 13.552C276.548 13.072 276.66 12.64 276.884 12.256C277.118 11.872 277.497 11.568 278.02 11.344C278.542 11.12 279.236 11.008 280.1 11.008H282.58V12.336H280.244C279.561 12.336 279.102 12.448 278.868 12.672C278.633 12.8853 278.516 13.152 278.516 13.472C278.516 13.8347 278.66 14.1227 278.948 14.336C279.236 14.5493 279.636 14.656 280.148 14.656C280.638 14.656 281.076 14.544 281.46 14.32C281.854 14.096 282.137 13.7653 282.308 13.328L282.644 14.528C282.452 15.0293 282.105 15.4187 281.604 15.696C281.113 15.9733 280.489 16.112 279.732 16.112ZM290.506 16.112C289.685 16.112 288.943 15.9307 288.282 15.568C287.631 15.1947 287.119 14.6827 286.746 14.032C286.373 13.3813 286.186 12.6133 286.186 11.728C286.186 10.8427 286.373 10.0747 286.746 9.424C287.119 8.77333 287.631 8.26667 288.282 7.904C288.943 7.54133 289.685 7.36 290.506 7.36C291.221 7.36 291.861 7.52 292.426 7.84C292.991 8.14933 293.439 8.624 293.77 9.264C294.101 9.904 294.266 10.7253 294.266 11.728C294.266 12.72 294.106 13.5413 293.786 14.192C293.466 14.832 293.023 15.312 292.458 15.632C291.893 15.952 291.242 16.112 290.506 16.112ZM290.746 14.4C291.226 14.4 291.653 14.2933 292.026 14.08C292.41 13.8667 292.714 13.5573 292.938 13.152C293.173 12.7467 293.29 12.272 293.29 11.728C293.29 11.1733 293.173 10.6987 292.938 10.304C292.714 9.89867 292.41 9.58933 292.026 9.376C291.653 9.16267 291.226 9.056 290.746 9.056C290.266 9.056 289.834 9.16267 289.45 9.376C289.077 9.58933 288.773 9.89867 288.538 10.304C288.314 10.6987 288.202 11.1733 288.202 11.728C288.202 12.272 288.314 12.7467 288.538 13.152C288.773 13.5573 289.077 13.8667 289.45 14.08C289.834 14.2933 290.266 14.4 290.746 14.4ZM293.338 16V13.984L293.418 11.712L293.258 9.44V4.128H295.242V16H293.338ZM301.715 16.112C300.84 16.112 300.061 15.9253 299.379 15.552C298.696 15.168 298.157 14.6453 297.763 13.984C297.368 13.3227 297.171 12.5707 297.171 11.728C297.171 10.8747 297.368 10.1227 297.763 9.472C298.157 8.81067 298.696 8.29333 299.379 7.92C300.061 7.54667 300.84 7.36 301.715 7.36C302.6 7.36 303.384 7.54667 304.067 7.92C304.76 8.29333 305.299 8.80533 305.683 9.456C306.077 10.1067 306.275 10.864 306.275 11.728C306.275 12.5707 306.077 13.3227 305.683 13.984C305.299 14.6453 304.76 15.168 304.067 15.552C303.384 15.9253 302.6 16.112 301.715 16.112ZM301.715 14.4C302.205 14.4 302.643 14.2933 303.027 14.08C303.411 13.8667 303.709 13.5573 303.923 13.152C304.147 12.7467 304.259 12.272 304.259 11.728C304.259 11.1733 304.147 10.6987 303.923 10.304C303.709 9.89867 303.411 9.58933 303.027 9.376C302.643 9.16267 302.211 9.056 301.731 9.056C301.24 9.056 300.803 9.16267 300.419 9.376C300.045 9.58933 299.747 9.89867 299.523 10.304C299.299 10.6987 299.187 11.1733 299.187 11.728C299.187 12.272 299.299 12.7467 299.523 13.152C299.747 13.5573 300.045 13.8667 300.419 14.08C300.803 14.2933 301.235 14.4 301.715 14.4ZM308.187 16V7.456H310.091V9.808L309.867 9.12C310.123 8.544 310.523 8.10667 311.067 7.808C311.622 7.50933 312.31 7.36 313.131 7.36V9.264C313.046 9.24267 312.966 9.232 312.891 9.232C312.816 9.22133 312.742 9.216 312.667 9.216C311.91 9.216 311.307 9.44 310.859 9.888C310.411 10.3253 310.187 10.9813 310.187 11.856V16H308.187Z" fill="#474747"/>
<path d="M3.776 56V46.56H0.064V44.8H9.568V46.56H5.856V56H3.776ZM10.7339 56V47.456H12.6379V49.808L12.4139 49.12C12.6699 48.544 13.0699 48.1067 13.6139 47.808C14.1685 47.5093 14.8565 47.36 15.6779 47.36V49.264C15.5925 49.2427 15.5125 49.232 15.4379 49.232C15.3632 49.2213 15.2885 49.216 15.2139 49.216C14.4565 49.216 13.8539 49.44 13.4059 49.888C12.9579 50.3253 12.7339 50.9813 12.7339 51.856V56H10.7339ZM22.0291 56V54.272L21.9171 53.904V50.88C21.9171 50.2933 21.7411 49.84 21.3891 49.52C21.0371 49.1893 20.5038 49.024 19.7891 49.024C19.3091 49.024 18.8345 49.0987 18.3651 49.248C17.9065 49.3973 17.5171 49.6053 17.1971 49.872L16.4131 48.416C16.8718 48.064 17.4158 47.8027 18.0451 47.632C18.6851 47.4507 19.3465 47.36 20.0291 47.36C21.2665 47.36 22.2211 47.6587 22.8931 48.256C23.5758 48.8427 23.9171 49.7547 23.9171 50.992V56H22.0291ZM19.3411 56.112C18.7011 56.112 18.1411 56.0053 17.6611 55.792C17.1811 55.568 16.8078 55.264 16.5411 54.88C16.2851 54.4853 16.1571 54.0427 16.1571 53.552C16.1571 53.072 16.2691 52.64 16.4931 52.256C16.7278 51.872 17.1065 51.568 17.6291 51.344C18.1518 51.12 18.8451 51.008 19.7091 51.008H22.1891V52.336H19.8531C19.1705 52.336 18.7118 52.448 18.4771 52.672C18.2425 52.8853 18.1251 53.152 18.1251 53.472C18.1251 53.8347 18.2691 54.1227 18.5571 54.336C18.8451 54.5493 19.2451 54.656 19.7571 54.656C20.2478 54.656 20.6851 54.544 21.0691 54.32C21.4638 54.096 21.7465 53.7653 21.9171 53.328L22.2531 54.528C22.0611 55.0293 21.7145 55.4187 21.2131 55.696C20.7225 55.9733 20.0985 56.112 19.3411 56.112ZM30.4195 56.112C29.5235 56.112 28.7235 55.9253 28.0195 55.552C27.3262 55.168 26.7822 54.6453 26.3875 53.984C25.9928 53.3227 25.7955 52.5707 25.7955 51.728C25.7955 50.8747 25.9928 50.1227 26.3875 49.472C26.7822 48.8107 27.3262 48.2933 28.0195 47.92C28.7235 47.5467 29.5235 47.36 30.4195 47.36C31.2515 47.36 31.9822 47.5307 32.6115 47.872C33.2515 48.2027 33.7368 48.6933 34.0675 49.344L32.5315 50.24C32.2755 49.8347 31.9608 49.536 31.5875 49.344C31.2248 49.152 30.8302 49.056 30.4035 49.056C29.9128 49.056 29.4702 49.1627 29.0755 49.376C28.6808 49.5893 28.3715 49.8987 28.1475 50.304C27.9235 50.6987 27.8115 51.1733 27.8115 51.728C27.8115 52.2827 27.9235 52.7627 28.1475 53.168C28.3715 53.5627 28.6808 53.8667 29.0755 54.08C29.4702 54.2933 29.9128 54.4 30.4035 54.4C30.8302 54.4 31.2248 54.304 31.5875 54.112C31.9608 53.92 32.2755 53.6213 32.5315 53.216L34.0675 54.112C33.7368 54.752 33.2515 55.248 32.6115 55.6C31.9822 55.9413 31.2515 56.112 30.4195 56.112ZM37.3503 54.096L37.3983 51.584L41.8623 47.456H44.2623L40.4703 51.264L39.4143 52.144L37.3503 54.096ZM35.7183 56V44.128H37.7183V56H35.7183ZM42.1663 56L39.0463 52.144L40.3103 50.544L44.5983 56H42.1663Z" fill="#474747"/>
</svg>
