<svg width="154" height="79" viewBox="0 0 154 79" fill="none" xmlns="http://www.w3.org/2000/svg">
<path d="M42.9333 48.75C41.5666 48.75 40.3083 48.525 39.1583 48.075C38.0083 47.625 37.0083 47 36.1583 46.2C35.3083 45.3833 34.65 44.4333 34.1833 43.35C33.7166 42.25 33.4833 41.05 33.4833 39.75C33.4833 38.45 33.7166 37.2583 34.1833 36.175C34.65 35.075 35.3083 34.125 36.1583 33.325C37.0083 32.5083 38.0083 31.875 39.1583 31.425C40.3083 30.975 41.5583 30.75 42.9083 30.75C44.275 30.75 45.525 30.975 46.6583 31.425C47.8083 31.875 48.8083 32.5083 49.6583 33.325C50.5083 34.125 51.1666 35.075 51.6333 36.175C52.1 37.2583 52.3333 38.45 52.3333 39.75C52.3333 41.05 52.1 42.25 51.6333 43.35C51.1666 44.45 50.5083 45.4 49.6583 46.2C48.8083 47 47.8083 47.625 46.6583 48.075C45.525 48.525 44.2833 48.75 42.9333 48.75ZM42.9083 45.9C43.7916 45.9 44.6083 45.75 45.3583 45.45C46.1083 45.15 46.7583 44.725 47.3083 44.175C47.8583 43.6083 48.2833 42.9583 48.5833 42.225C48.9 41.475 49.0583 40.65 49.0583 39.75C49.0583 38.85 48.9 38.0333 48.5833 37.3C48.2833 36.55 47.8583 35.9 47.3083 35.35C46.7583 34.7833 46.1083 34.35 45.3583 34.05C44.6083 33.75 43.7916 33.6 42.9083 33.6C42.025 33.6 41.2083 33.75 40.4583 34.05C39.725 34.35 39.075 34.7833 38.5083 35.35C37.9583 35.9 37.525 36.55 37.2083 37.3C36.9083 38.0333 36.7583 38.85 36.7583 39.75C36.7583 40.6333 36.9083 41.45 37.2083 42.2C37.525 42.95 37.9583 43.6083 38.5083 44.175C39.0583 44.725 39.7083 45.15 40.4583 45.45C41.2083 45.75 42.025 45.9 42.9083 45.9ZM62.8782 48.675C61.7949 48.675 60.8032 48.425 59.9032 47.925C59.0199 47.425 58.3116 46.675 57.7782 45.675C57.2616 44.6583 57.0032 43.375 57.0032 41.825C57.0032 40.2583 57.2532 38.975 57.7532 37.975C58.2699 36.975 58.9699 36.2333 59.8532 35.75C60.7366 35.25 61.7449 35 62.8782 35C64.1949 35 65.3532 35.2833 66.3532 35.85C67.3699 36.4167 68.1699 37.2083 68.7532 38.225C69.3532 39.2417 69.6532 40.4417 69.6532 41.825C69.6532 43.2083 69.3532 44.4167 68.7532 45.45C68.1699 46.4667 67.3699 47.2583 66.3532 47.825C65.3532 48.3917 64.1949 48.675 62.8782 48.675ZM55.4782 53.35V35.15H58.4532V38.3L58.3532 41.85L58.6032 45.4V53.35H55.4782ZM62.5282 46C63.2782 46 63.9449 45.8333 64.5282 45.5C65.1282 45.1667 65.6032 44.6833 65.9532 44.05C66.3032 43.4167 66.4782 42.675 66.4782 41.825C66.4782 40.9583 66.3032 40.2167 65.9532 39.6C65.6032 38.9667 65.1282 38.4833 64.5282 38.15C63.9449 37.8167 63.2782 37.65 62.5282 37.65C61.7782 37.65 61.1032 37.8167 60.5032 38.15C59.9032 38.4833 59.4282 38.9667 59.0782 39.6C58.7282 40.2167 58.5532 40.9583 58.5532 41.825C58.5532 42.675 58.7282 43.4167 59.0782 44.05C59.4282 44.6833 59.9032 45.1667 60.5032 45.5C61.1032 45.8333 61.7782 46 62.5282 46ZM77.6419 48.675C76.1752 48.675 75.0419 48.3 74.2419 47.55C73.4419 46.7833 73.0419 45.6583 73.0419 44.175V32.2H76.1669V44.1C76.1669 44.7333 76.3252 45.225 76.6419 45.575C76.9752 45.925 77.4336 46.1 78.0169 46.1C78.7169 46.1 79.3002 45.9167 79.7669 45.55L80.6419 47.775C80.2752 48.075 79.8252 48.3 79.2919 48.45C78.7586 48.6 78.2086 48.675 77.6419 48.675ZM70.8419 37.75V35.25H79.7419V37.75H70.8419ZM83.2126 48.5V35.15H86.3376V48.5H83.2126ZM84.7876 32.95C84.2043 32.95 83.7209 32.7667 83.3376 32.4C82.9709 32.0333 82.7876 31.5917 82.7876 31.075C82.7876 30.5417 82.9709 30.1 83.3376 29.75C83.7209 29.3833 84.2043 29.2 84.7876 29.2C85.3709 29.2 85.8459 29.375 86.2126 29.725C86.5959 30.0583 86.7876 30.4833 86.7876 31C86.7876 31.55 86.6043 32.0167 86.2376 32.4C85.8709 32.7667 85.3876 32.95 84.7876 32.95ZM96.4392 48.675C95.0725 48.675 93.8558 48.3833 92.7892 47.8C91.7225 47.2 90.8808 46.3833 90.2642 45.35C89.6475 44.3167 89.3392 43.1417 89.3392 41.825C89.3392 40.4917 89.6475 39.3167 90.2642 38.3C90.8808 37.2667 91.7225 36.4583 92.7892 35.875C93.8558 35.2917 95.0725 35 96.4392 35C97.8225 35 99.0475 35.2917 100.114 35.875C101.197 36.4583 102.039 37.2583 102.639 38.275C103.256 39.2917 103.564 40.475 103.564 41.825C103.564 43.1417 103.256 44.3167 102.639 45.35C102.039 46.3833 101.197 47.2 100.114 47.8C99.0475 48.3833 97.8225 48.675 96.4392 48.675ZM96.4392 46C97.2058 46 97.8892 45.8333 98.4892 45.5C99.0892 45.1667 99.5558 44.6833 99.8892 44.05C100.239 43.4167 100.414 42.675 100.414 41.825C100.414 40.9583 100.239 40.2167 99.8892 39.6C99.5558 38.9667 99.0892 38.4833 98.4892 38.15C97.8892 37.8167 97.2142 37.65 96.4642 37.65C95.6975 37.65 95.0142 37.8167 94.4142 38.15C93.8308 38.4833 93.3642 38.9667 93.0142 39.6C92.6642 40.2167 92.4892 40.9583 92.4892 41.825C92.4892 42.675 92.6642 43.4167 93.0142 44.05C93.3642 44.6833 93.8308 45.1667 94.4142 45.5C95.0142 45.8333 95.6892 46 96.4392 46ZM114.127 35C115.194 35 116.144 35.2083 116.977 35.625C117.827 36.0417 118.494 36.6833 118.977 37.55C119.461 38.4 119.702 39.5 119.702 40.85V48.5H116.577V41.25C116.577 40.0667 116.294 39.1833 115.727 38.6C115.177 38.0167 114.402 37.725 113.402 37.725C112.669 37.725 112.019 37.875 111.452 38.175C110.886 38.475 110.444 38.925 110.127 39.525C109.827 40.1083 109.677 40.85 109.677 41.75V48.5H106.552V35.15H109.527V38.75L109.002 37.65C109.469 36.8 110.144 36.15 111.027 35.7C111.927 35.2333 112.961 35 114.127 35Z" fill="#4A3CDB"/>
<path d="M154 64.9868H0" stroke="#EBECF0" stroke-width="4"/>
<path d="M127 64.9868H27" stroke="#F9E100" stroke-width="4" stroke-linecap="round"/>
</svg>
