<svg width="81" height="72" viewBox="0 0 81 72" fill="none" xmlns="http://www.w3.org/2000/svg">
<path d="M48 22.6665C40.6354 22.6665 34.6667 28.6353 34.6667 35.9998C34.6667 43.3644 40.6354 49.3332 48 49.3332C55.3646 49.3332 61.3334 43.3644 61.3334 35.9998C61.3334 28.6353 55.3646 22.6665 48 22.6665ZM48 47.6665C41.5677 47.6665 36.3334 42.4321 36.3334 35.9998C36.3334 29.5675 41.5677 24.3332 48 24.3332C54.4323 24.3332 59.6667 29.5675 59.6667 35.9998C59.6667 42.4321 54.4323 47.6665 48 47.6665ZM48 32.2498C48.6901 32.2498 49.25 31.6905 49.25 30.9998C49.25 30.3097 48.6901 29.7498 48 29.7498C47.3099 29.7498 46.75 30.3071 46.75 30.9998C46.75 31.6925 47.3073 32.2498 48 32.2498ZM50.5 40.9998H48.8334V35.1665C48.8334 34.7082 48.4584 34.3332 48 34.3332H46.3334C45.875 34.3332 45.5 34.7082 45.5 35.1665C45.5 35.6248 45.875 35.9998 46.3334 35.9998H47.1667V40.9998H45.5C45.0417 40.9998 44.6667 41.3748 44.6667 41.8332C44.6667 42.2915 45.0417 42.6665 45.5 42.6665H50.5C50.9602 42.6665 51.3334 42.2934 51.3334 41.8332C51.3334 41.3748 50.9584 40.9998 50.5 40.9998Z" fill="#4A3CDB"/>
<path d="M0 8C0 3.58172 3.58172 0 8 0H20V72H8C3.58172 72 0 68.4183 0 64V8Z" fill="#4A3CDB"/>
<rect x="0.5" y="0.5" width="80" height="71" rx="7.5" stroke="#4A3CDB"/>
</svg>
